<?xml version="1.0" encoding="utf-8"?>
<!-- Generator: Adobe Illustrator 15.0.2, SVG Export Plug-In . SVG Version: 6.00 Build 0)  -->
<!DOCTYPE svg PUBLIC "-//W3C//DTD SVG 1.1//EN" "http://www.w3.org/Graphics/SVG/1.1/DTD/svg11.dtd">
<svg version="1.1" id="Layer_1" xmlns="http://www.w3.org/2000/svg" xmlns:xlink="http://www.w3.org/1999/xlink" x="0px" y="0px"
	 width="96px" height="96px" viewBox="0 0 96 96" enable-background="new 0 0 96 96" xml:space="preserve">
<path fill-opacity="0.4" d="M88,49c0,29.634-10.363,40-40,40C18.366,89,8,78.634,8,49C8,19.365,18.366,9,48,9
	C77.637,9,88,19.365,88,49z"/>
<linearGradient id="SVGID_1_" gradientUnits="userSpaceOnUse" x1="-299.9995" y1="595.6016" x2="-299.9995" y2="520.7645" gradientTransform="matrix(1 0 0 1 348 -499)">
	<stop  offset="0" style="stop-color:#006325"/>
	<stop  offset="1" style="stop-color:#80C341"/>
</linearGradient>
<path fill="url(#SVGID_1_)" d="M88,48c0,29.634-10.363,40-40,40C18.366,88,8,77.634,8,48C8,18.365,18.366,8,48,8
	C77.637,8,88,18.365,88,48z"/>
<rect fill="none" width="96" height="96"/>
<linearGradient id="SVGID_2_" gradientUnits="userSpaceOnUse" x1="-474.2749" y1="-287.6982" x2="-474.2749" y2="-366.9439" gradientTransform="matrix(1 0 0 -1 522.2749 -279.4453)">
	<stop  offset="0" style="stop-color:#FFFFFF"/>
	<stop  offset="1" style="stop-color:#FFFFFF;stop-opacity:0"/>
</linearGradient>
<path fill="url(#SVGID_2_)" fill-opacity="0.25" d="M48,8C18.366,8,8,18.365,8,48c0,29.634,10.366,40,40,40
	c29.637,0,40-10.366,40-40C88,18.365,77.637,8,48,8z M48,87C18.842,87,9,77.158,9,48S18.842,9,48,9s39,9.842,39,39S77.158,87,48,87z
	"/>
<path opacity="0.05" d="M48.477,30.238c-0.292-0.006-0.602-0.009-0.926-0.009c-6.526,0-20.277,1.429-25.611,6.836
	c-1.648,1.672-2.469,3.57-2.44,5.622c-0.005,0.224-0.045,5.517,7.199,7.746c3.679,1.132,4.851,1.719,5.2,1.925
	c-0.141,0.205-0.441,0.567-1.066,1.094c-2.346,1.968-3.474,4.254-3.262,6.61c0.235,2.6,2.153,4.991,5.582,6.935
	c5.279,2.46,11.652,2.775,16.614,2.775c14.991,0,26.734-8.653,26.734-19.701C76.5,41.314,71.639,30.765,48.477,30.238z
	 M40.576,40.915c-0.324,0.452-1.001,0.81-1.767,0.935c-0.194,0.032-0.388,0.048-0.579,0.048c-1.055,0-1.583-0.458-1.607-0.604
	c-0.005-0.031,0.015-0.13,0.125-0.284c0.325-0.452,1.002-0.811,1.769-0.936c0.193-0.031,0.387-0.048,0.578-0.048
	c1.053,0,1.582,0.459,1.605,0.605C40.706,40.668,40.678,40.773,40.576,40.915z M39.351,57.793c0.845,0,1.532,0.688,1.532,1.533
	c0,0.843-0.688,1.529-1.532,1.529c-0.842,0-1.527-0.687-1.527-1.529C37.823,58.48,38.508,57.793,39.351,57.793z M51.914,41.037
	c-0.771-0.051-1.479-0.344-1.845-0.763c-0.125-0.144-0.154-0.243-0.151-0.277c0.018-0.185,0.728-0.765,1.866-0.765
	c0.08,0,0.162,0.002,0.254,0.01c0.774,0.053,1.483,0.347,1.852,0.77c0.112,0.129,0.149,0.229,0.146,0.278
	c-0.02,0.188-0.712,0.757-1.863,0.757C52.09,41.046,52.009,41.044,51.914,41.037z M62.488,43.496
	c0.038-0.078,0.306-0.249,0.858-0.249c0.446,0,0.926,0.12,1.391,0.346c0.696,0.336,1.242,0.872,1.426,1.398
	c0.062,0.178,0.052,0.28,0.036,0.311c-0.037,0.078-0.307,0.248-0.861,0.248c-0.446,0-0.927-0.118-1.388-0.343
	c-0.696-0.336-1.242-0.873-1.425-1.401C62.464,43.628,62.474,43.525,62.488,43.496z"/>
<path opacity="0.07" d="M48.467,30.738c-0.289-0.006-0.595-0.009-0.916-0.009c-6.454,0-20.038,1.397-25.255,6.687
	c-1.551,1.573-2.323,3.357-2.296,5.283c-0.005,0.208-0.05,5.135,6.846,7.256c3.596,1.105,5.501,1.909,5.656,2.309
	c0,0.005-0.07,0.493-1.349,1.57c-2.216,1.858-3.282,3.996-3.085,6.183c0.22,2.429,2.039,4.679,5.295,6.526
	c5.189,2.418,11.491,2.729,16.402,2.729C64.477,69.271,76,60.837,76,50.07C76,41.537,71.224,31.256,48.467,30.738z M40.982,41.207
	c-0.405,0.564-1.187,0.989-2.093,1.137c-0.221,0.036-0.442,0.055-0.66,0.055c-1.194,0-2.02-0.531-2.101-1.022
	c-0.04-0.244,0.093-0.491,0.212-0.657c0.405-0.565,1.188-0.99,2.095-1.138c0.22-0.036,0.441-0.054,0.658-0.054
	c1.193,0,2.019,0.532,2.099,1.025C41.233,40.795,41.101,41.042,40.982,41.207z M39.351,57.293c1.121,0,2.032,0.912,2.032,2.033
	c0,1.119-0.912,2.029-2.032,2.029c-1.118,0-2.027-0.91-2.027-2.029C37.323,58.205,38.233,57.293,39.351,57.293z M51.881,41.536
	c-0.912-0.061-1.73-0.41-2.188-0.934c-0.134-0.154-0.291-0.39-0.273-0.639c0.038-0.569,1.08-1.231,2.365-1.231
	c0.093,0,0.188,0.003,0.288,0.011c0.916,0.062,1.735,0.414,2.193,0.939c0.133,0.152,0.286,0.385,0.269,0.64
	c-0.037,0.566-1.076,1.225-2.362,1.225C52.078,41.546,51.984,41.543,51.881,41.536z M62.038,43.278
	c0.158-0.328,0.66-0.532,1.309-0.532c0.521,0,1.077,0.137,1.608,0.396c0.823,0.398,1.451,1.027,1.68,1.683
	c0.067,0.193,0.125,0.469,0.015,0.694c-0.158,0.327-0.661,0.53-1.312,0.53c-0.522,0-1.077-0.136-1.605-0.393
	c-0.823-0.398-1.451-1.028-1.679-1.686C61.986,43.779,61.93,43.503,62.038,43.278z"/>
<path opacity="0.1" d="M48.457,31.238c-0.285-0.006-0.588-0.009-0.905-0.009c-6.381,0-19.797,1.366-24.899,6.538
	c-1.453,1.474-2.177,3.144-2.152,4.944c-0.005,0.193-0.055,4.751,6.493,6.766c2.03,0.624,5.808,1.786,6.006,2.763
	c0.005,0.024,0.102,0.607-1.524,1.977c-2.085,1.749-3.09,3.739-2.908,5.755c0.204,2.257,1.923,4.366,5.008,6.118
	c5.1,2.377,11.332,2.682,16.191,2.682c14.431,0,25.734-8.215,25.734-18.701C75.5,41.76,70.809,31.747,48.457,31.238z M41.389,41.498
	c-0.48,0.67-1.384,1.17-2.418,1.339c-0.248,0.041-0.497,0.061-0.74,0.061c-1.344,0-2.459-0.62-2.594-1.442
	c-0.053-0.326,0.05-0.682,0.299-1.029c0.481-0.67,1.386-1.171,2.421-1.34c0.247-0.04,0.495-0.061,0.738-0.061
	c1.344,0,2.458,0.621,2.592,1.444C41.74,40.797,41.637,41.152,41.389,41.498z M39.351,56.793c1.396,0,2.532,1.137,2.532,2.533
	c0,1.395-1.136,2.529-2.532,2.529c-1.394,0-2.527-1.135-2.527-2.529C36.823,57.93,37.957,56.793,39.351,56.793z M51.848,42.035
	c-1.042-0.069-1.988-0.482-2.531-1.104c-0.282-0.323-0.42-0.669-0.396-1.001c0.062-0.92,1.374-1.697,2.864-1.697
	c0.105,0,0.212,0.003,0.322,0.012c1.045,0.071,1.993,0.486,2.536,1.11c0.279,0.32,0.414,0.665,0.391,1
	c-0.06,0.917-1.37,1.692-2.861,1.692C52.066,42.046,51.96,42.043,51.848,42.035z M61.588,43.061c0.246-0.51,0.904-0.814,1.759-0.814
	c0.597,0,1.228,0.154,1.826,0.446c0.94,0.455,1.663,1.19,1.934,1.968c0.142,0.405,0.14,0.777-0.007,1.077
	c-0.246,0.509-0.905,0.812-1.762,0.812c-0.598,0-1.228-0.153-1.823-0.442c-0.94-0.455-1.663-1.191-1.934-1.972
	C61.44,43.732,61.442,43.361,61.588,43.061z"/>
<path opacity="0.15" d="M48.446,31.738c-0.282-0.006-0.582-0.009-0.895-0.009c-6.309,0-19.558,1.335-24.543,6.389
	c-1.356,1.375-2.031,2.933-2.008,4.607c-0.005,0.178-0.059,4.367,6.138,6.274c2.572,0.791,6.094,1.874,6.351,3.142
	c0.067,0.33-0.064,1.088-1.693,2.459c-1.954,1.64-2.898,3.481-2.731,5.327c0.188,2.086,1.809,4.054,4.722,5.71
	c5.01,2.335,11.171,2.635,15.979,2.635C63.916,68.271,75,60.276,75,50.07C75,41.983,70.394,32.237,48.446,31.738z M41.795,41.79
	c-0.556,0.775-1.582,1.352-2.744,1.542c-0.274,0.045-0.551,0.067-0.821,0.067c-1.612,0-2.91-0.783-3.087-1.861
	c-0.076-0.46,0.058-0.945,0.386-1.401c0.557-0.776,1.584-1.353,2.747-1.542c0.273-0.045,0.549-0.067,0.819-0.067
	c1.612,0,2.91,0.783,3.085,1.863C42.255,40.849,42.123,41.333,41.795,41.79z M39.351,56.293c1.672,0,3.032,1.36,3.032,3.033
	c0,1.67-1.36,3.029-3.032,3.029c-1.669,0-3.027-1.359-3.027-3.029C36.323,57.653,37.681,56.293,39.351,56.293z M51.814,42.534
	c-1.172-0.078-2.247-0.555-2.875-1.274c-0.372-0.426-0.551-0.897-0.519-1.364c0.081-1.193,1.59-2.164,3.363-2.164
	c0.117,0,0.235,0.004,0.356,0.013c1.175,0.08,2.251,0.559,2.879,1.28c0.368,0.422,0.546,0.893,0.513,1.361
	c-0.077,1.191-1.585,2.16-3.36,2.16C52.055,42.546,51.937,42.542,51.814,42.534z M61.138,42.843
	c0.332-0.687,1.158-1.097,2.209-1.097c0.672,0,1.378,0.171,2.044,0.496c1.057,0.511,1.875,1.354,2.188,2.254
	c0.186,0.533,0.176,1.038-0.029,1.459c-0.332,0.686-1.159,1.095-2.212,1.095c-0.672,0-1.378-0.17-2.041-0.492
	c-1.057-0.511-1.875-1.354-2.188-2.257C60.923,43.768,60.934,43.264,61.138,42.843z"/>
<path opacity="0.15" d="M48.436,32.238c-0.279-0.006-0.575-0.009-0.885-0.009c-6.237,0-19.318,1.304-24.188,6.24
	c-1.258,1.276-1.885,2.72-1.864,4.271c-0.005,0.162-0.056,3.984,5.785,5.781c2.989,0.919,6.377,1.961,6.694,3.52
	c0.158,0.779-0.468,1.769-1.862,2.941c-1.823,1.529-2.707,3.224-2.555,4.899c0.173,1.915,1.694,3.742,4.435,5.302
	c4.921,2.294,11.012,2.588,15.768,2.588c13.87,0,24.734-7.775,24.734-17.701C74.5,42.206,69.979,32.728,48.436,32.238z M68,46.173
	c-0.418,0.862-1.413,1.376-2.662,1.376c-0.747,0-1.528-0.188-2.259-0.542c-1.174-0.567-2.087-1.518-2.443-2.543
	c-0.229-0.661-0.212-1.296,0.052-1.839c0.418-0.863,1.412-1.379,2.659-1.379c0.747,0,1.529,0.188,2.262,0.545
	c1.174,0.567,2.087,1.517,2.443,2.54C68.281,44.993,68.264,45.63,68,46.173z M47.922,39.861c0.101-1.475,1.797-2.629,3.862-2.629
	c0.129,0,0.259,0.004,0.391,0.014c1.305,0.089,2.509,0.632,3.222,1.451c0.458,0.526,0.677,1.121,0.635,1.722
	c-0.096,1.474-1.791,2.628-3.859,2.628c-0.129,0-0.259-0.004-0.391-0.014c-1.302-0.087-2.505-0.627-3.219-1.444
	C48.102,41.061,47.88,40.463,47.922,39.861z M42.201,42.081c-0.632,0.881-1.78,1.533-3.07,1.744c-0.3,0.049-0.603,0.074-0.901,0.074
	c-1.858,0-3.364-0.959-3.581-2.28c-0.098-0.594,0.066-1.208,0.473-1.774c0.633-0.881,1.782-1.533,3.072-1.744
	c0.299-0.049,0.602-0.074,0.899-0.074c1.858,0,3.364,0.959,3.579,2.281C42.771,40.901,42.608,41.515,42.201,42.081z M39.351,55.793
	c1.948,0,3.532,1.585,3.532,3.533c0,1.946-1.584,3.529-3.532,3.529c-1.945,0-3.527-1.583-3.527-3.529
	C35.823,57.378,37.406,55.793,39.351,55.793z"/>
<linearGradient id="SVGID_3_" gradientUnits="userSpaceOnUse" x1="-126.0005" y1="152.7285" x2="-126.0005" y2="187.2715" gradientTransform="matrix(1 0 0 -1 174 219)">
	<stop  offset="0" style="stop-color:#D0CBC5"/>
	<stop  offset="0.5031" style="stop-color:#FAFCEF"/>
	<stop  offset="0.9693" style="stop-color:#FFFFFF"/>
</linearGradient>
<path fill="url(#SVGID_3_)" d="M48.425,31.738C40.964,31.572,21.889,33.583,22,41.756c0,0-0.111,3.582,5.432,5.287
	c4.95,1.522,10.017,3.107,5.007,7.322c-3.628,3.045-3.203,6.531,1.771,9.365c4.94,2.303,11.141,2.541,15.557,2.541
	C63.184,66.271,74,58.812,74,49.07C74,39.328,66.854,32.157,48.425,31.738z M34.156,40.7c-0.306-1.855,1.47-3.687,3.958-4.093
	c2.487-0.406,4.751,0.769,5.052,2.62c0.307,1.854-1.466,3.685-3.955,4.092C36.721,43.723,34.46,42.552,34.156,40.7z M39.351,62.355
	c-2.223,0-4.027-1.811-4.027-4.029c0-2.229,1.806-4.033,4.027-4.033c2.227,0,4.032,1.807,4.032,4.033
	C43.383,60.545,41.577,62.355,39.351,62.355z M51.748,42.532c-2.521-0.168-4.454-1.832-4.325-3.705
	c0.128-1.869,2.271-3.254,4.786-3.081c2.513,0.172,4.453,1.83,4.321,3.705C56.408,41.326,54.262,42.704,51.748,42.532z
	 M68.45,45.392c-0.819,1.689-3.323,2.166-5.589,1.066c-2.27-1.097-3.443-3.363-2.624-5.05c0.818-1.691,3.319-2.172,5.589-1.066
	C68.098,41.439,69.27,43.701,68.45,45.392z"/>
</svg>
