<?xml version="1.0" encoding="utf-8"?>
<!-- Generator: Adobe Illustrator 15.0.2, SVG Export Plug-In . SVG Version: 6.00 Build 0)  -->
<!DOCTYPE svg PUBLIC "-//W3C//DTD SVG 1.1//EN" "http://www.w3.org/Graphics/SVG/1.1/DTD/svg11.dtd">
<svg version="1.1" id="Layer_1" xmlns="http://www.w3.org/2000/svg" xmlns:xlink="http://www.w3.org/1999/xlink" x="0px" y="0px"
	 width="30px" height="30px" viewBox="0 0 30 30" enable-background="new 0 0 30 30" xml:space="preserve">
<path fill-opacity="0.15" d="M15,7.369c0.415,0,0.82,0.169,1.108,0.464l12.073,12.073c0.826,0.824,0.629,1.605,0.507,1.903
	c-0.123,0.298-0.536,0.99-1.707,0.99H3.02c-1.171,0-1.583-0.692-1.707-0.99c-0.123-0.298-0.32-1.079,0.508-1.905L13.899,7.825
	C14.181,7.538,14.585,7.369,15,7.369z"/>
<path fill-opacity="0.3" d="M3.02,20.4h23.962c0.659,0,0.817-0.383,0.352-0.847L15.848,8.068l-0.594-0.593
	c-0.138-0.141-0.368-0.141-0.506,0l-0.594,0.593L2.669,19.554C2.202,20.018,2.359,20.4,3.02,20.4z"/>
<rect fill="none" width="30" height="30"/>
<path fill="#FFFFFF" d="M3.02,21.6h23.962c0.659,0,0.817-0.382,0.352-0.846L15.848,9.268l-0.594-0.593
	c-0.138-0.141-0.368-0.141-0.506,0l-0.594,0.593L2.669,20.754C2.202,21.218,2.359,21.6,3.02,21.6z"/>
</svg>
