<?xml version="1.0" encoding="utf-8"?>
<!-- Generator: Adobe Illustrator 15.0.2, SVG Export Plug-In . SVG Version: 6.00 Build 0)  -->
<!DOCTYPE svg PUBLIC "-//W3C//DTD SVG 1.1//EN" "http://www.w3.org/Graphics/SVG/1.1/DTD/svg11.dtd">
<svg version="1.1" id="Layer_1" xmlns="http://www.w3.org/2000/svg" xmlns:xlink="http://www.w3.org/1999/xlink" x="0px" y="0px"
	 width="30px" height="30px" viewBox="0 0 30 30" enable-background="new 0 0 30 30" xml:space="preserve">
<path fill-opacity="0.15" d="M15,22.631c-0.415,0-0.819-0.17-1.108-0.464L1.82,10.095C0.993,9.272,1.189,8.489,1.312,8.191
	C1.436,7.894,1.848,7.2,3.02,7.2h23.962c1.172,0,1.584,0.692,1.707,0.99c0.123,0.297,0.32,1.079-0.507,1.905L16.101,22.174
	C15.82,22.463,15.415,22.631,15,22.631z"/>
<path fill-opacity="0.3" d="M26.981,7.2H3.02c-0.659,0-0.817,0.381-0.351,0.846l11.485,11.487l0.593,0.593
	c0.138,0.141,0.368,0.141,0.506,0l0.595-0.593L27.333,8.046C27.798,7.582,27.641,7.2,26.981,7.2z"/>
<rect fill="none" width="30" height="30"/>
<path fill="#FFFFFF" d="M26.981,8.4H3.02c-0.659,0-0.817,0.381-0.351,0.846l11.485,11.486l0.593,0.594
	c0.138,0.141,0.368,0.141,0.506,0l0.595-0.594L27.333,9.246C27.798,8.781,27.641,8.4,26.981,8.4z"/>
</svg>
