<?xml version="1.0" encoding="utf-8"?>
<!-- Generator: Adobe Illustrator 15.0.2, SVG Export Plug-In  -->
<!DOCTYPE svg PUBLIC "-//W3C//DTD SVG 1.1//EN" "http://www.w3.org/Graphics/SVG/1.1/DTD/svg11.dtd" [
	<!ENTITY ns_flows "http://ns.adobe.com/Flows/1.0/">
]>
<svg version="1.1"
	 xmlns="http://www.w3.org/2000/svg" xmlns:xlink="http://www.w3.org/1999/xlink" xmlns:a="http://ns.adobe.com/AdobeSVGViewerExtensions/3.0/"
	 x="0px" y="0px" width="360px" height="100px" viewBox="0 0 360 100" overflow="visible" enable-background="new 0 0 360 100"
	 xml:space="preserve">
<defs>
</defs>
<path opacity="0.8" fill="#1E1E1E" d="M360,94c0,3.3-2.699,6-6,6H6c-3.299,0-6-2.7-6-6V6c0-3.3,2.701-6,6-6h348c3.301,0,6,2.7,6,6
	V94z"/>
<linearGradient id="SVGID_1_" gradientUnits="userSpaceOnUse" x1="180" y1="0" x2="180" y2="44.6094">
	<stop  offset="0" style="stop-color:#FFFFFF"/>
	<stop  offset="1" style="stop-color:#FFFFFF;stop-opacity:0"/>
</linearGradient>
<path opacity="0.15" fill="url(#SVGID_1_)" d="M360,94c0,3.3-2.699,6-6,6H6c-3.299,0-6-2.7-6-6V6c0-3.3,2.701-6,6-6h348
	c3.301,0,6,2.7,6,6V94z"/>
<path opacity="0.1" fill="#FFFFFF" d="M354,0H6C2.701,0,0,2.7,0,6v1.5c0-3.3,2.701-6,6-6h348c3.301,0,6,2.7,6,6V6
	C360,2.7,357.301,0,354,0z"/>
<path d="M354,100H6c-3.299,0-6-2.7-6-6v-1.5c0,3.3,2.701,6,6,6h348c3.301,0,6-2.7,6-6V94C360,97.3,357.301,100,354,100z"/>
</svg>
