<?xml version="1.0" encoding="utf-8"?>
<!-- Generator: Adobe Illustrator 15.0.2, SVG Export Plug-In . SVG Version: 6.00 Build 0)  -->
<!DOCTYPE svg PUBLIC "-//W3C//DTD SVG 1.1//EN" "http://www.w3.org/Graphics/SVG/1.1/DTD/svg11.dtd">
<svg version="1.1" id="Layer_1" xmlns="http://www.w3.org/2000/svg" xmlns:xlink="http://www.w3.org/1999/xlink" x="0px" y="0px"
	 width="336px" height="57px" viewBox="0 0 336 57" enable-background="new 0 0 336 57" xml:space="preserve">
<linearGradient id="SVGID_1_" gradientUnits="userSpaceOnUse" x1="-5.9995" y1="205.9238" x2="-5.9995" y2="149.7166" gradientTransform="matrix(1 0 0 -1 174 207)">
	<stop  offset="0" style="stop-color:#000000;stop-opacity:0"/>
	<stop  offset="1" style="stop-color:#000000"/>
</linearGradient>
<path opacity="0.15" fill="url(#SVGID_1_)" enable-background="new    " d="M336,40c0,9.391-7.611,17-17,17H17
	C7.611,57,0,49.391,0,40V18C0,8.611,7.611,1,17,1h302c9.389,0,17,7.611,17,17V40z"/>
<g>
	
		<linearGradient id="SVGID_2_" gradientUnits="userSpaceOnUse" x1="-5.9995" y1="206.5" x2="-5.9995" y2="151.6991" gradientTransform="matrix(1 0 0 -1 174 207)">
		<stop  offset="0" style="stop-color:#FFFFFF"/>
		<stop  offset="0.4565" style="stop-color:#F6F6F6"/>
		<stop  offset="1" style="stop-color:#F1F1F1"/>
	</linearGradient>
	<path opacity="0.5" fill="url(#SVGID_2_)" enable-background="new    " d="M17,55.5C7.902,55.5,0.5,48.098,0.5,39V17
		C0.5,7.902,7.902,0.5,17,0.5h302c9.098,0,16.5,7.402,16.5,16.5v22c0,9.098-7.402,16.5-16.5,16.5H17z"/>
	<path fill="#FFFFFF" d="M319,1c8.822,0,16,7.178,16,16v22c0,8.822-7.178,16-16,16H17C8.178,55,1,47.822,1,39V17
		C1,8.178,8.178,1,17,1H319 M319,0H17C7.611,0,0,7.611,0,17v22c0,9.391,7.611,17,17,17h302c9.389,0,17-7.609,17-17V17
		C336,7.611,328.389,0,319,0L319,0z"/>
</g>
<linearGradient id="SVGID_3_" gradientUnits="userSpaceOnUse" x1="141.0146" y1="202.748" x2="141.0146" y2="166.6431" gradientTransform="matrix(1 0 0 -1 174 207)">
	<stop  offset="0" style="stop-color:#FFFFFF"/>
	<stop  offset="1" style="stop-color:#000000"/>
</linearGradient>
<path fill="url(#SVGID_3_)" d="M309.207,29.945c-0.385-0.504-0.175-0.92,0.464-0.92h10.685c0.644,0,0.852,0.416,0.467,0.92
	l-5.107,6.703c-0.388,0.502-1.015,0.502-1.4,0L309.207,29.945z"/>
<linearGradient id="SVGID_4_" gradientUnits="userSpaceOnUse" x1="141.0132" y1="202.0615" x2="141.0132" y2="168.1249" gradientTransform="matrix(1 0 0 -1 174 207)">
	<stop  offset="0" style="stop-color:#FFFFFF"/>
	<stop  offset="1" style="stop-color:#000000"/>
</linearGradient>
<path fill="url(#SVGID_4_)" d="M320.82,24.082c0.386,0.504,0.176,0.919-0.463,0.919h-10.686c-0.643,0-0.852-0.415-0.466-0.919
	l5.106-6.703c0.389-0.503,1.016-0.503,1.401,0L320.82,24.082z"/>
</svg>
