<?xml version="1.0" encoding="utf-8"?>
<!-- Generator: Adobe Illustrator 15.0.2, SVG Export Plug-In  -->
<!DOCTYPE svg PUBLIC "-//W3C//DTD SVG 1.1//EN" "http://www.w3.org/Graphics/SVG/1.1/DTD/svg11.dtd" [
	<!ENTITY ns_flows "http://ns.adobe.com/Flows/1.0/">
]>
<svg version="1.1"
	 xmlns="http://www.w3.org/2000/svg" xmlns:xlink="http://www.w3.org/1999/xlink" xmlns:a="http://ns.adobe.com/AdobeSVGViewerExtensions/3.0/"
	 x="0px" y="0px" width="300px" height="70px" viewBox="0 0 300 70" overflow="visible" enable-background="new 0 0 300 70"
	 xml:space="preserve">
<defs>
</defs>
<rect fill="none" width="300" height="70"/>
<path fill="#2E3192" d="M59.736,55l3.6-18l-11.707-0.372l-3.725,5.594l-1.852,0.001l2.012-7.615l-2.012-7.619h1.852l3.725,5.589
	L63.336,32.2l-3.6-19.2h3l9,19.2l0.707,0.049c3.113,0.056,6.208,0.176,10.092,0.438c1.502,0.102,3.598,1.128,3.601,1.921
	c0.003,0.74-2.319,1.8-3.601,1.889c-3.914,0.273-6.986,0.397-10.109,0.454L71.736,37l-9,18H59.736z"/>
<path fill="#2E3192" d="M138.234,33.994h3.498h11.527c-0.194-0.82-0.505-1.568-0.963-2.224c-0.797-1.143-1.846-1.925-3.146-2.347
	s-3.182-0.633-5.643-0.633h-13.271v5.203H138.234z"/>
<path fill="#2E3192" d="M177.83,33.994c-0.342-1.262-0.945-2.313-1.818-3.146c-1.436-1.371-3.594-2.057-6.477-2.057h-13.236v5.203
	H177.83z"/>
<rect x="118.238" y="28.791" fill="#2E3192" width="7.98" height="5.203"/>
<polygon fill="#2E3192" points="109.462,33.994 107.507,28.791 98.821,28.791 96.865,33.994 "/>
<path fill="#2E3192" d="M204.433,33.994c-0.472-0.801-1.025-1.536-1.683-2.188c-2.32-2.303-5.625-3.454-9.914-3.454
	c-4.184,0-7.447,1.172-9.791,3.516c-0.638,0.638-1.181,1.351-1.646,2.127H204.433z"/>
<rect x="232.795" y="28.791" fill="#2E3192" width="24.205" height="5.203"/>
<path fill="#2E3192" d="M216.823,33.994h3.498h11.527c-0.194-0.82-0.505-1.568-0.963-2.224c-0.797-1.143-1.846-1.925-3.146-2.347
	s-3.182-0.633-5.643-0.633h-13.271v5.203H216.823z"/>
<path fill="#2E3192" d="M229.201,45.492c-0.557-0.691-0.98-1.144-1.273-1.354c-0.434-0.316-1.125-0.634-2.072-0.95
	c1.184-0.27,2.115-0.609,2.796-1.02c1.067-0.645,1.905-1.485,2.515-2.522c0.604-1.025,0.905-2.243,0.912-3.651h-8.044
	c0.032,0.183,0.049,0.377,0.049,0.584c0,0.562-0.167,1.061-0.501,1.494s-0.765,0.703-1.292,0.809
	c-1.043,0.234-1.746,0.352-2.109,0.352h-3.357v-3.238h-7.998v18.566h7.998V44.102h0.703c0.727,0,1.377,0.199,1.951,0.598
	c0.422,0.305,0.902,0.967,1.441,1.986l4.257,7.875h8.997l-3.856-7.467C230.129,46.719,229.758,46.185,229.201,45.492z"/>
<rect x="240.916" y="35.994" fill="#2E3192" width="7.963" height="18.566"/>
<polygon fill="#2E3192" points="103.227,35.994 105.91,44.734 100.252,44.734 102.907,35.994 96.114,35.994 89.136,54.561 
	97.266,54.561 98.521,50.307 107.562,50.307 108.852,54.561 117.19,54.561 110.214,35.994 "/>
<path fill="#2E3192" d="M196.729,35.994c0.022,0.024,0.05,0.041,0.071,0.065c0.979,1.119,1.468,2.892,1.468,5.317
	c0,2.883-0.469,4.881-1.406,5.994s-2.262,1.67-3.973,1.67c-1.664,0-2.979-0.568-3.946-1.705s-1.45-3.006-1.45-5.607
	c0-2.625,0.486-4.506,1.459-5.643c0.029-0.035,0.066-0.058,0.098-0.092h-8.604c-0.608,1.659-0.916,3.557-0.916,5.699
	c0,3.012,0.592,5.52,1.775,7.523s2.728,3.469,4.632,4.395S190.246,55,193.152,55c2.859,0,5.247-0.536,7.163-1.608
	s3.381-2.572,4.395-4.5s1.521-4.397,1.521-7.409c0-2.057-0.287-3.885-0.857-5.488H196.729z"/>
<rect x="118.238" y="35.994" fill="#2E3192" width="7.98" height="18.566"/>
<path fill="#2E3192" d="M150.613,45.492c-0.557-0.691-0.98-1.144-1.273-1.354c-0.434-0.316-1.125-0.634-2.073-0.95
	c1.185-0.27,2.116-0.609,2.796-1.02c1.067-0.645,1.906-1.485,2.516-2.522c0.603-1.025,0.904-2.243,0.912-3.651h-8.045
	c0.033,0.183,0.049,0.377,0.049,0.584c0,0.562-0.166,1.061-0.5,1.494s-0.766,0.703-1.293,0.809
	c-1.043,0.234-1.746,0.352-2.109,0.352h-3.357v-3.238h-7.998v18.566h7.998V44.102h0.703c0.727,0,1.377,0.199,1.951,0.598
	c0.422,0.305,0.902,0.967,1.441,1.986l4.257,7.875h8.997l-3.855-7.467C151.541,46.719,151.169,46.185,150.613,45.492z"/>
<path fill="#2E3192" d="M170.264,35.994c0.092,0.292,0.15,0.601,0.15,0.936c0,0.832-0.311,1.515-0.932,2.048s-1.699,0.8-3.234,0.8
	h-1.951v-3.783h-7.998v18.566h7.998v-9.562h4.359c3.211,0,5.598-0.732,7.162-2.197s2.348-3.498,2.348-6.1
	c0-0.243-0.014-0.475-0.026-0.707H170.264z"/>
<path fill-opacity="0.35" d="M164.297,37.994h-7.998v-2h7.998V37.994z M149.15,31.424c1.301,0.422,2.35,1.204,3.146,2.347
	c0.049,0.07,0.078,0.152,0.124,0.224h0.839c-0.194-0.82-0.505-1.568-0.963-2.224c-0.797-1.143-1.846-1.925-3.146-2.347
	s-3.182-0.633-5.643-0.633h-13.271v2h13.271C145.969,30.791,147.85,31.002,149.15,31.424z M96.114,37.994h6.186l0.607-2h-6.042
	h-0.751l-6.979,18.566h0.752L96.114,37.994z M176.012,32.848c0.359,0.343,0.66,0.731,0.93,1.146h0.889
	c-0.342-1.262-0.945-2.313-1.818-3.146c-1.436-1.371-3.594-2.057-6.477-2.057h-13.236v2h13.236
	C172.418,30.791,174.576,31.477,176.012,32.848z M138.234,35.994h-7.998v2h7.998V35.994z M98.821,30.791h8.686l1.204,3.203h0.751
	l-1.955-5.203h-8.686l-1.956,5.203h0.752L98.821,30.791z M183.045,33.867c2.344-2.344,5.607-3.516,9.791-3.516
	c4.289,0,7.594,1.151,9.914,3.454c0.06,0.059,0.107,0.128,0.166,0.188h1.517c-0.472-0.801-1.025-1.536-1.683-2.188
	c-2.32-2.303-5.625-3.454-9.914-3.454c-4.184,0-7.447,1.172-9.791,3.516c-0.638,0.638-1.181,1.351-1.646,2.127h1.534
	C182.973,33.954,183.005,33.907,183.045,33.867z M227.739,31.424c1.301,0.422,2.35,1.204,3.146,2.347
	c0.049,0.07,0.078,0.152,0.124,0.224h0.839c-0.194-0.82-0.505-1.568-0.963-2.224c-0.797-1.143-1.846-1.925-3.146-2.347
	s-3.182-0.633-5.643-0.633h-13.271v2h13.271C224.558,30.791,226.438,31.002,227.739,31.424z M216.823,35.994h-7.998v2h7.998V35.994z
	 M231.849,35.994h-7.814c0.032,0.183,0.049,0.377,0.049,0.584c0,0.562-0.167,1.061-0.501,1.494s-0.765,0.703-1.292,0.809
	c-1.043,0.234-1.746,0.352-2.109,0.352h-3.357v2h3.357c0.363,0,1.066-0.117,2.109-0.352c0.527-0.105,0.958-0.375,1.292-0.809
	s0.501-0.932,0.501-1.494c0-0.207-0.017-0.401-0.049-0.584h7.802c0.156-0.618,0.238-1.284,0.242-2H231.849z M100.252,46.734h5.658
	l-0.613-2h-4.438L100.252,46.734z M180.445,37.994h7.521c0.239-0.773,0.563-1.415,0.985-1.908c0.029-0.035,0.066-0.058,0.098-0.092
	h-7.649h-0.954c-0.608,1.659-0.916,3.557-0.916,5.699c0,0.291,0.031,0.555,0.043,0.836C179.665,40.861,179.95,39.344,180.445,37.994
	z M192.889,49.041c-1.664,0-2.979-0.568-3.946-1.705c-0.839-0.985-1.312-2.524-1.423-4.61c-0.018,0.322-0.027,0.655-0.027,1.003
	c0,2.602,0.483,4.471,1.45,5.607s2.282,1.705,3.946,1.705c1.711,0,3.035-0.557,3.973-1.67s1.406-3.111,1.406-5.994
	c0-0.314-0.01-0.617-0.025-0.909c-0.107,2.301-0.566,3.937-1.381,4.903C195.924,48.484,194.6,49.041,192.889,49.041z M153.26,35.994
	h-7.814c0.033,0.183,0.049,0.377,0.049,0.584c0,0.562-0.166,1.061-0.5,1.494s-0.766,0.703-1.293,0.809
	c-1.043,0.234-1.746,0.352-2.109,0.352h-3.357v2h3.357c0.363,0,1.066-0.117,2.109-0.352c0.527-0.105,0.959-0.375,1.293-0.809
	s0.5-0.932,0.5-1.494c0-0.207-0.016-0.401-0.049-0.584h7.803c0.156-0.618,0.238-1.284,0.242-2H153.26z M150.613,45.492
	c-0.393-0.488-0.716-0.85-0.977-1.099c-0.629,0.31-1.412,0.576-2.37,0.794c0.948,0.316,1.64,0.634,2.073,0.95
	c0.293,0.211,0.717,0.663,1.273,1.354c0.556,0.692,0.928,1.227,1.115,1.602l2.823,5.467h1.032l-3.855-7.467
	C151.541,46.719,151.169,46.185,150.613,45.492z M177.83,35.994h-7.566c0.092,0.292,0.15,0.601,0.15,0.936
	c0,0.832-0.311,1.515-0.932,2.048s-1.699,0.8-3.234,0.8h-1.951v2h1.951c1.535,0,2.613-0.267,3.234-0.8s0.932-1.216,0.932-2.048
	c0-0.334-0.059-0.643-0.15-0.936h7.822c0.047-0.416,0.08-0.843,0.08-1.293c0-0.243-0.014-0.475-0.026-0.707H177.83z M47.904,28.99
	l3.725,5.589L63.336,34.2l-0.373-1.988l-11.334,0.367l-3.725-5.589h-1.852l0.527,2H47.904z M204.433,35.994h-7.704
	c0.022,0.024,0.05,0.041,0.071,0.065c0.444,0.508,0.782,1.158,1.024,1.935h7.549c0.465,1.309,0.732,2.775,0.818,4.386
	c0.011-0.302,0.039-0.584,0.039-0.897c0-2.057-0.287-3.885-0.857-5.488H204.433z M240.916,37.994h7.963v-2h-7.963V37.994z
	 M232.795,28.791v2H257v-2H232.795z M229.201,45.492c-0.393-0.488-0.715-0.85-0.977-1.099c-0.628,0.31-1.412,0.576-2.369,0.794
	c0.947,0.316,1.639,0.634,2.072,0.95c0.293,0.211,0.717,0.663,1.273,1.354c0.557,0.692,0.928,1.227,1.115,1.602l2.823,5.467h1.033
	l-3.856-7.467C230.129,46.719,229.758,46.185,229.201,45.492z M48.064,36.609l-0.265-1l-1.747,6.615l0.528,0L48.064,36.609z
	 M62.938,38.987L59.736,55h0.399l3.2-16L62.938,38.987z M118.238,30.791h7.98v-2h-7.98V30.791z M82.535,32.688
	c-3.884-0.263-6.979-0.383-10.092-0.438L71.736,32.2l-9-19.2h-3l0.375,2h2.625l9,19.2l0.707,0.049
	c3.113,0.056,6.208,0.176,10.092,0.438c0.871,0.059,1.934,0.433,2.68,0.888c0.536-0.318,0.922-0.668,0.921-0.967
	C86.133,33.815,84.037,32.789,82.535,32.688z M109.462,35.994h-6.235l0.615,2h6.372l6.226,16.566h0.751l-6.977-18.566H109.462z
	 M118.238,37.994h7.98v-2h-7.98V37.994z"/>
<path fill="#FFFFFF" fill-opacity="0.8" d="M152.578,39.646c0.455-0.774,0.738-1.659,0.853-2.651h0.06
	c-0.008,1.408-0.31,2.626-0.912,3.651c-0.609,1.037-1.448,1.878-2.516,2.522c-0.371,0.224-0.824,0.425-1.346,0.606
	c-0.389-0.196-0.864-0.392-1.45-0.587c1.185-0.27,2.116-0.609,2.796-1.02C151.13,41.523,151.969,40.683,152.578,39.646z
	 M63.336,32.2L59.924,14h-0.188l3.412,18.206L63.336,32.2z M141.732,34.994h11.527c-0.082-0.35-0.198-0.678-0.326-1h-11.201h-3.498
	h-7.998v1h7.998H141.732z M177.479,33.994h-21.181v1h21.531C177.735,34.643,177.615,34.312,177.479,33.994z M109.086,33.994H97.242
	l-0.377,1h12.597L109.086,33.994z M105.604,44.734h0.307l-2.376-7.74h-0.308L105.604,44.734z M100.556,44.734l2.352-7.74h-0.304
	l-2.352,7.74H100.556z M145.449,37.044c0.004-0.017,0.01-0.033,0.013-0.05h-0.017C145.448,37.01,145.447,37.028,145.449,37.044z
	 M220.321,34.994h11.527c-0.083-0.35-0.198-0.678-0.326-1h-11.201h-3.498h-7.998v1h7.998H220.321z M196.8,37.06
	c0.916,1.048,1.397,2.676,1.456,4.87c0.004-0.184,0.012-0.361,0.012-0.553c0-1.835-0.281-3.295-0.842-4.383h-0.697
	C196.751,37.019,196.778,37.035,196.8,37.06z M228.651,42.168c-0.681,0.41-1.612,0.75-2.796,1.02
	c0.586,0.195,1.061,0.391,1.45,0.587c0.521-0.182,0.975-0.383,1.346-0.606c1.067-0.645,1.905-1.485,2.515-2.522
	c0.604-1.025,0.905-2.243,0.912-3.651h-0.06c-0.114,0.993-0.397,1.877-0.853,2.651C230.557,40.683,229.719,41.523,228.651,42.168z
	 M187.504,42.229c0.061-2.361,0.539-4.081,1.447-5.143c0.029-0.035,0.066-0.058,0.098-0.092h-0.689
	c-0.576,1.139-0.867,2.714-0.867,4.734C187.492,41.901,187.5,42.062,187.504,42.229z M170.366,37.417
	c0.022-0.137,0.038-0.276,0.041-0.422h-0.144C170.307,37.131,170.34,37.272,170.366,37.417z M203.762,33.994h-21.683
	c-0.241,0.321-0.472,0.652-0.68,1h23.033C204.228,34.646,204,34.316,203.762,33.994z M224.038,37.043
	c0.003-0.017,0.009-0.032,0.013-0.049h-0.017C224.037,37.009,224.035,37.027,224.038,37.043z M204.71,48.892
	c-1.014,1.928-2.479,3.428-4.395,4.5S196.012,55,193.152,55c-2.906,0-5.312-0.463-7.216-1.389s-3.448-2.391-4.632-4.395
	c-1.127-1.907-1.699-4.285-1.754-7.105c-0.006,0.195-0.021,0.382-0.021,0.582c0,3.012,0.592,5.52,1.775,7.523
	s2.728,3.469,4.632,4.395S190.246,56,193.152,56c2.859,0,5.247-0.536,7.163-1.608s3.381-2.572,4.395-4.5s1.521-4.397,1.521-7.409
	c0-0.189-0.016-0.366-0.02-0.551C206.16,44.733,205.671,47.064,204.71,48.892z M208.825,55.561h7.998v-1h-7.998V55.561z
	 M175.818,42.801c-1.564,1.465-3.951,2.197-7.162,2.197h-4.359v1h4.359c3.211,0,5.598-0.732,7.162-2.197s2.348-3.498,2.348-6.1
	c0-0.176-0.011-0.344-0.02-0.514C178.053,39.554,177.283,41.43,175.818,42.801z M156.299,55.561h7.998v-1h-7.998V55.561z
	 M232.795,34.994H257v-1h-24.205V34.994z M240.916,55.561h7.963v-1h-7.963V55.561z M225.176,54.561l-4.257-7.875
	c-0.539-1.02-1.02-1.682-1.441-1.986c-0.574-0.398-1.225-0.598-1.951-0.598h-0.703v1h0.703c0.727,0,1.377,0.199,1.951,0.598
	c0.422,0.305,0.902,0.967,1.441,1.986l4.257,7.875h8.997l-0.517-1H225.176z M108.852,54.561l-1.289-4.254h-9.041l-1.256,4.254
	h-7.754l-0.376,1h8.13l1.256-4.254h9.041l1.289,4.254h8.339l-0.376-1H108.852z M48.064,34.609l-1.748-6.619h-0.264l1.879,7.119
	L48.064,34.609z M82.535,36.498c-3.914,0.273-6.986,0.397-10.109,0.454L71.736,37l-9,18h-2.801l-0.199,1h3l9-18l0.689-0.048
	c3.123-0.057,6.195-0.181,10.109-0.454c1.281-0.089,3.604-1.149,3.601-1.889c-0.001-0.167-0.11-0.346-0.272-0.523
	C85.227,35.737,83.559,36.427,82.535,36.498z M63.336,37l-11.707-0.372l-3.725,5.594l-1.588,0.001l-0.264,1l1.852-0.001l3.725-5.594
	l11.508,0.365L63.336,37z M118.238,34.994h7.98v-1h-7.98V34.994z M130.236,55.561h7.998v-1h-7.998V55.561z M146.587,54.561
	l-4.257-7.875c-0.539-1.02-1.02-1.682-1.441-1.986c-0.574-0.398-1.225-0.598-1.951-0.598h-0.703v1h0.703
	c0.727,0,1.377,0.199,1.951,0.598c0.422,0.305,0.902,0.967,1.441,1.986l4.257,7.875h8.997l-0.516-1H146.587z M118.238,55.561h7.98
	v-1h-7.98V55.561z"/>
</svg>
