<?xml version="1.0" encoding="utf-8"?>
<!-- Generator: Adobe Illustrator 15.0.2, SVG Export Plug-In . SVG Version: 6.00 Build 0)  -->
<!DOCTYPE svg PUBLIC "-//W3C//DTD SVG 1.1//EN" "http://www.w3.org/Graphics/SVG/1.1/DTD/svg11.dtd">
<svg version="1.1" id="Layer_1" xmlns="http://www.w3.org/2000/svg" xmlns:xlink="http://www.w3.org/1999/xlink" x="0px" y="0px"
	 width="50px" height="50px" viewBox="0 0 50 50" enable-background="new 0 0 50 50" xml:space="preserve">
<path fill-opacity="0.15" d="M12,16.286c0-0.256,0.098-0.513,0.293-0.707l3.283-3.286C15.764,12.104,16.018,12,16.284,12
	c0.266,0,0.521,0.104,0.707,0.293l14.361,14.363V17.26c0-0.552,0.448-1,1-1H37c0.552,0,1,0.448,1,1V37c0,0.553-0.448,1-1,1H17.26
	c-0.553,0-1-0.447-1-1v-4.646c0-0.553,0.447-1,1-1h9.396l-14.363-14.36C12.098,16.798,12,16.542,12,16.286z"/>
<polygon fill-opacity="0.3" points="37,17.26 32.353,17.26 32.353,29.07 16.284,13 13,16.286 29.072,32.354 17.26,32.354 17.26,37 
	32.353,37 36.998,37 37,37 "/>
<rect fill="none" width="50" height="50"/>
<polygon fill="#FFFFFF" points="37,17.26 32.353,17.26 32.353,29.07 16.284,13 13,16.286 29.072,32.354 17.26,32.354 17.26,37 
	32.353,37 36.998,37 37,37 "/>
</svg>
