<?xml version="1.0" encoding="utf-8"?>
<!-- Generator: Adobe Illustrator 15.0.2, SVG Export Plug-In  -->
<!DOCTYPE svg PUBLIC "-//W3C//DTD SVG 1.1//EN" "http://www.w3.org/Graphics/SVG/1.1/DTD/svg11.dtd" [
	<!ENTITY ns_flows "http://ns.adobe.com/Flows/1.0/">
]>
<svg version="1.1"
	 xmlns="http://www.w3.org/2000/svg" xmlns:xlink="http://www.w3.org/1999/xlink" xmlns:a="http://ns.adobe.com/AdobeSVGViewerExtensions/3.0/"
	 x="0px" y="0px" width="70px" height="70px" viewBox="0 0 70 70" overflow="visible" enable-background="new 0 0 70 70"
	 xml:space="preserve">
<defs>
</defs>
<rect opacity="0.1" fill="none" width="70" height="70"/>
<g>
	<path opacity="0.8" fill="#FFFFFF" d="M31,54h2.5L41,39l0.576-0.04c2.602-0.047,5.161-0.151,8.424-0.378
		c1.067-0.074,3.003-0.958,3-1.574c-0.003-0.662-1.749-1.518-3-1.602c-3.236-0.219-5.815-0.318-8.41-0.365L41,35l-7.5-16H31l3,16
		l-9.756,0.316l-3.104-4.658h-1.543l1.676,6.35l-1.676,6.346l1.543-0.001l3.104-4.662L34,39L31,54z"/>
</g>
<g>
	<path fill="#2E3192" d="M31,52.5h2.5l7.5-15l0.576-0.04c2.602-0.047,5.161-0.151,8.424-0.378c1.067-0.074,3.003-0.958,3-1.574
		c-0.003-0.662-1.749-1.518-3-1.602c-3.236-0.219-5.815-0.318-8.41-0.365L41,33.5l-7.5-16H31l3,16l-9.756,0.316l-3.104-4.658h-1.543
		l1.676,6.35l-1.676,6.346l1.543-0.001l3.104-4.662L34,37.5L31,52.5z"/>
</g>
</svg>
