<?xml version="1.0" encoding="utf-8"?>
<!-- Generator: Adobe Illustrator 15.0.2, SVG Export Plug-In . SVG Version: 6.00 Build 0)  -->
<!DOCTYPE svg PUBLIC "-//W3C//DTD SVG 1.1//EN" "http://www.w3.org/Graphics/SVG/1.1/DTD/svg11.dtd">
<svg version="1.1" id="Layer_1" xmlns="http://www.w3.org/2000/svg" xmlns:xlink="http://www.w3.org/1999/xlink" x="0px" y="0px"
	 width="96px" height="96px" viewBox="0 0 96 96" enable-background="new 0 0 96 96" xml:space="preserve">
<g>
	<g>
		<path fill-opacity="0.4" d="M88,49c0,29.635-10.363,40-40,40C18.365,89,8,78.631,8,49C8,19.366,18.365,9,48,9
			C77.637,9,88,19.366,88,49z"/>
		
			<linearGradient id="SVGID_1_" gradientUnits="userSpaceOnUse" x1="165.5" y1="-12.5449" x2="165.5" y2="-93.2398" gradientTransform="matrix(1 0 0 -1 -117.5 -4)">
			<stop  offset="0" style="stop-color:#6063CE"/>
			<stop  offset="1" style="stop-color:#1B1464"/>
		</linearGradient>
		<path fill="url(#SVGID_1_)" d="M88,48c0,29.631-10.363,40-40,40C18.365,88,8,77.631,8,48C8,18.366,18.365,8,48,8
			C77.637,8,88,18.366,88,48z"/>
		<rect fill="none" width="96" height="96"/>
		
			<linearGradient id="SVGID_2_" gradientUnits="userSpaceOnUse" x1="165.4766" y1="-12.2529" x2="165.4766" y2="-91.4981" gradientTransform="matrix(1 0 0 -1 -117.5 -4)">
			<stop  offset="0" style="stop-color:#FFFFFF"/>
			<stop  offset="1" style="stop-color:#FFFFFF;stop-opacity:0"/>
		</linearGradient>
		<path fill="url(#SVGID_2_)" fill-opacity="0.25" d="M47.978,8C18.358,8,8,18.366,8,48c0,29.631,10.358,40,39.978,40
			c29.618,0,39.977-10.365,39.977-40C87.953,18.366,77.596,8,47.978,8z M47.978,87C18.836,87,9,77.158,9,48
			C9,18.842,18.836,9,47.978,9c29.141,0,38.978,9.842,38.978,39C86.954,77.158,77.116,87,47.978,87z"/>
	</g>
	<path opacity="0.05" d="M69.46,44.83c-4.162-0.279-7.696-0.438-11.404-0.512L47.942,22.747c-0.437-0.937-1.384-1.541-2.415-1.541
		h-3.6c-0.793,0-1.54,0.35-2.051,0.961c-0.512,0.616-0.721,1.417-0.57,2.195l3.746,19.98l-9.457,0.304l-3.646-5.474
		c-0.496-0.741-1.325-1.183-2.217-1.183h-2.222c-0.822,0-1.611,0.386-2.107,1.033c-0.504,0.65-0.68,1.515-0.471,2.315l2.232,8.46
		l-2.232,8.455c-0.211,0.797-0.035,1.658,0.465,2.303c0.5,0.652,1.29,1.041,2.113,1.041h2.222c0.893,0,1.722-0.443,2.219-1.188
		l3.647-5.475l9.415,0.297l-3.702,18.504c-0.157,0.785,0.045,1.594,0.557,2.221c0.51,0.617,1.26,0.971,2.059,0.971h3.6
		c1.014,0,1.927-0.564,2.385-1.475L58.009,55.26c3.812-0.084,7.361-0.248,11.458-0.535c1.504-0.107,6.813-1.551,6.8-4.938
		C76.252,46.644,71.752,44.983,69.46,44.83z"/>
	<path opacity="0.07" d="M69.425,45.362c-4.248-0.285-7.876-0.447-11.712-0.518L47.459,22.972c-0.349-0.749-1.106-1.232-1.932-1.232
		h-3.6c-0.635,0-1.232,0.28-1.641,0.769c-0.41,0.493-0.576,1.134-0.456,1.756l3.86,20.59l-10.375,0.334l-3.811-5.72
		c-0.396-0.593-1.059-0.947-1.772-0.947h-2.222c-0.658,0-1.289,0.31-1.687,0.827c-0.403,0.52-0.544,1.211-0.376,1.852l2.269,8.597
		l-2.269,8.59c-0.168,0.639-0.028,1.328,0.371,1.844c0.4,0.521,1.033,0.832,1.691,0.832h2.222c0.714,0,1.377-0.355,1.774-0.949
		l3.811-5.723l10.342,0.326l-3.824,19.123c-0.127,0.629,0.035,1.273,0.445,1.777c0.406,0.492,1.006,0.775,1.646,0.775h3.6
		c0.811,0,1.541-0.451,1.908-1.18l10.239-20.482c3.925-0.08,7.564-0.248,11.754-0.541c1.339-0.094,6.317-1.436,6.305-4.402
		C75.721,47.122,71.682,45.514,69.425,45.362z"/>
	<path opacity="0.1" d="M69.389,45.895c-4.361-0.294-8.08-0.456-12.018-0.523L46.976,23.197c-0.261-0.562-0.83-0.924-1.448-0.924
		h-3.6c-0.476,0-0.925,0.209-1.23,0.576c-0.308,0.37-0.433,0.851-0.342,1.317l3.974,21.202l-11.292,0.364l-3.975-5.966
		c-0.297-0.445-0.794-0.71-1.329-0.71h-2.222c-0.493,0-0.967,0.233-1.266,0.621c-0.303,0.39-0.408,0.907-0.281,1.388l2.304,8.733
		l-2.304,8.727c-0.127,0.479-0.021,0.996,0.279,1.381c0.3,0.393,0.773,0.625,1.268,0.625h2.222c0.535,0,1.033-0.266,1.331-0.713
		l3.975-5.969l11.268,0.355l-3.948,19.742c-0.095,0.471,0.026,0.955,0.333,1.332c0.307,0.369,0.756,0.582,1.236,0.582h3.6
		c0.608,0,1.156-0.34,1.431-0.885l10.385-20.771c4.035-0.076,7.76-0.246,12.049-0.545c1.404-0.1,5.818-1.449,5.809-3.869
		C75.189,47.487,71.41,46.03,69.389,45.895z"/>
	<path opacity="0.15" d="M69.353,46.427c-4.375-0.295-8.117-0.457-12.104-0.525l-0.224-0.016L46.493,23.422
		c-0.175-0.374-0.554-0.616-0.966-0.616h-3.6c-0.318,0-0.617,0.141-0.821,0.384c-0.204,0.246-0.288,0.567-0.228,0.878l4.09,21.812
		l-12.211,0.394l-4.139-6.212c-0.198-0.297-0.529-0.474-0.886-0.474h-2.222c-0.328,0-0.645,0.155-0.844,0.415
		c-0.201,0.259-0.271,0.605-0.188,0.925l2.34,8.87l-2.34,8.861c-0.084,0.318-0.014,0.664,0.186,0.922
		c0.201,0.262,0.518,0.416,0.846,0.416h2.222c0.357,0,0.689-0.178,0.888-0.475l4.139-6.217l12.193,0.385l-4.072,20.361
		c-0.062,0.312,0.018,0.635,0.223,0.887c0.203,0.246,0.505,0.389,0.824,0.389h3.6c0.404,0,0.771-0.225,0.954-0.59l10.524-21.051
		l0.166-0.012c4.084-0.076,7.841-0.244,12.183-0.549c1.368-0.096,5.32-1.389,5.312-3.334C74.658,47.925,71.221,46.552,69.353,46.427
		z"/>
	<path opacity="0.15" d="M69.316,46.959c-4.357-0.293-8.1-0.456-12.106-0.524l-0.536-0.038L46.01,23.647
		c-0.088-0.188-0.276-0.308-0.482-0.308h-3.6c-0.159,0-0.309,0.071-0.411,0.193c-0.103,0.122-0.144,0.283-0.113,0.438l4.203,22.423
		l-13.128,0.424l-4.301-6.457c-0.101-0.148-0.268-0.237-0.444-0.237h-2.222c-0.166,0-0.322,0.077-0.422,0.208
		c-0.103,0.13-0.136,0.301-0.094,0.461l2.377,9.006l-2.377,8.996c-0.042,0.16-0.009,0.332,0.094,0.461
		c0.1,0.133,0.256,0.209,0.422,0.209h2.222c0.179,0,0.345-0.09,0.444-0.236l4.303-6.465L45.6,53.178l-4.195,20.979
		c-0.031,0.156,0.01,0.318,0.11,0.443c0.103,0.123,0.252,0.195,0.413,0.195h3.6c0.201,0,0.385-0.115,0.477-0.295l10.661-21.324
		l0.497-0.033c4.075-0.076,7.825-0.244,12.155-0.547c1.438-0.1,4.822-1.375,4.816-2.801C74.127,48.408,71.214,47.087,69.316,46.959z
		"/>
	<linearGradient id="SVGID_3_" gradientUnits="userSpaceOnUse" x1="49.5557" y1="22.8062" x2="49.5557" y2="73.1938">
		<stop  offset="0" style="stop-color:#FAFCEF"/>
		<stop  offset="0.3232" style="stop-color:#FAFCEF"/>
		<stop  offset="1" style="stop-color:#D0CBC5"/>
	</linearGradient>
	<path fill="url(#SVGID_3_)" d="M41.928,73.193h3.6l10.797-21.596l0.828-0.055c3.745-0.07,7.431-0.217,12.129-0.547
		c1.535-0.105,4.323-1.379,4.318-2.264c-0.004-0.954-2.519-2.187-4.318-2.308c-4.66-0.314-8.373-0.46-12.108-0.525l-0.849-0.061
		L45.527,22.806h-3.6l4.318,23.033L32.2,46.294l-4.467-6.705h-2.222l2.412,9.143l-2.412,9.133h2.222l4.467-6.711l14.046,0.443
		L41.928,73.193z"/>
</g>
</svg>
