<?xml version="1.0" encoding="utf-8"?>
<!-- Generator: Adobe Illustrator 15.0.2, SVG Export Plug-In  -->
<!DOCTYPE svg PUBLIC "-//W3C//DTD SVG 1.1//EN" "http://www.w3.org/Graphics/SVG/1.1/DTD/svg11.dtd" [
	<!ENTITY ns_flows "http://ns.adobe.com/Flows/1.0/">
]>
<svg version="1.1"
	 xmlns="http://www.w3.org/2000/svg" xmlns:xlink="http://www.w3.org/1999/xlink" xmlns:a="http://ns.adobe.com/AdobeSVGViewerExtensions/3.0/"
	 x="0px" y="0px" width="50px" height="50px" viewBox="0 0 50 50" overflow="visible" enable-background="new 0 0 50 50"
	 xml:space="preserve">
<defs>
</defs>
<rect fill="none" width="50" height="50"/>
<path fill="#DEF1FF" d="M25,10c-11.115,0-15,3.887-15,15c0,11.114,3.885,15,15,15c11.111,0,15-3.886,15-15
	C40,13.887,36.111,10,25,10z"/>
<path fill="#2E3192" d="M32,24.185C32,20.216,28.784,17,24.814,17c-3.967,0-7.185,3.216-7.185,7.185c0,2.032,0.847,3.862,2.203,5.17
	l4.982,4.982l4.98-4.98C31.152,28.051,32,26.219,32,24.185z M24.814,20.593c1.982,0,3.594,1.612,3.594,3.592
	c0,1.981-1.611,3.592-3.594,3.592c-1.98,0-3.592-1.611-3.592-3.592C21.222,22.205,22.834,20.593,24.814,20.593z"/>
</svg>
