<?xml version="1.0" encoding="utf-8"?>
<!-- Generator: Adobe Illustrator 15.0.2, SVG Export Plug-In . SVG Version: 6.00 Build 0)  -->
<!DOCTYPE svg PUBLIC "-//W3C//DTD SVG 1.1//EN" "http://www.w3.org/Graphics/SVG/1.1/DTD/svg11.dtd">
<svg version="1.1" id="Layer_1" xmlns="http://www.w3.org/2000/svg" xmlns:xlink="http://www.w3.org/1999/xlink" x="0px" y="0px"
	 width="50px" height="50px" viewBox="0 0 50 50" enable-background="new 0 0 50 50" xml:space="preserve">
<g>
	<path fill-opacity="0.15" d="M15.686,38.6c-0.255,0-0.512-0.098-0.707-0.293l-3.286-3.283c-0.188-0.188-0.293-0.441-0.293-0.707
		s0.105-0.521,0.293-0.707l14.364-14.362H16.66c-0.553,0-1-0.448-1-1V13.6c0-0.552,0.447-1,1-1H36.4c0.553,0,1,0.448,1,1v19.74
		c0,0.553-0.447,1-1,1h-4.646c-0.553,0-1-0.447-1-1v-9.396L16.393,38.307C16.198,38.502,15.941,38.6,15.686,38.6z"/>
	<polygon fill-opacity="0.3" points="16.66,12.6 16.66,17.247 28.471,17.247 12.4,33.316 15.686,36.6 31.754,20.527 31.754,32.34 
		36.4,32.34 36.4,17.247 36.4,12.601 36.4,12.6 	"/>
	<rect fill="none" width="50" height="50"/>
	<polygon fill="#FFFFFF" points="16.66,13.6 16.66,18.247 28.471,18.247 12.4,34.316 15.686,37.6 31.754,21.527 31.754,33.34 
		36.4,33.34 36.4,18.247 36.4,13.601 36.4,13.6 	"/>
</g>
</svg>
