<?xml version="1.0" encoding="utf-8"?>
<!-- Generator: Adobe Illustrator 15.0.2, SVG Export Plug-In  -->
<!DOCTYPE svg PUBLIC "-//W3C//DTD SVG 1.1//EN" "http://www.w3.org/Graphics/SVG/1.1/DTD/svg11.dtd" [
	<!ENTITY ns_flows "http://ns.adobe.com/Flows/1.0/">
]>
<svg version="1.1"
	 xmlns="http://www.w3.org/2000/svg" xmlns:xlink="http://www.w3.org/1999/xlink" xmlns:a="http://ns.adobe.com/AdobeSVGViewerExtensions/3.0/"
	 x="0px" y="0px" width="50px" height="50px" viewBox="0 0 50 50" overflow="visible" enable-background="new 0 0 50 50"
	 xml:space="preserve">
<defs>
</defs>
<path fill="#DEF1FF" d="M25,10c-11.115,0-15,3.887-15,15c0,11.114,3.885,15,15,15c11.112,0,15-3.886,15-15
	C40,13.887,36.112,10,25,10z"/>
<g>
	<path fill="#2E3192" d="M22.505,36.5h1.644l4.929-9.857l0.378-0.026c1.71-0.03,3.392-0.099,5.536-0.248
		c0.701-0.049,1.974-0.63,1.972-1.034c-0.002-0.436-1.149-0.998-1.972-1.053c-2.127-0.144-3.821-0.209-5.527-0.24l-0.387-0.026
		L24.148,13.5h-1.644l1.972,10.515l-6.411,0.208l-2.039-3.062h-1.014l1.101,4.173l-1.101,4.17l1.014-0.001l2.039-3.063l6.411,0.203
		L22.505,36.5z"/>
</g>
<rect fill="none" width="50" height="50"/>
</svg>
