<?xml version="1.0" encoding="utf-8"?>
<!-- Generator: Adobe Illustrator 15.0.2, SVG Export Plug-In  -->
<!DOCTYPE svg PUBLIC "-//W3C//DTD SVG 1.1//EN" "http://www.w3.org/Graphics/SVG/1.1/DTD/svg11.dtd" [
	<!ENTITY ns_flows "http://ns.adobe.com/Flows/1.0/">
]>
<svg version="1.1"
	 xmlns="http://www.w3.org/2000/svg" xmlns:xlink="http://www.w3.org/1999/xlink" xmlns:a="http://ns.adobe.com/AdobeSVGViewerExtensions/3.0/"
	 x="0px" y="0px" width="44px" height="44px" viewBox="0 0 44 44" overflow="visible" enable-background="new 0 0 44 44"
	 xml:space="preserve">
<defs>
</defs>
<path opacity="0.05" d="M22,40C9.765,40,5,35.234,5,23S9.765,6,22,6c12.233,0,17,4.766,17,17S34.233,40,22,40z"/>
<path opacity="0.1" d="M22,39C10.336,39,6,34.664,6,23S10.336,7,22,7c11.662,0,15.999,4.336,15.999,16S33.662,39,22,39z"/>
<path opacity="0.5" d="M37,23c0,11.113-3.889,15-15,15C10.885,38,7,34.113,7,23S10.885,8,22,8C33.111,8,37,11.887,37,23z"/>
<path fill="#1080DD" d="M37,22c0,11.114-3.889,14.999-15,14.999C10.885,36.999,7,33.114,7,22C7,10.887,10.885,7,22,7
	C33.111,7,37,10.887,37,22z"/>
<linearGradient id="SVGID_1_" gradientUnits="userSpaceOnUse" x1="22" y1="36.999" x2="22" y2="8">
	<stop  offset="0.0816" style="stop-color:#FFFFFF;stop-opacity:0.7"/>
	<stop  offset="0.3178" style="stop-color:#C1C1C1;stop-opacity:0.6743"/>
	<stop  offset="0.861" style="stop-color:#282828;stop-opacity:0.6151"/>
	<stop  offset="1" style="stop-color:#000000;stop-opacity:0.6"/>
</linearGradient>
<path opacity="0.2" fill="url(#SVGID_1_)" d="M37,22.5c0,10.744-3.889,14.499-15,14.499c-11.115,0-15-3.755-15-14.499
	C7,11.758,10.885,8,22,8C33.111,8,37,11.758,37,22.5z"/>
<rect fill="none" width="44" height="44"/>
</svg>
