<?xml version="1.0" encoding="utf-8"?>
<!-- Generator: Adobe Illustrator 15.0.2, SVG Export Plug-In  -->
<!DOCTYPE svg PUBLIC "-//W3C//DTD SVG 1.1//EN" "http://www.w3.org/Graphics/SVG/1.1/DTD/svg11.dtd" [
	<!ENTITY ns_flows "http://ns.adobe.com/Flows/1.0/">
]>
<svg version="1.1"
	 xmlns="http://www.w3.org/2000/svg" xmlns:xlink="http://www.w3.org/1999/xlink" xmlns:a="http://ns.adobe.com/AdobeSVGViewerExtensions/3.0/"
	 x="0px" y="0px" width="66px" height="44px" viewBox="0 0 66 44" overflow="visible" enable-background="new 0 0 66 44"
	 xml:space="preserve">
<defs>
</defs>
<path opacity="0.9" fill="#999999" d="M45.039,7.714c10.555,0,14.248,3.703,14.248,14.286c0,10.585-3.693,14.286-14.248,14.286
	H20.961C10.406,36.286,6.713,32.585,6.713,22c0-10.583,3.693-14.286,14.248-14.286H45.039"/>
<linearGradient id="SVGID_1_" gradientUnits="userSpaceOnUse" x1="33" y1="37" x2="33" y2="7">
	<stop  offset="0" style="stop-color:#FFFFFF"/>
	<stop  offset="1" style="stop-color:#FFFFFF;stop-opacity:0"/>
</linearGradient>
<path opacity="0.3" fill="url(#SVGID_1_)" d="M45.039,7.714c10.555,0,14.248,3.703,14.248,14.286
	c0,10.585-3.693,14.286-14.248,14.286H20.961C10.406,36.286,6.713,32.585,6.713,22c0-10.583,3.693-14.286,14.248-14.286H45.039
	 M45.039,7H20.961C10.055,7,6,11.065,6,22c0,10.936,4.055,15,14.961,15h24.078C55.946,37,60,32.936,60,22
	C60,11.065,55.946,7,45.039,7L45.039,7z"/>
<linearGradient id="SVGID_2_" gradientUnits="userSpaceOnUse" x1="33" y1="36.5244" x2="33" y2="7.7099">
	<stop  offset="0" style="stop-color:#CCCCCC"/>
	<stop  offset="0.0294" style="stop-color:#C5C5C5"/>
	<stop  offset="0.2693" style="stop-color:#919191"/>
	<stop  offset="0.4943" style="stop-color:#696969"/>
	<stop  offset="0.6979" style="stop-color:#4B4B4B"/>
	<stop  offset="0.8732" style="stop-color:#393939"/>
	<stop  offset="1" style="stop-color:#333333"/>
</linearGradient>
<path opacity="0.17" fill="url(#SVGID_2_)" d="M45.039,7.714c10.555,0,14.248,3.703,14.248,14.286
	c0,10.585-3.693,14.286-14.248,14.286H20.961C10.406,36.286,6.713,32.585,6.713,22c0-10.583,3.693-14.286,14.248-14.286H45.039"/>
<linearGradient id="SVGID_3_" gradientUnits="userSpaceOnUse" x1="33" y1="7.7139" x2="33" y2="36.5253">
	<stop  offset="0" style="stop-color:#000000"/>
	<stop  offset="1" style="stop-color:#000000;stop-opacity:0"/>
</linearGradient>
<path opacity="0.03" fill="url(#SVGID_3_)" d="M45.039,7.714H20.961C10.406,7.714,6.713,11.417,6.713,22
	c0,10.585,3.693,14.286,14.248,14.286h24.078c10.555,0,14.248-3.701,14.248-14.286C59.287,11.417,55.594,7.714,45.039,7.714z
	 M45.039,34.144H20.961C11.68,34.144,8.85,31.306,8.85,22S11.68,9.857,20.961,9.857h24.078c9.282,0,12.111,2.837,12.111,12.143
	S54.321,34.144,45.039,34.144z"/>
<linearGradient id="SVGID_4_" gradientUnits="userSpaceOnUse" x1="33" y1="7.9521" x2="33" y2="36.0843">
	<stop  offset="0" style="stop-color:#000000"/>
	<stop  offset="1" style="stop-color:#000000;stop-opacity:0"/>
</linearGradient>
<path opacity="0.05" fill="url(#SVGID_4_)" d="M45.039,7.714H20.961C10.406,7.714,6.713,11.417,6.713,22
	c0,10.585,3.693,14.286,14.248,14.286h24.078c10.555,0,14.248-3.701,14.248-14.286C59.287,11.417,55.594,7.714,45.039,7.714z
	 M45.039,34.857H20.961c-9.707,0-12.824-3.124-12.824-12.857c0-9.732,3.117-12.856,12.824-12.856h24.078
	c9.708,0,12.823,3.124,12.823,12.856C57.862,31.733,54.747,34.857,45.039,34.857z"/>
<linearGradient id="SVGID_5_" gradientUnits="userSpaceOnUse" x1="33" y1="7.7139" x2="33" y2="36.2861">
	<stop  offset="0" style="stop-color:#000000"/>
	<stop  offset="1" style="stop-color:#000000;stop-opacity:0"/>
</linearGradient>
<path opacity="0.1" fill="url(#SVGID_5_)" d="M45.039,7.714H20.961C10.406,7.714,6.713,11.417,6.713,22
	c0,10.585,3.693,14.286,14.248,14.286h24.078c10.555,0,14.248-3.701,14.248-14.286C59.287,11.417,55.594,7.714,45.039,7.714z
	 M45.039,35.571H20.961C10.84,35.571,7.425,32.146,7.425,22S10.84,8.429,20.961,8.429h24.078c10.121,0,13.537,3.425,13.537,13.571
	S55.16,35.571,45.039,35.571z"/>
<rect fill="none" width="66" height="44"/>
</svg>
