<?xml version="1.0" encoding="utf-8"?>
<!-- Generator: Adobe Illustrator 15.0.2, SVG Export Plug-In  -->
<!DOCTYPE svg PUBLIC "-//W3C//DTD SVG 1.1//EN" "http://www.w3.org/Graphics/SVG/1.1/DTD/svg11.dtd" [
	<!ENTITY ns_flows "http://ns.adobe.com/Flows/1.0/">
]>
<svg version="1.1"
	 xmlns="http://www.w3.org/2000/svg" xmlns:xlink="http://www.w3.org/1999/xlink" xmlns:a="http://ns.adobe.com/AdobeSVGViewerExtensions/3.0/"
	 x="0px" y="0px" width="60px" height="60px" viewBox="0 0 60 60" overflow="visible" enable-background="new 0 0 60 60"
	 xml:space="preserve">
<defs>
</defs>
<linearGradient id="SVGID_1_" gradientUnits="userSpaceOnUse" x1="28.5322" y1="26.8076" x2="60.863" y2="59.1384">
	<stop  offset="0" style="stop-color:#EF5A24"/>
	<stop  offset="1" style="stop-color:#C52D00"/>
</linearGradient>
<path fill="url(#SVGID_1_)" d="M51.314,7.064c-2.032,0.007-3.992,0.954-5.879,2.84c-1.84,1.84-2.758,3.789-2.758,5.852
	c0,2.061,0.924,4.016,2.773,5.866c1.324,1.325,2.688,2.167,4.09,2.527c0.764,0.196,1.503,0.264,2.221,0.226l-3.412,3.412
	c0.102-0.406,0.195-0.836,0.282-1.291l-4.831-4.83l-5.412,5.411l2.357,2.357l2.343-2.343l1.067,1.067
	c-0.186,0.73-0.4,1.331-0.643,1.8c-0.242,0.471-0.559,0.9-0.951,1.292c-0.824,0.823-1.729,1.204-2.715,1.14
	c-0.988-0.064-2.094-0.71-3.32-1.936c-1.154-1.155-1.771-2.227-1.848-3.216c-0.078-0.989,0.268-1.869,1.035-2.637
	c0.516-0.516,1.053-0.825,1.612-0.931s1.122-0.015,1.688,0.273l2.775-3.98c-0.938-0.525-1.85-0.822-2.736-0.888
	c-0.887-0.067-1.754,0.095-2.602,0.49c-0.848,0.394-1.896,1.217-3.149,2.469c-1.298,1.299-2.149,2.516-2.55,3.649
	c-0.512,1.457-0.564,2.9-0.159,4.324c0.404,1.425,1.226,2.755,2.462,3.992c1.174,1.175,2.449,1.982,3.822,2.423
	c0.85,0.273,1.688,0.368,2.512,0.322L35.139,41c0.057-0.837,0.018-1.668-0.24-2.494c-0.401-1.294-1.264-2.604-2.588-3.929
	c-1.824-1.823-3.754-2.73-5.787-2.724c-2.031,0.008-3.992,0.955-5.877,2.841c-1.84,1.84-2.76,3.789-2.76,5.852
	c0,2.061,0.926,4.017,2.773,5.866c1.326,1.324,2.688,2.166,4.091,2.527c0.765,0.196,1.503,0.264,2.222,0.226l-2.1,2.101
	l-1.979-1.979L17.66,54.52l-8.227-8.228l-3.502,3.501L16.137,60H60V16.139c0,0-0.053-1.598-0.311-2.423
	c-0.402-1.294-1.266-2.604-2.59-3.929C55.275,7.964,53.348,7.057,51.314,7.064z M22.339,39.803
	c-0.071-0.928,0.244-1.744,0.951-2.449c0.735-0.737,1.565-1.074,2.489-1.013c0.922,0.062,1.916,0.625,2.982,1.692
	c1.268,1.269,1.94,2.353,2.018,3.254c0.076,0.902-0.26,1.729-1.013,2.481c-0.731,0.732-1.56,1.061-2.485,0.985
	c-0.924-0.074-1.959-0.685-3.102-1.827C23.023,41.771,22.41,40.731,22.339,39.803z M47.129,15.013
	c-0.072-0.928,0.244-1.743,0.951-2.45c0.736-0.736,1.566-1.073,2.488-1.012c0.923,0.062,1.916,0.625,2.984,1.693
	c1.268,1.268,1.939,2.352,2.017,3.254c0.077,0.901-0.261,1.729-1.013,2.48c-0.73,0.73-1.561,1.061-2.484,0.986
	c-0.926-0.075-1.959-0.686-3.104-1.83C47.814,16.982,47.201,15.939,47.129,15.013z"/>
<rect fill="none" width="60" height="60"/>
</svg>
