<?xml version="1.0" encoding="utf-8"?>
<!-- Generator: Adobe Illustrator 15.0.2, SVG Export Plug-In . SVG Version: 6.00 Build 0)  -->
<!DOCTYPE svg PUBLIC "-//W3C//DTD SVG 1.1//EN" "http://www.w3.org/Graphics/SVG/1.1/DTD/svg11.dtd">
<svg version="1.1" id="Layer_1" xmlns="http://www.w3.org/2000/svg" xmlns:xlink="http://www.w3.org/1999/xlink" x="0px" y="0px"
	 width="460px" height="707px" viewBox="0 0 460 707" enable-background="new 0 0 460 707" xml:space="preserve">
<polygon fill="#EFE9D0" points="460,108.599 0,568.599 0,707 42.302,707 460,289.303 "/>
<polygon fill="#EFE9D0" points="460,470.008 223.007,707 403.713,707 460,650.713 "/>
<polygon fill="#EFDFBE" points="460,289.303 42.302,707 223.007,707 460,470.008 "/>
<polygon fill="#EFE9D0" points="0,0 0,26.481 26.481,0 "/>
<polygon fill="#EFDFBE" points="26.481,0 0,26.481 0,207.187 207.188,0 "/>
<polygon fill="#EFE9D0" points="207.188,0 0,207.187 0,387.893 387.893,0 "/>
<polygon fill="#EFDFBE" points="387.893,0 0,387.893 0,568.599 460,108.599 460,0 "/>
<polygon fill="#EFDFBE" points="460,707 460,650.713 403.713,707 "/>
</svg>
