<?xml version="1.0" encoding="utf-8"?>
<!-- Generator: Adobe Illustrator 15.0.2, SVG Export Plug-In  -->
<!DOCTYPE svg PUBLIC "-//W3C//DTD SVG 1.1//EN" "http://www.w3.org/Graphics/SVG/1.1/DTD/svg11.dtd" [
	<!ENTITY ns_flows "http://ns.adobe.com/Flows/1.0/">
]>
<svg version="1.1"
	 xmlns="http://www.w3.org/2000/svg" xmlns:xlink="http://www.w3.org/1999/xlink" xmlns:a="http://ns.adobe.com/AdobeSVGViewerExtensions/3.0/"
	 x="0px" y="0px" width="460px" height="707px" viewBox="0 0 460 707" overflow="visible" enable-background="new 0 0 460 707"
	 xml:space="preserve">
<defs>
</defs>
<polygon fill="#EFE9D0" points="460,108.599 0,568.599 0,707 42.302,707 460,289.303 "/>
<polygon fill="#EFE9D0" points="460,470.008 223.007,707 403.713,707 460,650.713 "/>
<polygon fill="#EFDFBE" points="460,289.303 42.302,707 223.007,707 460,470.008 "/>
<polygon fill="#EFE9D0" points="0,0 0,26.481 26.481,0 "/>
<polygon fill="#EFDFBE" points="26.481,0 0,26.481 0,207.187 207.188,0 "/>
<polygon fill="#EFE9D0" points="207.188,0 0,207.187 0,387.893 387.893,0 "/>
<polygon fill="#EFDFBE" points="387.893,0 0,387.893 0,568.599 460,108.599 460,0 "/>
<polygon fill="#EFDFBE" points="460,707 460,650.713 403.713,707 "/>
<linearGradient id="SVGID_1_" gradientUnits="userSpaceOnUse" x1="419.791" y1="664.5879" x2="461.1029" y2="705.8998">
	<stop  offset="0" style="stop-color:#EF5A24"/>
	<stop  offset="1" style="stop-color:#C52D00"/>
</linearGradient>
<path fill="url(#SVGID_1_)" d="M448.902,639.36c-2.598,0.009-5.102,1.219-7.513,3.628c-2.351,2.352-3.523,4.842-3.523,7.478
	c0,2.633,1.181,5.131,3.544,7.495c1.691,1.693,3.434,2.77,5.226,3.229c0.976,0.251,1.921,0.337,2.838,0.289l-4.36,4.359
	c0.13-0.519,0.25-1.068,0.36-1.649l-6.173-6.172l-6.915,6.914l3.012,3.013l2.994-2.994l1.363,1.364
	c-0.236,0.934-0.511,1.701-0.82,2.3c-0.31,0.602-0.714,1.15-1.216,1.65c-1.053,1.053-2.209,1.539-3.469,1.457
	c-1.263-0.083-2.676-0.907-4.243-2.474c-1.475-1.477-2.263-2.845-2.36-4.109c-0.1-1.264,0.342-2.388,1.322-3.369
	c0.659-0.658,1.346-1.054,2.061-1.188s1.434-0.02,2.157,0.349l3.547-5.086c-1.199-0.671-2.364-1.051-3.497-1.134
	c-1.133-0.087-2.241,0.121-3.324,0.626c-1.083,0.503-2.423,1.555-4.024,3.154c-1.658,1.66-2.746,3.215-3.258,4.663
	c-0.653,1.862-0.721,3.706-0.203,5.525c0.517,1.821,1.565,3.521,3.146,5.102c1.5,1.501,3.13,2.533,4.884,3.096
	c1.086,0.35,2.156,0.471,3.21,0.412l-5.434,5.434c0.072-1.069,0.022-2.131-0.307-3.187c-0.513-1.653-1.614-3.327-3.307-5.02
	c-2.331-2.33-4.797-3.489-7.395-3.48c-2.596,0.01-5.102,1.22-7.51,3.63c-2.351,2.351-3.526,4.842-3.526,7.477
	c0,2.633,1.183,5.133,3.544,7.496c1.694,1.692,3.434,2.768,5.228,3.229c0.977,0.251,1.92,0.337,2.839,0.288l-2.684,2.684
	l-2.527-2.527l-6.688,6.686l-10.512-10.513l-4.475,4.474L403.952,707H460v-56.045c0,0-0.067-2.042-0.396-3.096
	c-0.515-1.653-1.617-3.327-3.31-5.021C453.963,640.51,451.5,639.35,448.902,639.36z M411.877,681.192
	c-0.091-1.186,0.312-2.229,1.216-3.13c0.939-0.941,2-1.372,3.181-1.294c1.178,0.079,2.448,0.799,3.811,2.163
	c1.62,1.62,2.479,3.006,2.578,4.157c0.098,1.153-0.332,2.209-1.294,3.171c-0.935,0.936-1.992,1.355-3.176,1.259
	c-1.18-0.095-2.503-0.874-3.963-2.335C412.752,683.708,411.969,682.379,411.877,681.192z M443.554,649.516
	c-0.093-1.185,0.312-2.227,1.216-3.13c0.94-0.941,2.001-1.372,3.179-1.293c1.18,0.08,2.448,0.799,3.813,2.163
	c1.62,1.62,2.479,3.005,2.577,4.158c0.099,1.151-0.333,2.209-1.294,3.17c-0.934,0.933-1.994,1.354-3.175,1.26
	c-1.183-0.096-2.503-0.876-3.966-2.338C444.43,652.033,443.646,650.7,443.554,649.516z"/>
</svg>
