<?xml version="1.0" encoding="utf-8"?>
<!-- Generator: Adobe Illustrator 15.0.2, SVG Export Plug-In  -->
<!DOCTYPE svg PUBLIC "-//W3C//DTD SVG 1.1//EN" "http://www.w3.org/Graphics/SVG/1.1/DTD/svg11.dtd" [
	<!ENTITY ns_flows "http://ns.adobe.com/Flows/1.0/">
]>
<svg version="1.1"
	 xmlns="http://www.w3.org/2000/svg" xmlns:xlink="http://www.w3.org/1999/xlink" xmlns:a="http://ns.adobe.com/AdobeSVGViewerExtensions/3.0/"
	 x="0px" y="0px" width="30px" height="30px" viewBox="0 0 30 30" overflow="visible" enable-background="new 0 0 30 30"
	 xml:space="preserve">
<defs>
</defs>
<rect fill="none" width="30" height="30"/>
<path fill="#C8470D" d="M24.163,12.623c-0.386-0.174-1.048-0.314-1.471-0.314h-4.231c-0.422,0-0.769-0.348-0.769-0.77v-4.23
	c0-0.424-0.142-1.086-0.315-1.471l-0.521-0.521C16.469,5.143,15.808,5,15.385,5h-0.77c-0.423,0-1.084,0.143-1.471,0.316
	l-0.521,0.521c-0.174,0.385-0.315,1.047-0.315,1.471v4.23c0,0.422-0.347,0.77-0.769,0.77H7.308c-0.423,0-1.085,0.141-1.471,0.314
	l-0.521,0.521C5.143,13.531,5,14.193,5,14.615v0.77c0,0.424,0.143,1.086,0.315,1.471l0.521,0.521
	c0.386,0.174,1.048,0.316,1.471,0.316h4.231c0.422,0,0.769,0.346,0.769,0.77v4.23c0,0.422,0.142,1.084,0.315,1.471l0.521,0.521
	C13.531,24.859,14.192,25,14.615,25h0.77c0.423,0,1.084-0.141,1.471-0.314l0.521-0.521c0.174-0.387,0.315-1.049,0.315-1.471v-4.23
	c0-0.424,0.347-0.77,0.769-0.77h4.231c0.423,0,1.085-0.143,1.471-0.316l0.521-0.521C24.857,16.471,25,15.809,25,15.385v-0.77
	c0-0.422-0.143-1.084-0.315-1.471L24.163,12.623z"/>
</svg>
