<?xml version="1.0" encoding="utf-8"?>
<!-- Generator: Adobe Illustrator 15.0.2, SVG Export Plug-In  -->
<!DOCTYPE svg PUBLIC "-//W3C//DTD SVG 1.1//EN" "http://www.w3.org/Graphics/SVG/1.1/DTD/svg11.dtd" [
	<!ENTITY ns_flows "http://ns.adobe.com/Flows/1.0/">
]>
<svg version="1.1"
	 xmlns="http://www.w3.org/2000/svg" xmlns:xlink="http://www.w3.org/1999/xlink" xmlns:a="http://ns.adobe.com/AdobeSVGViewerExtensions/3.0/"
	 x="0px" y="0px" width="70px" height="70px" viewBox="0 0 70 70" overflow="visible" enable-background="new 0 0 70 70"
	 xml:space="preserve">
<defs>
</defs>
<rect opacity="0.1" fill="none" width="70" height="70"/>
<path fill="none" d="M62,35c0,20.007-6.998,27-27,27C14.993,62,8,55.007,8,35C8,14.998,14.993,8,35,8C55.002,8,62,14.998,62,35z"/>
<linearGradient id="SVGID_1_" gradientUnits="userSpaceOnUse" x1="35" y1="8" x2="35" y2="62">
	<stop  offset="0" style="stop-color:#EF5A24"/>
	<stop  offset="1" style="stop-color:#C52D00"/>
</linearGradient>
<path fill="url(#SVGID_1_)" d="M62,35c0,20.007-6.998,27-27,27C14.993,62,8,55.007,8,35C8,14.998,14.993,8,35,8
	C55.002,8,62,14.998,62,35z"/>
<path fill="#FFFFFF" d="M35,21c-7.73,0-14,6.27-14,14s6.27,14,14,14s14-6.27,14-14S42.73,21,35,21z M35,42c-3.859,0-7-3.141-7-7
	s3.141-7,7-7s7,3.141,7,7S38.859,42,35,42z"/>
<path fill="#FFFFFF" fill-opacity="0.5" d="M42,35c0,0.169-0.014,0.334-0.025,0.5C41.717,31.873,38.691,29,35,29
	s-6.717,2.873-6.975,6.5C28.014,35.334,28,35.169,28,35c0-3.859,3.141-7,7-7S42,31.141,42,35z M35,49
	c-7.562,0-13.709-6.002-13.975-13.5C21.02,35.668,21,35.831,21,36c0,7.73,6.27,14,14,14s14-6.27,14-14c0-0.169-0.02-0.332-0.025-0.5
	C48.709,42.998,42.562,49,35,49z"/>
<path fill-opacity="0.35" d="M28,36c0-0.169,0.014-0.334,0.025-0.5C28.283,39.127,31.309,42,35,42s6.717-2.873,6.975-6.5
	C41.986,35.666,42,35.831,42,36c0,3.859-3.141,7-7,7S28,39.859,28,36z M35,22c7.562,0,13.709,6.002,13.975,13.5
	C48.98,35.332,49,35.169,49,35c0-7.73-6.27-14-14-14s-14,6.27-14,14c0,0.169,0.02,0.332,0.025,0.5C21.291,28.002,27.438,22,35,22z"
	/>
</svg>
