<?xml version="1.0" encoding="utf-8"?>
<!-- Generator: Adobe Illustrator 15.0.2, SVG Export Plug-In  -->
<!DOCTYPE svg PUBLIC "-//W3C//DTD SVG 1.1//EN" "http://www.w3.org/Graphics/SVG/1.1/DTD/svg11.dtd" [
	<!ENTITY ns_flows "http://ns.adobe.com/Flows/1.0/">
]>
<svg version="1.1"
	 xmlns="http://www.w3.org/2000/svg" xmlns:xlink="http://www.w3.org/1999/xlink" xmlns:a="http://ns.adobe.com/AdobeSVGViewerExtensions/3.0/"
	 x="0px" y="0px" width="70px" height="70px" viewBox="0 0 70 70" overflow="visible" enable-background="new 0 0 70 70"
	 xml:space="preserve">
<defs>
</defs>
<rect opacity="0.1" fill="none" width="70" height="70"/>
<path fill="none" d="M62,35c0,20.007-6.998,27-27,27C14.993,62,8,55.007,8,35C8,14.998,14.993,8,35,8C55.002,8,62,14.998,62,35z"/>
<linearGradient id="SVGID_1_" gradientUnits="userSpaceOnUse" x1="35" y1="8" x2="35" y2="62">
	<stop  offset="0" style="stop-color:#EF5A24"/>
	<stop  offset="1" style="stop-color:#C52D00"/>
</linearGradient>
<path fill="url(#SVGID_1_)" d="M62,35c0,20.007-6.998,27-27,27C14.993,62,8,55.007,8,35C8,14.998,14.993,8,35,8
	C55.002,8,62,14.998,62,35z"/>
<path fill="#FFFFFF" d="M45,22H25c-1.65,0-3,1.35-3,3v20c0,1.65,1.35,3,3,3h20c1.65,0,3-1.35,3-3V25C48,23.35,46.65,22,45,22z
	 M41,40c0,0.55-0.45,1-1,1H30c-0.55,0-1-0.45-1-1V30c0-0.55,0.45-1,1-1h10c0.55,0,1,0.45,1,1V40z"/>
<path fill-opacity="0.35" d="M29,41v-1c0,0.55,0.45,1,1,1h10c0.55,0,1-0.45,1-1v1c0,0.55-0.45,1-1,1H30C29.45,42,29,41.55,29,41z
	 M45,22H25c-1.65,0-3,1.35-3,3v1c0-1.65,1.35-3,3-3h20c1.65,0,3,1.35,3,3v-1C48,23.35,46.65,22,45,22z"/>
<path fill="#FFFFFF" fill-opacity="0.5" d="M41,30v1c0-0.55-0.45-1-1-1H30c-0.55,0-1,0.45-1,1v-1c0-0.55,0.45-1,1-1h10
	C40.55,29,41,29.45,41,30z M45,48H25c-1.65,0-3-1.35-3-3v1c0,1.65,1.35,3,3,3h20c1.65,0,3-1.35,3-3v-1C48,46.65,46.65,48,45,48z"/>
</svg>
