<?xml version="1.0" encoding="utf-8"?>
<!-- Generator: Adobe Illustrator 15.0.2, SVG Export Plug-In  -->
<!DOCTYPE svg PUBLIC "-//W3C//DTD SVG 1.1//EN" "http://www.w3.org/Graphics/SVG/1.1/DTD/svg11.dtd" [
	<!ENTITY ns_flows "http://ns.adobe.com/Flows/1.0/">
]>
<svg version="1.1"
	 xmlns="http://www.w3.org/2000/svg" xmlns:xlink="http://www.w3.org/1999/xlink" xmlns:a="http://ns.adobe.com/AdobeSVGViewerExtensions/3.0/"
	 x="0px" y="0px" width="50px" height="50px" viewBox="0 0 50 50" overflow="visible" enable-background="new 0 0 50 50"
	 xml:space="preserve">
<defs>
</defs>
<path fill="#F15A24" d="M25,10c-11.115,0-15,3.887-15,15c0,11.114,3.885,15,15,15c11.112,0,15-3.886,15-15
	C40,13.887,36.112,10,25,10z"/>
<polygon fill="#FFFFFF" points="27.377,14.521 26.951,28.407 23.049,28.407 22.639,14.521 "/>
<path fill="#FFFFFF" d="M26.76,34.76c-0.484,0.479-1.063,0.719-1.738,0.719c-0.694,0-1.285-0.239-1.773-0.719
	c-0.489-0.479-0.733-1.061-0.733-1.746c0-0.685,0.247-1.271,0.739-1.76c0.493-0.488,1.082-0.732,1.768-0.732
	c0.675,0,1.254,0.244,1.738,0.732s0.727,1.075,0.727,1.76C27.486,33.699,27.244,34.281,26.76,34.76z"/>
<rect fill="none" width="50" height="50"/>
</svg>
