<?xml version="1.0" encoding="utf-8"?>
<!-- Generator: Adobe Illustrator 15.0.2, SVG Export Plug-In  -->
<!DOCTYPE svg PUBLIC "-//W3C//DTD SVG 1.1//EN" "http://www.w3.org/Graphics/SVG/1.1/DTD/svg11.dtd" [
	<!ENTITY ns_flows "http://ns.adobe.com/Flows/1.0/">
]>
<svg version="1.1"
	 xmlns="http://www.w3.org/2000/svg" xmlns:xlink="http://www.w3.org/1999/xlink" xmlns:a="http://ns.adobe.com/AdobeSVGViewerExtensions/3.0/"
	 x="0px" y="0px" width="70px" height="70px" viewBox="0 0 70 70" overflow="visible" enable-background="new 0 0 70 70"
	 xml:space="preserve">
<defs>
</defs>
<rect opacity="0.1" fill="none" width="70" height="70"/>
<path fill="none" d="M62,35c0,20.007-6.998,27-27,27C14.993,62,8,55.007,8,35C8,14.998,14.993,8,35,8C55.002,8,62,14.998,62,35z"/>
<linearGradient id="SVGID_1_" gradientUnits="userSpaceOnUse" x1="35" y1="8" x2="35" y2="62">
	<stop  offset="0" style="stop-color:#EF5A24"/>
	<stop  offset="1" style="stop-color:#C52D00"/>
</linearGradient>
<path fill="url(#SVGID_1_)" d="M62,35c0,20.007-6.998,27-27,27C14.993,62,8,55.007,8,35C8,14.998,14.993,8,35,8
	C55.002,8,62,14.998,62,35z"/>
<path fill="#FFFFFF" d="M46.912,31.91C46.41,31.685,45.55,31.5,45,31.5h-5.5c-0.55,0-1-0.45-1-1V25c0-0.55-0.185-1.41-0.41-1.912
	l-0.678-0.678C36.91,22.185,36.05,22,35.5,22h-1c-0.55,0-1.41,0.185-1.912,0.41l-0.678,0.678C31.685,23.59,31.5,24.45,31.5,25v5.5
	c0,0.55-0.45,1-1,1H25c-0.55,0-1.41,0.185-1.912,0.41l-0.678,0.678C22.185,33.09,22,33.95,22,34.5v1c0,0.55,0.185,1.41,0.41,1.912
	l0.678,0.678C23.59,38.315,24.45,38.5,25,38.5h5.5c0.55,0,1,0.45,1,1V45c0,0.55,0.185,1.41,0.41,1.912l0.678,0.678
	C33.09,47.815,33.95,48,34.5,48h1c0.55,0,1.41-0.185,1.912-0.41l0.678-0.678C38.315,46.41,38.5,45.55,38.5,45v-5.5
	c0-0.55,0.45-1,1-1H45c0.55,0,1.41-0.185,1.912-0.41l0.678-0.678C47.815,36.91,48,36.05,48,35.5v-1c0-0.55-0.185-1.41-0.41-1.912
	L46.912,31.91z"/>
<path fill-opacity="0.35" d="M31.91,24.088C31.685,24.59,31.5,25.45,31.5,26v-1c0-0.55,0.185-1.41,0.41-1.912l0.678-0.678
	C33.09,22.185,33.95,22,34.5,22h1c0.55,0,1.41,0.185,1.912,0.41l0.678,0.678C38.315,23.59,38.5,24.45,38.5,25v1
	c0-0.55-0.185-1.41-0.41-1.912l-0.678-0.678C36.91,23.185,36.05,23,35.5,23h-1c-0.55,0-1.41,0.185-1.912,0.41L31.91,24.088z
	 M47.59,32.588l-0.678-0.678C46.41,31.685,45.55,31.5,45,31.5h-5.5c-0.55,0-1-0.45-1-1v1c0,0.55,0.45,1,1,1H45
	c0.55,0,1.41,0.185,1.912,0.41l0.678,0.678C47.815,34.09,48,34.95,48,35.5v-1C48,33.95,47.815,33.09,47.59,32.588z M23.088,32.91
	C23.59,32.685,24.45,32.5,25,32.5h5.5c0.55,0,1-0.45,1-1v-1c0,0.55-0.45,1-1,1H25c-0.55,0-1.41,0.185-1.912,0.41l-0.678,0.678
	C22.185,33.09,22,33.95,22,34.5v1c0-0.55,0.185-1.41,0.41-1.912L23.088,32.91z"/>
<path fill="#FFFFFF" fill-opacity="0.5" d="M38.09,46.912C38.315,46.41,38.5,45.55,38.5,45v1c0,0.55-0.185,1.41-0.41,1.912
	l-0.678,0.678C36.91,48.815,36.05,49,35.5,49h-1c-0.55,0-1.41-0.185-1.912-0.41l-0.678-0.678C31.685,47.41,31.5,46.55,31.5,46v-1
	c0,0.55,0.185,1.41,0.41,1.912l0.678,0.678C33.09,47.815,33.95,48,34.5,48h1c0.55,0,1.41-0.185,1.912-0.41L38.09,46.912z M31.5,39.5
	c0-0.55-0.45-1-1-1H25c-0.55,0-1.41-0.185-1.912-0.41l-0.678-0.678C22.185,36.91,22,36.05,22,35.5v1c0,0.55,0.185,1.41,0.41,1.912
	l0.678,0.678C23.59,39.315,24.45,39.5,25,39.5h5.5c0.55,0,1,0.45,1,1V39.5z M46.912,38.09C46.41,38.315,45.55,38.5,45,38.5h-5.5
	c-0.55,0-1,0.45-1,1v1c0-0.55,0.45-1,1-1H45c0.55,0,1.41-0.185,1.912-0.41l0.678-0.678C47.815,37.91,48,37.05,48,36.5v-1
	c0,0.55-0.185,1.41-0.41,1.912L46.912,38.09z"/>
</svg>
