<?xml version="1.0" encoding="utf-8"?>
<!-- Generator: Adobe Illustrator 15.0.2, SVG Export Plug-In . SVG Version: 6.00 Build 0)  -->
<!DOCTYPE svg PUBLIC "-//W3C//DTD SVG 1.1//EN" "http://www.w3.org/Graphics/SVG/1.1/DTD/svg11.dtd">
<svg version="1.1" id="Layer_1" xmlns="http://www.w3.org/2000/svg" xmlns:xlink="http://www.w3.org/1999/xlink" x="0px" y="0px"
	 width="96px" height="96px" viewBox="0 0 96 96" enable-background="new 0 0 96 96" xml:space="preserve">
<path fill-opacity="0.4" d="M88,49c0,29.635-10.363,40-40,40C18.365,89,8,78.631,8,49C8,19.366,18.365,9,48,9
	C77.637,9,88,19.366,88,49z"/>
<linearGradient id="SVGID_1_" gradientUnits="userSpaceOnUse" x1="-8.5005" y1="730.5449" x2="-8.5005" y2="811.2398" gradientTransform="matrix(1 0 0 1 56.5 -722)">
	<stop  offset="0" style="stop-color:#F7F7E3"/>
	<stop  offset="1" style="stop-color:#D7B883"/>
</linearGradient>
<path fill="url(#SVGID_1_)" d="M88,48c0,29.631-10.363,40-40,40C18.365,88,8,77.631,8,48C8,18.366,18.365,8,48,8
	C77.637,8,88,18.366,88,48z"/>
<rect fill="none" width="96" height="96"/>
<g>
	<path opacity="0.03" d="M85.543,28.025c-2.564-2.533-5.398-3.822-8.428-3.822c-3.038,0.01-5.933,1.367-8.602,4.036
		c-2.616,2.618-3.943,5.505-3.943,8.578c0,0.555,0.045,1.11,0.135,1.66c-0.559-0.149-1.114-0.245-1.661-0.286
		c-0.216-0.018-0.431-0.025-0.646-0.025c-1.241,0-2.461,0.276-3.627,0.822c-1.263,0.587-2.695,1.689-4.38,3.372
		c-1.77,1.771-2.967,3.516-3.559,5.188c-0.666,1.897-0.812,3.808-0.424,5.731c-0.709-0.15-1.43-0.226-2.15-0.226
		c-3.041,0.015-5.935,1.374-8.6,4.04c-2.618,2.613-3.945,5.5-3.945,8.577c0,3.073,1.333,5.966,3.962,8.598
		c0.41,0.41,0.833,0.794,1.264,1.146l-2.988,2.987l-7.807-7.809c-0.473-0.473-1.1-0.732-1.768-0.732s-1.295,0.26-1.768,0.732
		l-4.077,4.074c-0.473,0.473-0.732,1.1-0.732,1.768s0.26,1.295,0.732,1.768l8.051,8.053C35.454,87.449,41.217,88,48,88
		c29.637,0,40-10.369,40-40C88,39.988,87.234,33.396,85.543,28.025z M50.271,67.659c-0.35,0.352-0.581,0.424-0.803,0.424
		l-0.12-0.003c-0.345-0.028-1.109-0.473-2.041-1.403c-0.941-0.941-1.391-1.714-1.418-2.061c-0.023-0.299,0.032-0.541,0.386-0.895
		c0.368-0.37,0.614-0.449,0.869-0.452l0.091,0.003c0.157,0.011,0.758,0.131,1.87,1.242c1.55,1.552,1.625,2.207,1.627,2.231
		C50.753,66.996,50.683,67.247,50.271,67.659z M78.235,39.224c-0.01,0-0.02,0-0.029-0.001c-0.348-0.027-1.114-0.473-2.046-1.406
		c-0.94-0.938-1.389-1.707-1.415-2.055c-0.023-0.301,0.031-0.543,0.381-0.893c0.373-0.373,0.62-0.452,0.873-0.453l0.091,0.003
		c0.157,0.011,0.758,0.132,1.871,1.243c1.552,1.551,1.622,2.206,1.625,2.234c0.021,0.25-0.048,0.498-0.455,0.905
		C78.787,39.145,78.559,39.224,78.235,39.224z"/>
	<path opacity="0.05" d="M85.865,29.077c-0.19-0.208-0.388-0.415-0.594-0.622c-2.489-2.49-5.232-3.752-8.154-3.752
		c-2.902,0.009-5.678,1.317-8.25,3.89c-2.52,2.521-3.797,5.288-3.797,8.225c0,0.804,0.099,1.605,0.295,2.392
		c-0.793-0.287-1.583-0.461-2.359-0.52c-0.203-0.016-0.405-0.023-0.607-0.023c-1.167,0-2.316,0.261-3.416,0.775
		c-1.209,0.562-2.595,1.633-4.237,3.272c-1.717,1.718-2.874,3.399-3.44,5c-0.731,2.086-0.807,4.185-0.224,6.238
		c0.002,0.005,0.003,0.01,0.005,0.015c-0.924-0.273-1.87-0.412-2.825-0.412c-2.904,0.014-5.679,1.323-8.248,3.894
		c-2.521,2.517-3.799,5.283-3.799,8.224c0,2.936,1.283,5.709,3.815,8.244c0.54,0.54,1.098,1.027,1.662,1.455l-3.74,3.738
		l-8.16-8.162c-0.378-0.378-0.88-0.586-1.414-0.586s-1.036,0.208-1.414,0.586l-4.077,4.074c-0.378,0.378-0.586,0.88-0.586,1.414
		s0.208,1.036,0.586,1.414l8.627,8.628C36.183,87.519,41.646,88,48,88c29.637,0,40-10.369,40-40
		C88,40.508,87.334,34.25,85.865,29.077z M50.626,68.012c-0.398,0.4-0.75,0.571-1.174,0.571l-0.144-0.005
		c-0.549-0.044-1.429-0.623-2.354-1.548c-0.936-0.936-1.52-1.824-1.563-2.376c-0.038-0.498,0.115-0.87,0.53-1.285
		c0.416-0.418,0.785-0.598,1.229-0.6l0.118,0.004c0.32,0.021,1.032,0.23,2.19,1.388c1.575,1.577,1.754,2.347,1.771,2.543
		C51.269,67.158,51.088,67.549,50.626,68.012z M61.326,52.513c-0.962-0.963-1.521-1.845-1.572-2.484
		c-0.044-0.567,0.144-1.016,0.627-1.499c0.302-0.303,0.592-0.486,0.841-0.531c0.011-0.002,0.021-0.004,0.031-0.006l-0.589,0.589
		c-0.378,0.378-0.586,0.88-0.586,1.414s0.208,1.036,0.586,1.414l2.57,2.571C62.793,53.769,62.161,53.348,61.326,52.513z
		 M79.484,39.155c-0.401,0.401-0.754,0.573-1.181,0.573c-0.044,0-0.088-0.002-0.138-0.007c-0.552-0.044-1.434-0.624-2.358-1.551
		c-0.936-0.933-1.519-1.818-1.562-2.37c-0.038-0.5,0.114-0.873,0.526-1.285c0.421-0.42,0.791-0.6,1.235-0.6l0.115,0.004
		c0.321,0.021,1.032,0.23,2.191,1.389c1.576,1.575,1.753,2.346,1.77,2.545C80.123,38.307,79.944,38.695,79.484,39.155z"/>
	<path opacity="0.07" d="M86.154,30.182c-0.374-0.46-0.781-0.918-1.236-1.373c-2.393-2.393-5.017-3.605-7.799-3.605
		c-2.766,0.008-5.423,1.268-7.898,3.743c-2.422,2.424-3.65,5.071-3.65,7.871c0,1.111,0.196,2.204,0.586,3.269
		c-1.074-0.519-2.145-0.82-3.188-0.898c-0.19-0.014-0.38-0.021-0.569-0.021c-1.094,0-2.172,0.245-3.205,0.729
		c-1.154,0.537-2.494,1.574-4.095,3.173c-1.664,1.665-2.781,3.284-3.322,4.812c-0.697,1.988-0.769,3.985-0.214,5.937
		c0.092,0.323,0.2,0.646,0.325,0.964c-1.175-0.481-2.389-0.725-3.625-0.725c-2.767,0.013-5.424,1.273-7.896,3.747
		c-2.424,2.42-3.652,5.068-3.652,7.87c0,2.798,1.234,5.453,3.669,7.891c0.675,0.674,1.371,1.26,2.076,1.748l-4.508,4.506
		l-8.514-8.516c-0.283-0.283-0.66-0.439-1.061-0.439s-0.777,0.156-1.061,0.439l-4.077,4.074c-0.283,0.283-0.439,0.66-0.439,1.061
		s0.156,0.777,0.439,1.061l9.164,9.166C36.876,87.572,42.042,88,48,88c29.637,0,40-10.369,40-40
		C88,41.028,87.417,35.136,86.154,30.182z M50.98,68.364c-0.495,0.497-0.967,0.719-1.528,0.719c-0.062,0-0.126-0.004-0.184-0.007
		c-0.683-0.055-1.63-0.655-2.668-1.692c-1.048-1.048-1.654-2.004-1.708-2.691c-0.05-0.645,0.158-1.16,0.674-1.676
		c0.515-0.517,1.005-0.747,1.592-0.747l0.144,0.005c0.685,0.046,1.553,0.576,2.511,1.533c1.589,1.591,1.883,2.473,1.916,2.854
		C51.779,67.271,51.549,67.795,50.98,68.364z M59.466,62.908c-0.006-0.019-0.011-0.036-0.017-0.055
		c-0.083-0.267-0.181-0.534-0.292-0.803c0.234,0.093,0.471,0.178,0.709,0.255c0.051,0.017,0.103,0.032,0.154,0.048L59.466,62.908z
		 M64.019,54.689l-0.143-0.005c-0.749-0.05-1.78-0.695-2.903-1.818c-1.062-1.062-1.655-2.03-1.717-2.799
		c-0.056-0.719,0.183-1.302,0.771-1.892c0.379-0.379,0.747-0.604,1.101-0.67c0.082-0.016,0.163-0.023,0.245-0.023
		c0.234,0,0.489,0.068,0.758,0.205c0.03,0.016,0.061,0.029,0.092,0.043l-1.205,1.204c-0.283,0.283-0.439,0.66-0.439,1.061
		s0.156,0.777,0.439,1.061l2.745,2.745c0.283,0.283,0.66,0.439,1.061,0.439c0.329,0,0.642-0.105,0.899-0.299
		C65.169,54.444,64.609,54.689,64.019,54.689z M67.316,42.637l-0.302,0.302l0.254-0.364c0.032-0.046,0.062-0.094,0.088-0.143
		c0.023,0.035,0.047,0.07,0.07,0.105C67.389,42.568,67.352,42.602,67.316,42.637z M79.838,39.509
		c-0.497,0.497-0.971,0.72-1.534,0.72c-0.058,0-0.115-0.003-0.178-0.008c-0.686-0.055-1.635-0.656-2.672-1.695
		c-1.047-1.045-1.653-1.998-1.706-2.687c-0.05-0.646,0.157-1.163,0.671-1.677c0.517-0.516,1.007-0.746,1.589-0.746
		c0.048,0,0.097,0.001,0.148,0.005c0.686,0.046,1.554,0.577,2.512,1.534c1.591,1.59,1.882,2.471,1.914,2.855
		C80.635,38.418,80.405,38.941,79.838,39.509z"/>
	<path opacity="0.1" d="M86.463,31.438c-0.521-0.76-1.144-1.52-1.898-2.275c-2.296-2.295-4.8-3.459-7.443-3.459
		c-2.629,0.008-5.168,1.218-7.547,3.597c-2.325,2.327-3.504,4.856-3.504,7.518c0,2.054,0.705,4.031,2.1,5.901
		c-0.188,0.039-0.361,0.133-0.5,0.271l-6.299,6.298c-0.188,0.188-0.293,0.44-0.293,0.707s0.104,0.519,0.293,0.707l2.745,2.745
		c0.188,0.188,0.44,0.293,0.707,0.293s0.519-0.104,0.707-0.293l2.02-2.02l0.123,0.124c-0.157,0.528-0.33,0.979-0.517,1.341
		c-0.23,0.448-0.542,0.87-0.926,1.255c-0.703,0.701-1.427,1.042-2.212,1.042c-0.058,0-0.116-0.002-0.176-0.006
		c-0.883-0.059-1.997-0.737-3.224-1.964c-1.164-1.164-1.79-2.212-1.861-3.113c-0.067-0.865,0.224-1.592,0.916-2.284
		c0.451-0.452,0.907-0.723,1.359-0.807c0.113-0.021,0.226-0.033,0.34-0.033c0.314,0,0.645,0.087,0.983,0.259
		c0.142,0.071,0.294,0.108,0.452,0.108c0.326,0,0.633-0.16,0.82-0.428l3.229-4.634c0.161-0.23,0.217-0.521,0.154-0.795
		c-0.062-0.274-0.239-0.511-0.486-0.65c-1.216-0.68-2.426-1.069-3.597-1.156c-0.178-0.014-0.354-0.021-0.531-0.021
		c-1.02,0-2.027,0.229-2.994,0.682c-1.102,0.512-2.394,1.518-3.952,3.073c-1.61,1.612-2.688,3.167-3.204,4.624
		c-0.662,1.889-0.73,3.784-0.204,5.635c0.211,0.745,0.512,1.471,0.899,2.176c-1.497-0.864-3.062-1.301-4.679-1.301
		c-2.63,0.012-5.168,1.223-7.545,3.601c-2.326,2.323-3.506,4.853-3.506,7.517c0,2.661,1.185,5.196,3.522,7.537
		c0.816,0.815,1.654,1.49,2.511,2.021l-5.296,5.294l-8.867-8.869c-0.188-0.188-0.44-0.293-0.707-0.293s-0.519,0.104-0.707,0.293
		l-4.077,4.074c-0.188,0.188-0.293,0.44-0.293,0.707s0.104,0.519,0.293,0.707l9.701,9.703C37.557,87.635,42.439,88,48,88
		c29.637,0,40-10.369,40-40C88,41.612,87.516,36.125,86.463,31.438z M46.347,76.736l-0.3-0.301c0.163,0.04,0.327,0.076,0.492,0.107
		L46.347,76.736z M51.335,68.717c-0.589,0.591-1.187,0.866-1.883,0.866c-0.073,0-0.147-0.004-0.223-0.009
		c-0.813-0.064-1.845-0.7-2.982-1.837c-1.148-1.148-1.789-2.188-1.854-3.007c-0.061-0.792,0.199-1.448,0.818-2.066
		c0.607-0.61,1.227-0.895,1.946-0.895c0.058,0,0.116,0.002,0.177,0.006c0.818,0.055,1.771,0.62,2.831,1.679
		c1.616,1.618,2.013,2.616,2.061,3.166C52.29,67.377,52.007,68.044,51.335,68.717z M59.189,63.892
		c-0.055-0.303-0.127-0.599-0.218-0.89c-0.209-0.673-0.514-1.349-0.913-2.025c0.634,0.353,1.288,0.637,1.959,0.853
		c0.322,0.103,0.65,0.188,0.979,0.255L59.189,63.892z M74.589,48.492l-1.646-1.645c0.614,0.31,1.237,0.546,1.865,0.708
		c0.194,0.05,0.389,0.094,0.585,0.132L74.589,48.492z M80.191,39.862c-0.591,0.591-1.191,0.866-1.888,0.866
		c-0.071,0-0.143-0.004-0.218-0.01c-0.815-0.064-1.848-0.701-2.985-1.84c-1.148-1.146-1.788-2.184-1.852-3.002
		c-0.061-0.793,0.199-1.451,0.816-2.068c0.609-0.609,1.228-0.893,1.942-0.893c0.06,0,0.12,0.002,0.182,0.006
		c0.819,0.055,1.772,0.62,2.832,1.68c1.618,1.617,2.013,2.613,2.059,3.166C81.146,38.525,80.863,39.19,80.191,39.862z"/>
	<path opacity="0.1" d="M86.769,32.916c-0.579-1.129-1.426-2.268-2.558-3.4c-2.199-2.198-4.57-3.312-7.088-3.312
		c-2.492,0.008-4.913,1.168-7.195,3.45c-2.228,2.229-3.357,4.64-3.357,7.164s1.136,4.941,3.376,7.183
		c1.597,1.597,3.274,2.63,4.987,3.071c0.504,0.13,1.014,0.217,1.523,0.26l-1.956,1.956c-0.008-0.12-0.059-0.234-0.146-0.321
		l-5.625-5.622c-0.098-0.098-0.226-0.146-0.354-0.146s-0.256,0.049-0.354,0.146l-6.299,6.298c-0.094,0.094-0.146,0.221-0.146,0.354
		s0.053,0.26,0.146,0.354l2.745,2.745c0.094,0.094,0.221,0.146,0.354,0.146s0.26-0.053,0.354-0.146l2.373-2.374l0.685,0.687
		c-0.187,0.684-0.399,1.26-0.634,1.715c-0.254,0.494-0.596,0.958-1.017,1.38c-0.802,0.8-1.641,1.188-2.565,1.188
		c-0.069,0-0.14-0.002-0.209-0.007c-1.02-0.067-2.212-0.777-3.544-2.109c-1.251-1.251-1.926-2.404-2.006-3.428
		c-0.079-1.009,0.268-1.884,1.061-2.677c0.523-0.524,1.067-0.842,1.618-0.944c0.145-0.028,0.289-0.042,0.435-0.042
		c0.395,0,0.801,0.105,1.209,0.312c0.072,0.037,0.149,0.055,0.227,0.055c0.159,0,0.313-0.076,0.41-0.214l3.229-4.634
		c0.081-0.116,0.108-0.261,0.077-0.398c-0.031-0.137-0.12-0.255-0.243-0.324c-1.151-0.645-2.292-1.012-3.391-1.094
		c-0.165-0.014-0.329-0.02-0.493-0.02c-0.946,0-1.883,0.214-2.783,0.635c-1.045,0.486-2.292,1.459-3.81,2.974
		c-1.558,1.559-2.596,3.051-3.086,4.437c-0.627,1.788-0.692,3.583-0.194,5.333c0.491,1.735,1.499,3.372,2.994,4.865
		c1.414,1.417,2.979,2.407,4.65,2.943c0.618,0.197,1.249,0.324,1.886,0.38l-3.245,3.245c-0.033-0.655-0.138-1.252-0.316-1.827
		c-0.49-1.579-1.546-3.187-3.139-4.779c-2.2-2.2-4.577-3.316-7.089-3.316c-2.492,0.011-4.913,1.173-7.193,3.454
		c-2.229,2.227-3.359,4.637-3.359,7.163c0,2.523,1.136,4.94,3.376,7.184c1.599,1.597,3.277,2.63,4.99,3.073
		c0.505,0.129,1.015,0.215,1.522,0.258l-1.256,1.257l-1.949-1.95c-0.094-0.094-0.221-0.146-0.354-0.146s-0.26,0.053-0.354,0.146
		l-5.739,5.737l-9.221-9.223c-0.098-0.098-0.226-0.146-0.354-0.146s-0.256,0.049-0.354,0.146l-4.077,4.074
		c-0.094,0.094-0.146,0.221-0.146,0.354s0.053,0.26,0.146,0.354l10.194,10.196C38.203,87.672,42.799,88,48,88
		c29.637,0,40-10.369,40-40C88,42.271,87.607,37.27,86.769,32.916z M51.689,69.07c-0.68,0.682-1.412,1.013-2.237,1.013
		c-0.086,0-0.173-0.004-0.263-0.011c-0.947-0.075-2.056-0.742-3.296-1.981c-1.252-1.252-1.924-2.369-1.998-3.322
		c-0.072-0.936,0.242-1.739,0.962-2.458c0.699-0.701,1.451-1.041,2.301-1.041c0.069,0,0.14,0.002,0.21,0.007
		c0.944,0.063,2.004,0.678,3.151,1.824c1.383,1.385,2.125,2.556,2.205,3.478C52.801,67.48,52.462,68.296,51.689,69.07z
		 M80.545,40.216c-0.682,0.681-1.415,1.013-2.241,1.013c-0.085,0-0.171-0.004-0.258-0.012c-0.949-0.075-2.059-0.742-3.299-1.984
		c-1.251-1.248-1.923-2.365-1.997-3.317c-0.071-0.937,0.243-1.741,0.962-2.46c0.7-0.699,1.451-1.039,2.296-1.039
		c0.07,0,0.143,0.002,0.215,0.007c0.944,0.063,2.005,0.678,3.152,1.825c1.385,1.384,2.126,2.553,2.203,3.477
		C81.656,38.627,81.318,39.442,80.545,40.216z"/>
	<linearGradient id="SVGID_2_" gradientUnits="userSpaceOnUse" x1="56.1504" y1="25.7031" x2="56.1504" y2="88.0005">
		<stop  offset="0" style="stop-color:#EF5A24"/>
		<stop  offset="1" style="stop-color:#C52D00"/>
	</linearGradient>
	<path fill="url(#SVGID_2_)" d="M83.857,28.869c-2.122-2.121-4.367-3.178-6.733-3.166c-2.366,0.007-4.647,1.108-6.843,3.304
		c-2.141,2.142-3.211,4.412-3.211,6.811s1.076,4.675,3.229,6.829c1.542,1.542,3.128,2.521,4.759,2.94
		c0.89,0.229,1.75,0.308,2.586,0.264l-3.972,3.971c0.118-0.472,0.228-0.972,0.329-1.502l-5.625-5.622l-6.299,6.298l2.745,2.745
		l2.727-2.729l1.241,1.244c-0.215,0.85-0.465,1.548-0.746,2.094c-0.282,0.55-0.652,1.049-1.107,1.505
		c-0.959,0.957-2.014,1.4-3.161,1.327c-1.149-0.076-2.437-0.827-3.864-2.255c-1.345-1.345-2.061-2.591-2.15-3.742
		c-0.091-1.151,0.312-2.176,1.205-3.069c0.6-0.601,1.226-0.961,1.877-1.082c0.65-0.125,1.307-0.019,1.965,0.316l3.229-4.634
		c-1.091-0.61-2.152-0.955-3.185-1.032c-1.032-0.079-2.041,0.109-3.027,0.571c-0.986,0.458-2.207,1.416-3.667,2.873
		c-1.511,1.512-2.501,2.929-2.968,4.248c-0.595,1.696-0.656,3.375-0.185,5.032c0.47,1.659,1.426,3.209,2.866,4.647
		c1.365,1.368,2.85,2.308,4.449,2.82c0.988,0.316,1.963,0.429,2.922,0.374l-4.949,4.951c0.068-0.975,0.021-1.94-0.278-2.902
		c-0.468-1.507-1.472-3.031-3.015-4.574c-2.121-2.121-4.367-3.177-6.733-3.17c-2.366,0.01-4.647,1.112-6.842,3.308
		c-2.142,2.14-3.213,4.409-3.213,6.81c0,2.399,1.078,4.676,3.229,6.83c1.542,1.54,3.129,2.521,4.761,2.942
		c0.89,0.228,1.75,0.306,2.586,0.26l-2.443,2.447l-2.303-2.305l-6.093,6.091l-9.574-9.576L24.3,75.436l11.854,11.855
		C39.708,87.769,43.64,88,48,88c29.637,0,40-10.369,40-40c0-5.5-0.359-10.333-1.13-14.562
		C86.402,31.934,85.398,30.412,83.857,28.869z M52.043,68.424c-0.852,0.854-1.816,1.235-2.893,1.146
		c-1.076-0.085-2.28-0.796-3.61-2.126c-1.346-1.346-2.059-2.555-2.143-3.637c-0.084-1.079,0.284-2.03,1.106-2.851
		c0.856-0.858,1.823-1.25,2.897-1.18c1.072,0.072,2.229,0.728,3.472,1.97c1.477,1.479,2.259,2.739,2.35,3.789
		C53.312,66.586,52.918,67.547,52.043,68.424z M80.898,39.569c-0.852,0.851-1.816,1.234-2.893,1.146
		c-1.076-0.086-2.281-0.797-3.612-2.129c-1.343-1.341-2.058-2.555-2.142-3.634c-0.083-1.08,0.284-2.029,1.106-2.853
		c0.858-0.856,1.824-1.249,2.897-1.177c1.072,0.072,2.229,0.728,3.473,1.971c1.477,1.476,2.26,2.737,2.348,3.787
		C82.167,37.731,81.773,38.694,80.898,39.569z"/>
</g>
<linearGradient id="SVGID_3_" gradientUnits="userSpaceOnUse" x1="-8.5234" y1="730.2529" x2="-8.5234" y2="809.4981" gradientTransform="matrix(1 0 0 1 56.5 -722)">
	<stop  offset="0" style="stop-color:#FFFFFF"/>
	<stop  offset="1" style="stop-color:#FFFFFF;stop-opacity:0"/>
</linearGradient>
<path fill="url(#SVGID_3_)" fill-opacity="0.25" d="M47.979,8C18.357,8,8,18.366,8,48c0,29.631,10.357,40,39.979,40
	c29.617,0,39.977-10.365,39.977-40C87.953,18.366,77.596,8,47.979,8z M47.979,87C18.836,87,9,77.158,9,48S18.836,9,47.979,9
	c29.141,0,38.978,9.842,38.978,39C86.954,77.158,77.116,87,47.979,87z"/>
</svg>
