<?xml version="1.0" encoding="utf-8"?>
<!-- Generator: Adobe Illustrator 15.0.2, SVG Export Plug-In . SVG Version: 6.00 Build 0)  -->
<!DOCTYPE svg PUBLIC "-//W3C//DTD SVG 1.1//EN" "http://www.w3.org/Graphics/SVG/1.1/DTD/svg11.dtd">
<svg version="1.1" id="Layer_1" xmlns="http://www.w3.org/2000/svg" xmlns:xlink="http://www.w3.org/1999/xlink" x="0px" y="0px"
	 width="96px" height="96px" viewBox="0 0 96 96" enable-background="new 0 0 96 96" xml:space="preserve">
<g>
	<path fill-opacity="0.4" d="M88,49c0,29.634-10.363,40-40,40C18.366,89,8,78.634,8,49C8,19.365,18.366,9,48,9
		C77.637,9,88,19.365,88,49z"/>
	
		<linearGradient id="SVGID_1_" gradientUnits="userSpaceOnUse" x1="-126.0005" y1="122.3984" x2="-126.0005" y2="197.2355" gradientTransform="matrix(1 0 0 -1 174 219)">
		<stop  offset="0" style="stop-color:#006325"/>
		<stop  offset="1" style="stop-color:#80C341"/>
	</linearGradient>
	<path fill="url(#SVGID_1_)" d="M88,48c0,29.634-10.363,40-40,40C18.366,88,8,77.634,8,48C8,18.365,18.366,8,48,8
		C77.637,8,88,18.365,88,48z"/>
	<rect fill="none" width="96" height="96"/>
	
		<linearGradient id="SVGID_2_" gradientUnits="userSpaceOnUse" x1="-300.2749" y1="506.6982" x2="-300.2749" y2="585.9434" gradientTransform="matrix(1 0 0 1 348.2749 -498.4453)">
		<stop  offset="0" style="stop-color:#FFFFFF"/>
		<stop  offset="1" style="stop-color:#FFFFFF;stop-opacity:0"/>
	</linearGradient>
	<path fill="url(#SVGID_2_)" fill-opacity="0.25" d="M48,8C18.366,8,8,18.365,8,48c0,29.634,10.366,40,40,40
		c29.637,0,40-10.366,40-40C88,18.365,77.637,8,48,8z M48,87C18.842,87,9,77.158,9,48S18.842,9,48,9s39,9.842,39,39S77.158,87,48,87
		z"/>
	<path opacity="0.05" d="M71,41.5h-3.293c-0.118-0.291-0.271-0.57-0.454-0.826c0.105-0.23,0.179-0.478,0.213-0.73
		c0.02-0.145,0.034-0.291,0.034-0.443v-3c0-2.205-1.794-4-4-4H32.501c-2.206,0-4.001,1.795-4.001,4v3c0,2.205,1.795,4,4.001,4
		c-2.206,0-4.001,1.795-4.001,4v3c0,2.205,1.795,4,4.001,4c-2.206,0-4.001,1.795-4.001,4v3c0,2.205,1.795,4,4.001,4
		c13.708,0,17.73-0.002,18.917-0.002l0.087,1.632c0.068,1.329,1.164,2.37,2.495,2.37h16c1.331,0,2.427-1.041,2.495-2.368l1-18.992
		c0.003-0.046,0.004-0.093,0.004-0.14c0.624-0.469,1.001-1.209,1.001-2v-1C74.5,43.07,72.93,41.5,71,41.5z M32.959,54.5h-0.066
		H32.959z"/>
	<path opacity="0.07" d="M71,42h-3.646c-0.14-0.469-0.378-0.906-0.697-1.278c0.164-0.251,0.272-0.54,0.314-0.845
		C66.987,39.754,67,39.629,67,39.5v-3c0-1.93-1.57-3.5-3.5-3.5H32.501C30.57,33,29,34.57,29,36.5v3c0,1.93,1.57,3.5,3.501,3.5
		h18.258c-0.257,0.289-0.46,0.629-0.591,1.007C50.112,44.002,50.057,44,50,44H32.501C30.57,44,29,45.57,29,47.5v3
		c0,1.93,1.57,3.5,3.501,3.5c0,0,18.777-0.001,18.812-0.003L51.366,55H32.501C30.57,55,29,56.57,29,58.5v3
		c0,1.93,1.57,3.5,3.501,3.5c0,0,19.356-0.001,19.392-0.003l0.111,2.106C52.059,68.167,52.936,69,54,69h16
		c1.064,0,1.941-0.832,1.996-1.895l1-18.994c0.007-0.122,0.003-0.246-0.014-0.369C73.6,47.393,74,46.731,74,46v-1
		C74,43.346,72.654,42,71,42z"/>
	<path opacity="0.1" d="M71,42.5h-4.042c-0.115-0.684-0.464-1.301-0.976-1.752c0.263-0.236,0.442-0.573,0.493-0.938
		c0.014-0.102,0.024-0.204,0.024-0.311v-3c0-1.654-1.346-3-3-3H32.501c-1.654,0-3.001,1.346-3.001,3v3c0,1.654,1.347,3,3.001,3H53
		c-1.241,0-2.274,0.91-2.468,2.098C50.367,44.535,50.188,44.5,50,44.5H32.501c-1.654,0-3.001,1.346-3.001,3v3
		c0,1.654,1.347,3,3.001,3h18.707c0.198,0,0.394-0.039,0.574-0.114l0.114,2.175c-0.135-0.039-0.278-0.061-0.426-0.061h-18.97
		c-1.654,0-3.001,1.346-3.001,3v3c0,1.654,1.347,3,3.001,3h19.286c0.198,0,0.394-0.039,0.574-0.114l0.142,2.692
		C52.544,67.875,53.201,68.5,54,68.5h16c0.799,0,1.456-0.625,1.497-1.421l1-18.996c0.013-0.218-0.023-0.436-0.103-0.636
		C73.03,47.273,73.5,46.69,73.5,46v-1C73.5,43.621,72.379,42.5,71,42.5z"/>
	<path opacity="0.15" d="M51.471,56h-18.97C31.122,56,30,57.121,30,58.5v3c0,1.379,1.122,2.5,2.501,2.5h19.286
		c0.274,0,0.539-0.114,0.725-0.311c0.189-0.199,0.289-0.471,0.273-0.742l-0.316-6C52.441,56.416,52.003,56,51.471,56z M71,43h-4.5
		c0-1.096-0.709-2.029-1.692-2.366c0.049,0.009,0.098,0.013,0.147,0.013c0.196,0,0.395-0.062,0.573-0.178
		c0.237-0.152,0.41-0.429,0.452-0.726C65.991,39.664,66,39.584,66,39.5v-3c0-1.379-1.121-2.5-2.5-2.5H32.501
		C31.122,34,30,35.121,30,36.5v3c0,1.379,1.122,2.5,2.501,2.5h24.628c0.317,0,0.616-0.15,0.805-0.406
		C57.66,41.995,57.5,42.479,57.5,43H53c-1.103,0-2,0.896-2,2v1c0-0.551-0.448-1-1-1H32.501C31.122,45,30,46.121,30,47.5v3
		c0,1.379,1.122,2.5,2.501,2.5h18.707c0.274,0,0.539-0.114,0.725-0.311c0.189-0.199,0.289-0.471,0.273-0.742l-0.205-3.896
		c-0.002-0.036-0.002-0.072,0.001-0.107c-0.002,0.036-0.002,0.072,0,0.109l1,19C53.029,67.584,53.468,68,54,68h16
		c0.532,0,0.971-0.416,0.998-0.947l1-18.998c0.016-0.273-0.084-0.545-0.271-0.742C71.539,47.114,71.274,47,71,47h1
		c0.552,0,1-0.449,1-1v-1C73,43.896,72.103,43,71,43z M52.275,47.311c-0.144,0.151-0.235,0.344-0.265,0.545
		c0.046-0.4-0.15-0.785-0.502-0.983c-0.001-0.001-0.002-0.002-0.003-0.003C51.651,46.952,51.82,47,52,47h1
		C52.726,47,52.461,47.114,52.275,47.311z"/>
	<path opacity="0.15" d="M51.471,56.5h-18.97c-1.104,0-2.001,0.896-2.001,2v3c0,1.104,0.897,2,2.001,2h19.286
		c0.137,0,0.269-0.057,0.362-0.156c0.095-0.1,0.145-0.232,0.137-0.37l-0.316-6C51.956,56.708,51.736,56.5,51.471,56.5z M32.501,41.5
		h24.628c0.163,0,0.316-0.08,0.41-0.213C58.102,40.48,59.022,40,60,40h4c0.271,0,0.546,0.043,0.843,0.13
		c0.037,0.011,0.075,0.017,0.112,0.017c0.106,0,0.213-0.039,0.303-0.098c0.122-0.078,0.207-0.229,0.228-0.372
		c0.008-0.058,0.015-0.116,0.015-0.177v-3c0-1.104-0.897-2-2-2H32.501c-1.104,0-2.001,0.896-2.001,2v3
		C30.5,40.604,31.397,41.5,32.501,41.5z M32.501,52.5h18.707c0.137,0,0.269-0.057,0.362-0.156c0.095-0.1,0.145-0.232,0.137-0.37
		l-0.205-3.896c-0.005-0.091-0.001-0.181,0.011-0.271c0.026-0.201-0.072-0.399-0.25-0.5C50.792,47.041,50.5,46.54,50.5,46
		c0-0.276-0.224-0.5-0.5-0.5H32.501c-1.104,0-2.001,0.896-2.001,2v3C30.5,51.604,31.397,52.5,32.501,52.5z M71,47.5H53
		c-0.137,0-0.269,0.057-0.362,0.156c-0.095,0.1-0.145,0.232-0.137,0.37l1,19C53.515,67.292,53.734,67.5,54,67.5h16
		c0.266,0,0.485-0.208,0.499-0.474l1-19c0.008-0.138-0.042-0.271-0.137-0.37C71.269,47.557,71.137,47.5,71,47.5z M58.5,62
		c0,0.275-0.225,0.5-0.5,0.5s-0.5-0.225-0.5-0.5V52c0-0.275,0.225-0.5,0.5-0.5s0.5,0.225,0.5,0.5V62z M62.5,62
		c0,0.275-0.225,0.5-0.5,0.5s-0.5-0.225-0.5-0.5V52c0-0.275,0.225-0.5,0.5-0.5s0.5,0.225,0.5,0.5V62z M66.5,62
		c0,0.275-0.225,0.5-0.5,0.5s-0.5-0.225-0.5-0.5V52c0-0.275,0.225-0.5,0.5-0.5s0.5,0.225,0.5,0.5V62z M71,43.5h-5V43
		c0-1.104-0.897-2-2-2h-4c-1.103,0-2,0.896-2,2v0.5h-5c-0.827,0-1.5,0.673-1.5,1.5v1c0,0.276,0.224,0.5,0.5,0.5h20
		c0.276,0,0.5-0.224,0.5-0.5v-1C72.5,44.173,71.827,43.5,71,43.5z"/>
	<linearGradient id="SVGID_3_" gradientUnits="userSpaceOnUse" x1="51.5" y1="66" x2="51.5" y2="34.0005">
		<stop  offset="0" style="stop-color:#D0CBC5"/>
		<stop  offset="0.5031" style="stop-color:#FAFCEF"/>
		<stop  offset="0.9693" style="stop-color:#FFFFFF"/>
		<stop  offset="1" style="stop-color:#FFFFFF"/>
	</linearGradient>
	<path fill="url(#SVGID_3_)" d="M31,38.5v-3c0-0.824,0.676-1.5,1.501-1.5H63.5c0.825,0,1.5,0.676,1.5,1.5v3
		c0,0.052-0.01,0.1-0.016,0.15C64.671,38.559,64.343,38.5,64,38.5h-4c-1.188,0-2.237,0.594-2.871,1.5H32.501
		C31.676,40,31,39.324,31,38.5z M51.471,56h-18.97C31.676,56,31,56.676,31,57.5v3c0,0.824,0.676,1.5,1.501,1.5h19.286L51.471,56z
		 M32.501,51h18.707l-0.205-3.895c-0.007-0.123-0.002-0.244,0.014-0.363C50.409,46.398,50,45.747,50,45H32.501
		C31.676,45,31,45.676,31,46.5v3C31,50.324,31.676,51,32.501,51z M53,47h18l-1,19H54L53,47z M65,61c0,0.553,0.447,1,1,1s1-0.447,1-1
		V51c0-0.553-0.447-1-1-1s-1,0.447-1,1V61z M61,61c0,0.553,0.447,1,1,1s1-0.447,1-1V51c0-0.553-0.447-1-1-1s-1,0.447-1,1V61z M57,61
		c0,0.553,0.447,1,1,1s1-0.447,1-1V51c0-0.553-0.447-1-1-1s-1,0.447-1,1V61z M72,44v1H52v-1c0-0.552,0.447-1,1-1h5.5v-1
		c0-0.826,0.674-1.5,1.5-1.5h4c0.828,0,1.5,0.674,1.5,1.5v1H71C71.551,43,72,43.448,72,44z M64,42h-4v1h4V42z"/>
	<linearGradient id="SVGID_4_" gradientUnits="userSpaceOnUse" x1="51.5" y1="66" x2="51.5" y2="37.5005">
		<stop  offset="0" style="stop-color:#000000"/>
		<stop  offset="1" style="stop-color:#000000;stop-opacity:0"/>
	</linearGradient>
	<path fill="url(#SVGID_4_)" fill-opacity="0.06" d="M31,38.5v-1c0,0.824,0.676,1.5,1.501,1.5h24.628
		c0.634-0.906,1.684-1.5,2.871-1.5h4c0.343,0,0.671,0.059,0.984,0.15C64.99,37.6,65,37.552,65,37.5v1c0,0.052-0.01,0.1-0.016,0.15
		C64.671,38.559,64.343,38.5,64,38.5h-4c-1.188,0-2.237,0.594-2.871,1.5H32.501C31.676,40,31,39.324,31,38.5z M32.501,61
		C31.676,61,31,60.324,31,59.5v1c0,0.824,0.676,1.5,1.501,1.5h19.286l-0.053-1H32.501z M32.501,51h18.707l-0.053-1H32.501
		C31.676,50,31,49.324,31,48.5v1C31,50.324,31.676,51,32.501,51z M60,41v1h4v-1H60z M62,49c-0.553,0-1,0.447-1,1v1
		c0-0.553,0.447-1,1-1s1,0.447,1,1v-1C63,49.447,62.553,49,62,49z M70,65H54l-0.947-18H53l1,19h16l1-19h-0.053L70,65z M52,45h20v-1
		H52V45z M58,49c-0.553,0-1,0.447-1,1v1c0-0.553,0.447-1,1-1s1,0.447,1,1v-1C59,49.447,58.553,49,58,49z M66,49
		c-0.553,0-1,0.447-1,1v1c0-0.553,0.447-1,1-1s1,0.447,1,1v-1C67,49.447,66.553,49,66,49z"/>
	<path fill="#FFFFFF" d="M61,62v-1c0,0.553,0.447,1,1,1s1-0.447,1-1v1c0,0.553-0.447,1-1,1S61,62.553,61,62z M66,63
		c0.553,0,1-0.447,1-1v-1c0,0.553-0.447,1-1,1s-1-0.447-1-1v1C65,62.553,65.447,63,66,63z M58,63c0.553,0,1-0.447,1-1v-1
		c0,0.553-0.447,1-1,1s-1-0.447-1-1v1C57,62.553,57.447,63,58,63z M32.501,56C31.676,56,31,56.676,31,57.5v1
		c0-0.824,0.676-1.5,1.501-1.5h18.97l0.264,5h0.053l-0.316-6H32.501z M32.501,46H50c0,0.747,0.409,1.398,1.017,1.742
		c-0.016,0.119-0.021,0.24-0.014,0.363L51.155,51h0.053l-0.205-3.895c-0.007-0.123-0.002-0.244,0.014-0.363
		C50.409,46.398,50,45.747,50,45H32.501C31.676,45,31,45.676,31,46.5v1C31,46.676,31.676,46,32.501,46z M32.501,35H63.5
		c0.825,0,1.5,0.676,1.5,1.5v-1c0-0.824-0.675-1.5-1.5-1.5H32.501C31.676,34,31,34.676,31,35.5v1C31,35.676,31.676,35,32.501,35z
		 M64,40.5h-4c-0.826,0-1.5,0.674-1.5,1.5v1c0-0.826,0.674-1.5,1.5-1.5h4c0.828,0,1.5,0.674,1.5,1.5v-1
		C65.5,41.174,64.828,40.5,64,40.5z M53.053,48h17.895L71,47H53L53.053,48z M71,43h-5.5v1H71c0.551,0,1,0.448,1,1v-1
		C72,43.448,71.551,43,71,43z M64,44v-1h-4v1H64z M52,44v1c0-0.552,0.447-1,1-1h5.5v-1H53C52.447,43,52,43.448,52,44z"/>
</g>
</svg>
