<?xml version="1.0" encoding="utf-8"?>
<!-- Generator: Adobe Illustrator 15.0.2, SVG Export Plug-In . SVG Version: 6.00 Build 0)  -->
<!DOCTYPE svg PUBLIC "-//W3C//DTD SVG 1.1//EN" "http://www.w3.org/Graphics/SVG/1.1/DTD/svg11.dtd">
<svg version="1.1" id="Layer_1" xmlns="http://www.w3.org/2000/svg" xmlns:xlink="http://www.w3.org/1999/xlink" x="0px" y="0px"
	 width="96px" height="96px" viewBox="0 0 96 96" enable-background="new 0 0 96 96" xml:space="preserve">
<g>
	<path fill-opacity="0.4" d="M88,49c0,29.635-10.363,40-40,40C18.365,89,8,78.631,8,49C8,19.366,18.365,9,48,9
		C77.637,9,88,19.366,88,49z"/>
	<path d="M88,48c0,29.631-10.363,40-40,40C18.365,88,8,77.631,8,48C8,18.366,18.365,8,48,8C77.637,8,88,18.366,88,48z"/>
	<rect fill="none" width="96" height="96"/>
	
		<linearGradient id="SVGID_1_" gradientUnits="userSpaceOnUse" x1="-182.522" y1="-511.2529" x2="-182.5221" y2="-590.4986" gradientTransform="matrix(1 0 0 -1 230.5 -503)">
		<stop  offset="0" style="stop-color:#FFFFFF"/>
		<stop  offset="1" style="stop-color:#FFFFFF;stop-opacity:0"/>
	</linearGradient>
	<path fill="url(#SVGID_1_)" fill-opacity="0.25" d="M47.979,8C18.357,8,8,18.366,8,48c0,29.631,10.357,40,39.979,40
		c29.617,0,39.977-10.365,39.977-40C87.953,18.366,77.596,8,47.979,8z M47.979,87C18.836,87,9,77.158,9,48S18.836,9,47.979,9
		c29.141,0,38.978,9.842,38.978,39C86.954,77.158,77.116,87,47.979,87z"/>
	
		<linearGradient id="SVGID_2_" gradientUnits="userSpaceOnUse" x1="-182.4995" y1="-511.5449" x2="-182.4995" y2="-592.2403" gradientTransform="matrix(1 0 0 -1 230.5 -503)">
		<stop  offset="0" style="stop-color:#FFFFFF"/>
		<stop  offset="1" style="stop-color:#FFFFFF;stop-opacity:0.2"/>
	</linearGradient>
	<path fill="url(#SVGID_2_)" fill-opacity="0.15" d="M88,48c0,29.631-10.363,40-40,40C18.365,88,8,77.631,8,48
		C8,18.366,18.365,8,48,8C77.637,8,88,18.366,88,48z"/>
	<path opacity="0.05" d="M72.549,66.104v-7.226c0-0.411-0.098-0.807-0.285-1.162c0.201-0.365,0.307-0.775,0.307-1.203v-7.348
		c0-1.006-0.207-1.989-0.616-2.924c-0.396-0.902-0.982-1.748-1.741-2.508c-0.812-0.834-1.814-1.464-2.984-1.874
		c-1.064-0.369-2.265-0.556-3.566-0.556c-1.378,0-2.636,0.214-3.738,0.635c-1.189,0.452-2.214,1.154-3.046,2.086
		c-0.035,0.04-0.07,0.081-0.105,0.121c-0.304-0.36-0.639-0.709-1-1.043c-0.763-0.708-1.683-1.234-2.734-1.562
		c-0.676-0.212-1.425-0.349-2.233-0.408c0.389-0.462,0.729-0.948,1.016-1.45c0.436-0.758,0.764-1.573,0.974-2.418
		c0.052-0.204,0.095-0.406,0.12-0.549c0.04-0.199,0.069-0.394,0.1-0.671c0-0.001,0.008-0.067,0.01-0.137
		c0.011-0.069,0.02-0.14,0.019-0.209c0.025-0.161,0.038-0.324,0.038-0.489V35c0-1.349-0.204-2.571-0.607-3.634
		c-0.44-1.157-1.118-2.156-2.025-2.979c-0.759-0.645-1.561-1.171-2.383-1.564c-0.888-0.425-1.819-0.7-2.811-0.834
		c-0.162-0.033-0.328-0.051-0.518-0.051c-0.003,0-0.116,0.005-0.116,0.005c-0.129-0.021-0.261-0.031-0.393-0.031h-0.234
		c-1.127,0-2.22,0.202-3.25,0.602c-1.007,0.393-1.969,0.983-2.862,1.759c-0.917,0.819-1.621,1.791-2.094,2.887
		c-0.473,1.093-0.702,2.281-0.701,3.631c0,0.616,0.049,1.223,0.145,1.81c-0.575-0.021-1.076-0.09-1.496-0.208
		c-0.39-0.106-0.708-0.255-0.945-0.442c-0.377-0.3-0.696-0.605-0.95-0.908c-0.22-0.263-0.378-0.521-0.537-0.883
		c-0.041-0.083-0.078-0.166-0.098-0.214c-0.029-0.074-0.051-0.149-0.124-0.373c-0.024-0.125-0.078-0.376-0.099-0.419
		c-0.028-0.147-0.048-0.284-0.058-0.419c-0.013-0.151-0.017-0.283-0.017-0.399c0-0.499,0.095-0.989,0.282-1.459
		c0.202-0.508,0.512-1.011,0.921-1.492c0.365-0.427,0.83-0.769,1.381-1.015c0.613-0.273,1.426-0.497,2.106-0.595h2.066
		c1.378,0,2.5-1.122,2.5-2.5V23c0-0.668-0.274-1.319-0.751-1.787c-0.47-0.46-1.091-0.713-1.749-0.713c-1.583,0-2.306,0-2.667,0.053
		c-0.257,0-0.521,0.013-0.821,0.038c-0.348,0.032-0.549,0.063-0.602,0.082c-0.331,0.028-0.663,0.087-0.95,0.167
		c-0.284,0.071-0.563,0.16-0.724,0.218c-1.055,0.329-2.078,0.817-3.042,1.453c-0.931,0.615-1.83,1.385-2.671,2.288
		c-0.922,0.989-1.623,2.117-2.082,3.353c-0.459,1.227-0.682,2.526-0.682,3.974c0,1.553,0.229,3.02,0.681,4.359
		c0.466,1.371,1.172,2.625,2.098,3.726c0.488,0.585,1.037,1.106,1.641,1.558c-0.863,0.307-1.648,0.779-2.335,1.405
		c-0.69,0.638-1.214,1.362-1.559,2.152c-0.356,0.812-0.527,1.661-0.522,2.593v8.597c0,1.379,1.122,2.5,2.5,2.5h2.276
		c1.249,0,2.287-0.92,2.471-2.118c0.185,1.198,1.222,2.118,2.471,2.118h2.246c1.097,0,2.031-0.71,2.367-1.694
		c0.335,0.984,1.27,1.694,2.367,1.694l0.854-0.001v3.072c0,1.379,1.122,2.5,2.5,2.5h1.895v6.845c0,1.379,1.122,2.5,2.5,2.5h2.274
		c1.379,0,2.5-1.122,2.5-2.503l-0.02-7.232c0.022-0.178,0.066-0.348,0.13-0.504c0.051-0.121,0.128-0.245,0.227-0.375
		c0.001,0,0.068-0.027,0.249-0.027c0.072,0,0.128,0.004,0.165,0.008c0.065,0.101,0.114,0.205,0.146,0.313
		c0.043,0.14,0.063,0.278,0.063,0.422v7.398c0,1.379,1.121,2.5,2.5,2.5h2.484c0.739,0,1.431-0.325,1.899-0.874
		c0.152,0.086,0.306,0.167,0.46,0.243c0.07,0.035,0.141,0.069,0.213,0.103V77c0,1.379,1.121,2.5,2.5,2.5h2.248
		c1.379,0,2.5-1.121,2.5-2.5v-3.513c0.195-0.087,0.386-0.182,0.571-0.284c0.845-0.475,1.536-1.094,2.047-1.827
		c0.504-0.678,0.887-1.401,1.138-2.151c0.24-0.723,0.375-1.491,0.402-2.3v-0.489C72.574,66.305,72.565,66.194,72.549,66.104z
		 M63.339,51.983c-0.003,0-0.005,0-0.006,0.001c-0.181-0.022-0.362-0.075-0.542-0.16c-0.207-0.096-0.446-0.245-0.604-0.372
		c-0.087-0.08-0.154-0.185-0.203-0.314c-0.081-0.221-0.136-0.544-0.14-0.783c0.021-0.306,0.066-0.562,0.137-0.768
		c0.057-0.167,0.107-0.238,0.12-0.254c0.135-0.166,0.275-0.31,0.42-0.429c0.077-0.064,0.146-0.115,0.456-0.263
		c0.031-0.01,0.063-0.012,0.223-0.037c0.084-0.019,0.162-0.035,0.212-0.042l0.072-0.007c0.491,0,0.903,0.048,1.189,0.14
		c0.033,0.011,0.142,0.048,0.171,0.082c0.089,0.098,0.161,0.207,0.194,0.287c0.02,0.052,0.036,0.104,0.051,0.154l-0.004,0.08v1.708
		c-0.024,0.022-0.212,0.207-0.212,0.207c-0.133,0.115-0.215,0.191-0.269,0.249c-0.088,0.074-0.175,0.153-0.234,0.221
		c-0.116,0.077-0.191,0.14-0.241,0.188l-0.029,0.021c-0.078,0.033-0.18,0.077-0.21,0.093c-0.075,0.012-0.156,0.014-0.352,0.019
		C63.445,51.99,63.362,51.983,63.339,51.983z M64.312,59.184c0.16-0.012,0.315-0.027,0.466-0.046
		c0.098-0.012,0.192-0.024,0.286-0.039v7.232c0,0.156-0.02,0.299-0.06,0.426c-0.017,0.055-0.037,0.107-0.059,0.158
		c-0.015,0.001-0.03,0.001-0.048,0.001c-0.195,0-0.338-0.014-0.439-0.029c-0.019-0.042-0.035-0.083-0.047-0.122
		c-0.044-0.141-0.067-0.3-0.077-0.515c-0.005-0.06-0.013-0.113-0.022-0.163V59.184z M56.551,56.63
		c0.063-0.071,0.126-0.144,0.187-0.216c0.085,0.099,0.174,0.196,0.265,0.293c0.09,0.093,0.181,0.183,0.273,0.271
		c-0.22-0.119-0.446-0.229-0.679-0.329C56.581,56.643,56.566,56.636,56.551,56.63z M45.425,36.209
		c-0.042,0.126-0.083,0.197-0.076,0.197c0.001,0,0.002,0,0.003-0.001c-0.165,0.128-0.353,0.228-0.556,0.294
		c-0.237,0.076-0.507,0.114-0.805,0.114c-0.292,0-0.544-0.031-0.731-0.077c-0.156-0.185-0.292-0.388-0.406-0.604
		c-0.056-0.105-0.106-0.22-0.161-0.344c-0.025-0.171-0.056-0.336-0.095-0.511c-0.01-0.046-0.019-0.094-0.03-0.179l-0.007-0.511
		l0.047-0.209c0.03-0.176,0.086-0.347,0.171-0.524c0.083-0.175,0.192-0.331,0.436-0.569c0.101-0.037,0.335-0.098,0.773-0.098
		c0.355,0,0.657,0.044,0.894,0.132c0.207,0.077,0.297,0.157,0.32,0.18c0.116,0.127,0.208,0.284,0.272,0.466
		c0.08,0.227,0.121,0.505,0.121,0.827C45.597,35.377,45.538,35.868,45.425,36.209z M51.034,51.766
		c-0.049,0.062-0.085,0.09-0.157,0.12c-0.189,0.075-0.479,0.117-0.824,0.117l-0.182,0.014c-0.121-0.021-0.235-0.032-0.315-0.032
		c-0.001,0-0.199-0.037-0.199-0.037c-0.062-0.013-0.124-0.032-0.222-0.062c-0.106-0.034-0.215-0.073-0.369-0.136
		c-0.113-0.043-0.239-0.101-0.386-0.174c-0.04-0.02-0.081-0.04-0.123-0.062v-0.905c0-0.376,0.036-0.714,0.1-0.948
		c0.043-0.154,0.098-0.269,0.186-0.38c0.153-0.205,0.312-0.38,0.47-0.519c0.127-0.111,0.253-0.198,0.375-0.26
		c0.061-0.03,0.121-0.057,0.109-0.057c0,0,0,0-0.001,0c0.052-0.012,0.301-0.061,0.364-0.07c0.18,0,0.351,0.033,0.517,0.1
		c0.212,0.087,0.433,0.229,0.653,0.424c0.147,0.131,0.249,0.272,0.32,0.444c0.094,0.231,0.142,0.516,0.142,0.846
		c0,0.349-0.043,0.658-0.126,0.917C51.285,51.354,51.171,51.578,51.034,51.766z"/>
	<path opacity="0.07" d="M72.049,66.161v-7.282c0-0.426-0.133-0.832-0.376-1.168c0.257-0.341,0.397-0.758,0.397-1.197v-7.348
		c0-0.937-0.193-1.853-0.574-2.724c-0.37-0.845-0.924-1.641-1.642-2.36c-0.757-0.778-1.694-1.367-2.789-1.75
		c-1.013-0.351-2.158-0.528-3.403-0.528c-1.316,0-2.515,0.203-3.561,0.603c-1.113,0.423-2.072,1.079-2.85,1.951
		c-0.169,0.19-0.329,0.387-0.48,0.59c-0.381-0.511-0.83-1.008-1.339-1.479c-0.707-0.657-1.562-1.145-2.544-1.451
		c-0.885-0.278-1.903-0.418-3.029-0.418h-0.173c0.047-0.046,0.094-0.093,0.14-0.141c0.626-0.625,1.151-1.307,1.561-2.025
		c0.413-0.719,0.724-1.492,0.923-2.294c0.049-0.19,0.089-0.379,0.114-0.522c0.037-0.187,0.064-0.369,0.094-0.633
		c0.003-0.024,0.008-0.11,0.007-0.119c0.013-0.086,0.023-0.179,0.015-0.19c0.027-0.153,0.041-0.309,0.041-0.467V35
		c0-1.289-0.193-2.451-0.574-3.456c-0.413-1.083-1.042-2.014-1.882-2.776c-0.727-0.617-1.492-1.12-2.276-1.494
		c-0.835-0.4-1.704-0.66-2.696-0.795c-0.132-0.027-0.268-0.041-0.401-0.041l-0.16,0.008c-0.119-0.022-0.241-0.033-0.364-0.033
		h-0.234c-1.065,0-2.097,0.191-3.068,0.567c-0.954,0.372-1.864,0.931-2.71,1.667c-0.862,0.77-1.524,1.683-1.968,2.712
		c-0.445,1.03-0.661,2.153-0.66,3.433c0,0.802,0.085,1.58,0.254,2.32c-0.045,0.002-0.088,0.005-0.128,0.009
		c-0.037-0.009-0.075-0.013-0.114-0.013c-0.777,0-1.447-0.078-1.994-0.231c-0.456-0.124-0.834-0.304-1.125-0.534
		c-0.403-0.321-0.746-0.649-1.021-0.978c-0.25-0.298-0.433-0.595-0.603-0.984c-0.046-0.094-0.087-0.187-0.114-0.251
		c-0.032-0.082-0.058-0.165-0.124-0.382c-0.007-0.022-0.017-0.052-0.026-0.079c-0.021-0.107-0.063-0.321-0.098-0.418
		c-0.032-0.167-0.054-0.322-0.066-0.473c-0.014-0.167-0.019-0.312-0.019-0.44c0-0.562,0.106-1.115,0.317-1.643
		c0.222-0.561,0.561-1.11,1.006-1.633c0.414-0.484,0.938-0.87,1.557-1.147c0.668-0.298,1.534-0.532,2.31-0.638h2.066
		c1.103,0,2-0.897,2-2V23c0-0.534-0.219-1.055-0.601-1.429C38.688,21.203,38.191,21,37.665,21c-1.513,0-2.272,0-2.667,0.053
		c-0.244,0-0.495,0.012-0.775,0.036c-0.311,0.029-0.491,0.055-0.605,0.082c-0.299,0.026-0.603,0.079-0.872,0.153
		c-0.266,0.066-0.526,0.15-0.696,0.211c-1.011,0.315-1.991,0.783-2.915,1.392c-0.899,0.594-1.767,1.338-2.581,2.212
		c-0.877,0.94-1.543,2.013-1.979,3.187c-0.438,1.169-0.65,2.412-0.65,3.799c0,1.499,0.22,2.911,0.655,4.199
		c0.445,1.311,1.121,2.511,2.008,3.566c0.695,0.833,1.517,1.527,2.449,2.069c-0.334,0.065-0.657,0.152-0.966,0.26
		c-0.823,0.284-1.57,0.728-2.222,1.322c-0.639,0.59-1.124,1.259-1.44,1.985c-0.327,0.746-0.484,1.529-0.48,2.392v8.597
		c0,1.103,0.897,2,2,2h2.276c1.103,0,2-0.897,2-2v-7.635c0-0.195,0.021-0.382,0.059-0.55c0.032-0.132,0.076-0.259,0.126-0.371
		c0.084-0.034,0.213-0.073,0.273-0.086c0.16,0,0.235,0.026,0.26,0.045c0.07,0.093,0.121,0.192,0.159,0.312
		c0.042,0.135,0.064,0.292,0.064,0.467v7.817c0,1.103,0.897,2,2,2h2.246c1.103,0,2-0.897,2-2l0.003-8.004
		c0.006-0.027,0.012-0.056,0.018-0.087c0.014-0.075,0.041-0.153,0.082-0.231c0.036-0.07,0.096-0.146,0.18-0.23
		c0.051-0.052,0.079-0.066,0.182-0.093c0.091,0.083,0.171,0.169,0.233,0.253l0.006,0.01c0.011,0.067,0.024,0.129,0.037,0.183
		c-0.005,0.058-0.007,0.115-0.007,0.172v8.029c0,1.103,0.897,2,2,2l1.355-0.001v3.572c0,1.103,0.897,2,2,2h2.276
		c0.04,0,0.08-0.001,0.119-0.004v7.349c0,1.103,0.897,2,2,2h2.274c1.103,0,2-0.897,2-2.002l-0.016-7.297
		c0.028-0.222,0.084-0.435,0.164-0.631c0.07-0.171,0.174-0.337,0.309-0.498c0.057-0.068,0.118-0.117,0.182-0.146
		c0.072-0.031,0.208-0.068,0.447-0.068c0.292,0,0.417,0.052,0.436,0.061c0.036,0.018,0.051,0.024,0.114,0.123
		c0.106,0.153,0.188,0.32,0.24,0.492c0.058,0.189,0.085,0.375,0.085,0.567v7.398c0,1.103,0.897,2,2,2h2.484
		c0.751,0,1.414-0.416,1.755-1.04c0.271,0.168,0.547,0.323,0.828,0.462c0.158,0.079,0.322,0.154,0.489,0.226V77c0,1.103,0.897,2,2,2
		h2.248c1.103,0,2-0.897,2-2v-3.845c0.288-0.113,0.564-0.243,0.826-0.388c0.778-0.438,1.418-1.011,1.891-1.689
		c0.474-0.638,0.831-1.314,1.064-2.011c0.225-0.677,0.352-1.393,0.377-2.143v-0.489C72.074,66.315,72.062,66.193,72.049,66.161z
		 M61.515,51.31c-0.103-0.28-0.165-0.664-0.169-0.989c0.023-0.347,0.077-0.646,0.162-0.894c0.074-0.22,0.153-0.344,0.206-0.409
		c0.156-0.192,0.32-0.359,0.488-0.498c0.115-0.096,0.224-0.169,0.501-0.297c0.043-0.023,0.087-0.044,0.122-0.057
		c0.057-0.018,0.112-0.025,0.269-0.05c0.101-0.022,0.193-0.041,0.253-0.049c0.047-0.006,0.093-0.012,0.138-0.012
		c0.55,0,1.003,0.056,1.344,0.165c0.239,0.078,0.324,0.148,0.388,0.222c0.131,0.145,0.231,0.301,0.29,0.444
		c0.04,0.104,0.068,0.209,0.087,0.274c0,0-0.007,0.115-0.007,0.139v1.943c-0.079,0.059-0.153,0.122-0.221,0.189l-0.164,0.16
		c-0.15,0.13-0.239,0.218-0.244,0.229c-0.091,0.074-0.184,0.157-0.31,0.279c-0.093,0.062-0.172,0.125-0.194,0.157
		c-0.039,0.023-0.073,0.048-0.104,0.071c-0.085,0.036-0.248,0.106-0.386,0.15c-0.101,0.015-0.21,0.019-0.399,0.02l-0.057,0.004
		c-0.098-0.015-0.189-0.021-0.234-0.022c-0.233-0.028-0.465-0.096-0.691-0.202c-0.249-0.115-0.523-0.288-0.73-0.457
		C61.703,51.687,61.593,51.518,61.515,51.31z M65.564,58.879v7.452c0,0.208-0.027,0.399-0.082,0.573
		c-0.052,0.168-0.13,0.33-0.193,0.458c-0.029,0.013-0.144,0.054-0.391,0.054c-0.417,0-0.646-0.054-0.771-0.096
		c-0.088-0.139-0.152-0.276-0.194-0.409c-0.056-0.182-0.087-0.381-0.098-0.624c-0.006-0.079-0.016-0.157-0.022-0.157
		c0,0-0.001,0-0.001,0.001V58.88c0-0.057-0.002-0.112-0.007-0.168c0.325-0.013,0.627-0.035,0.912-0.07
		c0.311-0.038,0.593-0.087,0.885-0.156C65.577,58.613,65.564,58.745,65.564,58.879z M57.649,57.791
		c-0.383-0.261-0.799-0.489-1.245-0.681c-0.256-0.106-0.506-0.193-0.752-0.265c0.404-0.392,0.767-0.806,1.08-1.236
		c0.193,0.261,0.403,0.511,0.629,0.75c0.291,0.301,0.598,0.575,0.917,0.819C58.027,57.334,57.812,57.543,57.649,57.791z
		 M51.431,52.069c-0.103,0.134-0.21,0.216-0.368,0.28c-0.251,0.101-0.593,0.153-0.999,0.153l-0.281,0.006
		c-0.087-0.016-0.169-0.024-0.227-0.024c-0.015,0-0.028,0.001-0.04,0.002l-0.257-0.049c-0.078-0.016-0.158-0.04-0.275-0.075
		c-0.117-0.037-0.236-0.08-0.396-0.145c-0.126-0.048-0.267-0.112-0.428-0.192c-0.125-0.062-0.259-0.133-0.403-0.215v-1.201
		c0-0.425,0.041-0.801,0.118-1.083c0.06-0.214,0.145-0.389,0.266-0.544c0.174-0.233,0.356-0.434,0.542-0.596
		c0.157-0.138,0.319-0.25,0.48-0.331c0.077-0.039,0.154-0.073,0.212-0.095c0.032-0.009,0.35-0.071,0.392-0.077
		c0.031-0.004,0.062-0.007,0.093-0.007c0.245,0,0.478,0.045,0.706,0.137c0.265,0.108,0.532,0.281,0.795,0.513
		c0.203,0.18,0.352,0.386,0.452,0.63c0.118,0.29,0.179,0.638,0.179,1.034c0,0.4-0.051,0.762-0.15,1.072
		C51.744,51.559,51.605,51.832,51.431,52.069z M48,58.621c-0.049,0.049-0.097,0.098-0.146,0.147
		c-0.033,0.037-0.066,0.074-0.098,0.111v-0.326C47.839,58.577,47.92,58.6,48,58.621z M42.429,43.392
		c0.613,0.095,1.266,0.144,1.956,0.144c0.039,0,0.077,0,0.115,0c-0.354,0.286-0.696,0.604-1.025,0.953
		C43.184,44.08,42.833,43.712,42.429,43.392z M45.948,33.799c0.099,0.28,0.149,0.615,0.149,0.993c0,0.647-0.067,1.178-0.198,1.576
		c-0.082,0.244-0.177,0.382-0.239,0.431c-0.211,0.165-0.451,0.292-0.712,0.377c-0.285,0.091-0.607,0.137-0.957,0.137
		c-0.357,0-0.656-0.04-0.862-0.114c-0.136-0.049-0.226-0.113-0.251-0.141c-0.18-0.213-0.336-0.446-0.466-0.693
		c-0.105-0.198-0.195-0.427-0.206-0.447c-0.024-0.181-0.056-0.353-0.097-0.537c-0.012-0.057-0.023-0.115-0.041-0.278l-0.007-0.569
		l0.055-0.242c0.038-0.222,0.107-0.436,0.213-0.655c0.104-0.218,0.237-0.412,0.441-0.64c0.069-0.082,0.159-0.141,0.276-0.185
		c0.231-0.083,0.558-0.127,0.943-0.127c0.416,0,0.775,0.055,1.067,0.163c0.224,0.083,0.4,0.19,0.515,0.312
		C45.736,33.339,45.861,33.553,45.948,33.799z"/>
	<path opacity="0.1" d="M71.549,66.161v-7.282c0-0.475-0.222-0.899-0.567-1.174c0.357-0.274,0.589-0.707,0.589-1.191v-7.348
		c0-0.866-0.179-1.715-0.532-2.523c-0.346-0.789-0.866-1.534-1.542-2.212c-0.702-0.722-1.574-1.269-2.594-1.626
		c-0.961-0.333-2.051-0.501-3.24-0.501c-1.256,0-2.394,0.192-3.383,0.57c-1.038,0.394-1.931,1.005-2.653,1.816
		c-0.32,0.36-0.605,0.743-0.854,1.144c-0.083-0.133-0.17-0.265-0.262-0.393c-0.391-0.555-0.868-1.096-1.418-1.605
		c-0.651-0.605-1.443-1.056-2.354-1.34c-0.837-0.263-1.806-0.396-2.88-0.396h-0.221c-0.171,0-0.285,0.013-0.361,0.028
		c-0.105,0.004-0.202,0.012-0.279,0.022c-0.113,0.014-0.189,0.027-0.242,0.039c-0.2,0.022-0.401,0.058-0.606,0.103
		c-0.209,0.046-0.415,0.103-0.587,0.16c-0.709,0.218-1.385,0.532-2.008,0.934c-0.617,0.399-1.209,0.902-1.761,1.493
		c-0.135,0.145-0.264,0.297-0.385,0.455c-0.016-0.031-0.033-0.062-0.05-0.094c-0.342-0.62-0.827-1.161-1.431-1.601
		c-0.594-0.456-1.242-0.796-1.926-1.011c-0.407-0.129-0.819-0.218-1.246-0.269c0.2-0.213,0.34-0.484,0.389-0.785
		c0.489,0.362,1.038,0.658,1.642,0.884c1.025,0.383,2.235,0.578,3.598,0.578c1.004,0,1.94-0.152,2.783-0.452
		c0.897-0.323,1.675-0.823,2.305-1.478c0.595-0.594,1.093-1.241,1.48-1.92c0.392-0.681,0.685-1.413,0.872-2.168
		c0.045-0.176,0.083-0.352,0.108-0.499c0.035-0.173,0.06-0.343,0.088-0.598c0.003-0.022,0.007-0.116,0.007-0.116
		c0.01-0.065,0.02-0.139,0.019-0.217c0.022-0.124,0.033-0.25,0.033-0.378V35c0-1.227-0.182-2.33-0.541-3.278
		c-0.385-1.009-0.965-1.871-1.738-2.573c-0.695-0.59-1.425-1.069-2.168-1.424c-0.789-0.377-1.607-0.623-2.51-0.751
		c-0.015-0.002-0.041-0.004-0.07-0.005c-0.1-0.021-0.201-0.031-0.301-0.031H44.5c-0.089-0.017-0.181-0.025-0.272-0.025h-0.234
		c-1.003,0-1.974,0.179-2.886,0.533c-0.899,0.351-1.759,0.879-2.559,1.574c-0.807,0.721-1.427,1.575-1.842,2.538
		c-0.417,0.966-0.62,2.024-0.619,3.234c0,0.98,0.133,1.919,0.396,2.794c-0.398,0.012-0.682,0.024-0.884,0.047v-0.025
		c-0.823,0-1.537-0.083-2.125-0.249c-0.521-0.142-0.961-0.353-1.305-0.625c-0.43-0.342-0.797-0.694-1.093-1.048
		c-0.279-0.333-0.488-0.67-0.668-1.085c-0.051-0.104-0.098-0.208-0.131-0.289c-0.036-0.091-0.065-0.183-0.128-0.394
		c-0.006-0.018-0.034-0.107-0.041-0.125c-0.014-0.075-0.057-0.302-0.104-0.449c-0.036-0.187-0.061-0.36-0.073-0.526
		c-0.015-0.183-0.021-0.342-0.021-0.482c0-0.626,0.119-1.241,0.353-1.828c0.242-0.61,0.609-1.208,1.091-1.773
		c0.463-0.542,1.046-0.972,1.733-1.279c0.727-0.324,1.641-0.567,2.513-0.682h2.066c0.827,0,1.5-0.673,1.5-1.5V23
		c0-0.4-0.164-0.791-0.451-1.072c-0.282-0.276-0.655-0.428-1.049-0.428c-1.456,0-2.242,0-2.667,0.054v-0.001
		c-0.23,0-0.468,0.012-0.728,0.033c-0.275,0.026-0.545,0.065-0.562,0.079c-0.285,0.021-0.579,0.072-0.841,0.144
		c-0.248,0.062-0.491,0.14-0.668,0.204c-0.966,0.301-1.903,0.749-2.788,1.332c-0.867,0.573-1.705,1.292-2.491,2.136
		c-0.832,0.892-1.463,1.909-1.876,3.021c-0.417,1.112-0.619,2.298-0.619,3.624c0,1.444,0.211,2.803,0.628,4.038
		c0.425,1.251,1.07,2.398,1.918,3.407c0.871,1.044,1.951,1.856,3.21,2.413c0.283,0.125,0.575,0.236,0.877,0.333
		c-0.13-0.005-0.263-0.008-0.399-0.008c-0.878,0-1.695,0.129-2.426,0.384c-0.759,0.262-1.446,0.67-2.046,1.216
		c-0.588,0.543-1.033,1.156-1.322,1.819c-0.298,0.68-0.442,1.397-0.438,2.191v8.597c0,0.827,0.673,1.5,1.5,1.5h2.276
		c0.827,0,1.5-0.673,1.5-1.5v-7.635c0-0.232,0.025-0.458,0.073-0.667c0.05-0.208,0.125-0.406,0.218-0.584
		c0.006-0.011,0.023-0.042,0.111-0.089c0.142-0.075,0.384-0.141,0.556-0.166c0.189,0,0.344,0.027,0.464,0.081
		c0.078,0.034,0.133,0.08,0.194,0.162c0.104,0.138,0.182,0.289,0.237,0.463c0.058,0.184,0.088,0.392,0.088,0.618v7.817
		c0,0.827,0.673,1.5,1.5,1.5h2.246c0.827,0,1.5-0.673,1.5-1.5l0.003-8.064c0.01-0.037,0.018-0.075,0.026-0.115
		c0.022-0.125,0.066-0.251,0.13-0.374c0.06-0.116,0.149-0.233,0.269-0.352c0.087-0.088,0.169-0.146,0.267-0.186
		c0.081-0.034,0.178-0.052,0.288-0.052c0.06,0,0.113,0.009,0.156,0.025c0.065,0.026,0.115,0.057,0.165,0.102
		c0.116,0.106,0.219,0.218,0.3,0.329c0.029,0.041,0.054,0.081,0.08,0.125c0.018,0.136,0.042,0.252,0.065,0.321
		c-0.01,0.07-0.015,0.141-0.015,0.211v8.029c0,0.827,0.673,1.5,1.5,1.5c0.945,0,1.512-0.001,1.855-0.001v4.072
		c0,0.827,0.673,1.5,1.5,1.5h2.276c0.225,0,0.438-0.05,0.629-0.139c-0.006,0.123-0.01,0.247-0.01,0.372v7.611
		c0,0.827,0.673,1.5,1.5,1.5h2.274c0.827,0,1.5-0.673,1.5-1.501l-0.012-7.361c0.034-0.267,0.102-0.522,0.198-0.759
		c0.09-0.217,0.219-0.427,0.385-0.625c0.106-0.129,0.229-0.224,0.369-0.286c0.167-0.072,0.384-0.109,0.646-0.109
		c0.347,0,0.549,0.062,0.652,0.11c0.13,0.062,0.211,0.137,0.308,0.287c0.139,0.199,0.242,0.414,0.31,0.635
		c0.071,0.238,0.105,0.471,0.105,0.711v7.398c0,0.827,0.673,1.5,1.5,1.5h2.484c0.767,0,1.401-0.578,1.489-1.322
		c0.419,0.304,0.861,0.571,1.317,0.797c0.244,0.122,0.5,0.234,0.766,0.336V77c0,0.827,0.673,1.5,1.5,1.5h2.248
		c0.827,0,1.5-0.673,1.5-1.5v-4.194c0.387-0.131,0.749-0.29,1.081-0.474c0.712-0.4,1.299-0.927,1.734-1.552
		c0.442-0.597,0.775-1.226,0.991-1.87c0.21-0.632,0.328-1.294,0.352-1.985v-0.489C71.574,66.345,71.565,66.253,71.549,66.161z
		 M66.064,58.879v7.452c0,0.261-0.035,0.502-0.104,0.721c-0.066,0.215-0.166,0.422-0.294,0.613
		c-0.051,0.077-0.104,0.123-0.178,0.155c-0.144,0.062-0.348,0.096-0.59,0.096c-0.512,0-0.808-0.072-0.965-0.133
		c-0.139-0.053-0.16-0.089-0.192-0.141c-0.13-0.195-0.226-0.393-0.285-0.585c-0.068-0.223-0.107-0.465-0.119-0.733
		c-0.005-0.065-0.013-0.13-0.024-0.193V58.88c0-0.236-0.055-0.46-0.152-0.659h0.111c0.518,0,0.97-0.024,1.385-0.075
		c0.429-0.053,0.804-0.128,1.209-0.244c0.237-0.085,0.469-0.181,0.699-0.289c0.028,0.026,0.059,0.052,0.089,0.076
		C66.296,57.963,66.064,58.395,66.064,58.879z M57.858,58.571c-0.093-0.075-0.185-0.146-0.277-0.215
		c-0.414-0.309-0.872-0.571-1.367-0.784c-0.274-0.113-0.541-0.204-0.801-0.274c-0.242-0.064-0.482-0.116-0.712-0.156
		c-0.048-0.009-0.095-0.017-0.141-0.024c0.257-0.18,0.491-0.377,0.701-0.59c0.539-0.516,0.995-1.068,1.358-1.642
		c0.037-0.059,0.073-0.118,0.108-0.178c0.281,0.466,0.612,0.901,0.992,1.304c0.545,0.563,1.143,1.022,1.78,1.368h-0.175
		C58.604,57.38,58.001,57.892,57.858,58.571z M65.972,48.705c0.075,0.194,0.117,0.389,0.127,0.397
		c-0.004,0.033-0.013,0.163-0.013,0.196v2.219c-0.137,0.071-0.263,0.163-0.373,0.273l-0.185,0.179
		c-0.13,0.112-0.207,0.188-0.255,0.239c-0.09,0.073-0.182,0.156-0.312,0.285c-0.087,0.054-0.166,0.115-0.247,0.19
		c-0.065,0.04-0.117,0.074-0.113,0.081c-0.001,0-0.296,0.127-0.372,0.156c-0.067,0.027-0.127,0.044-0.193,0.053
		c-0.12,0.018-0.251,0.023-0.438,0.023l-0.114,0.008c-0.092-0.017-0.187-0.025-0.222-0.025c-0.005,0-0.009,0.001-0.011,0.001
		c-0.3-0.032-0.594-0.115-0.879-0.249c-0.29-0.134-0.603-0.332-0.859-0.542c-0.207-0.189-0.36-0.422-0.468-0.709
		c-0.125-0.342-0.195-0.778-0.198-1.194c0.026-0.391,0.089-0.732,0.188-1.02c0.079-0.235,0.178-0.425,0.292-0.565
		c0.177-0.217,0.363-0.408,0.556-0.567c0.166-0.138,0.317-0.231,0.579-0.35c0.071-0.04,0.144-0.073,0.209-0.095
		c0.076-0.025,0.151-0.039,0.317-0.063c0.116-0.025,0.223-0.047,0.299-0.057c0.068-0.008,0.134-0.015,0.198-0.015
		c0.603,0,1.106,0.064,1.498,0.189c0.281,0.091,0.465,0.2,0.604,0.363C65.76,48.299,65.89,48.503,65.972,48.705z M49.096,58.341
		c-0.306,0.226-0.596,0.479-0.869,0.762c-0.381,0.424-0.706,0.872-0.97,1.339v-2.569c0.387,0.13,0.732,0.233,1.065,0.316
		C48.589,58.25,48.844,58.3,49.096,58.341z M49.434,52.979c-0.004,0-0.271-0.052-0.271-0.052c-0.104-0.021-0.212-0.054-0.331-0.089
		c-0.128-0.041-0.259-0.088-0.422-0.154c-0.138-0.053-0.292-0.123-0.469-0.21c-0.183-0.09-0.382-0.199-0.604-0.332
		c-0.026-0.016-0.052-0.03-0.079-0.044v-1.489c0-0.475,0.046-0.887,0.137-1.218c0.077-0.275,0.191-0.51,0.347-0.708
		c0.197-0.264,0.403-0.489,0.613-0.673c0.189-0.166,0.387-0.302,0.586-0.402c0.093-0.046,0.186-0.087,0.269-0.119
		c0.044-0.017,0.092-0.025,0.264-0.056c0.085-0.021,0.166-0.037,0.228-0.046c0.054-0.007,0.107-0.012,0.16-0.012
		c0.31,0,0.604,0.058,0.896,0.174c0.314,0.129,0.63,0.332,0.936,0.6c0.262,0.231,0.453,0.499,0.584,0.815
		c0.144,0.352,0.216,0.764,0.216,1.224c0,0.451-0.059,0.864-0.175,1.226c-0.113,0.351-0.279,0.674-0.488,0.957
		c-0.156,0.205-0.335,0.342-0.58,0.441c-0.314,0.126-0.712,0.189-1.175,0.189l-0.334,0.007
		C49.643,52.989,49.549,52.979,49.434,52.979z M34.272,43.352c-0.187-0.146-0.385-0.28-0.592-0.399
		c-0.112-0.064-0.23-0.124-0.354-0.178c0.339,0.032,0.687,0.051,1.042,0.056h0.828c-0.13,0.059-0.256,0.122-0.378,0.19
		C34.621,43.13,34.44,43.24,34.272,43.352z M46.419,33.632c0.118,0.334,0.178,0.724,0.178,1.16c0,0.701-0.076,1.285-0.224,1.735
		c-0.104,0.309-0.244,0.54-0.405,0.666c-0.258,0.202-0.55,0.356-0.868,0.459c-0.334,0.107-0.708,0.161-1.109,0.161
		c-0.42,0-0.768-0.048-1.032-0.144c-0.197-0.071-0.361-0.175-0.463-0.288c-0.205-0.242-0.381-0.504-0.526-0.782
		c-0.117-0.222-0.223-0.485-0.259-0.615c-0.022-0.167-0.052-0.325-0.089-0.495c-0.015-0.069-0.029-0.14-0.043-0.253
		c-0.001-0.009-0.008-0.117-0.01-0.125l-0.008-0.629l0.063-0.273c0.046-0.268,0.129-0.524,0.254-0.786
		c0.124-0.258,0.283-0.493,0.511-0.747c0.125-0.147,0.286-0.256,0.488-0.332c0.289-0.104,0.664-0.157,1.113-0.157
		c0.475,0,0.893,0.065,1.241,0.194c0.3,0.111,0.535,0.259,0.71,0.443C46.15,33.051,46.311,33.322,46.419,33.632z"/>
	<path opacity="0.15" d="M27.355,39.25c0.822,0.985,1.841,1.75,3.028,2.275c1.164,0.513,2.502,0.784,3.985,0.805h3.296
		c0.551,0,1-0.449,1-1v-0.855c0.616,0.666,1.387,1.174,2.297,1.515c0.969,0.362,2.12,0.546,3.422,0.546
		c0.947,0,1.825-0.142,2.613-0.422c0.824-0.297,1.54-0.757,2.121-1.361c0.562-0.562,1.033-1.172,1.4-1.816
		c0.368-0.641,0.645-1.33,0.821-2.044c0.042-0.163,0.077-0.325,0.103-0.472c0.032-0.161,0.055-0.319,0.081-0.552
		c0.002-0.019,0.008-0.107,0.008-0.125c0.013-0.087,0.019-0.179,0.01-0.179c0.025-0.115,0.038-0.234,0.038-0.354V35
		c0-1.167-0.171-2.209-0.508-3.1c-0.356-0.934-0.889-1.728-1.595-2.37c-0.661-0.561-1.354-1.017-2.061-1.354
		c-0.743-0.355-1.514-0.586-2.359-0.707c-0.019-0.002-0.066-0.004-0.071-0.003c-0.077-0.019-0.156-0.028-0.235-0.028h-0.302
		c-0.073-0.017-0.147-0.025-0.222-0.025h-0.234c-0.941,0-1.851,0.168-2.705,0.499c-0.846,0.33-1.655,0.827-2.408,1.481
		c-0.752,0.672-1.33,1.467-1.716,2.363c-0.39,0.902-0.579,1.895-0.578,3.036c0,1.028,0.154,2.007,0.458,2.909
		c0.042,0.123,0.086,0.246,0.134,0.367c-0.612,0.015-1.583,0.04-1.58,0.04c-0.869,0-1.627-0.089-2.257-0.267
		c-0.587-0.16-1.087-0.402-1.485-0.716c-0.455-0.362-0.847-0.738-1.165-1.118c-0.307-0.366-0.543-0.746-0.733-1.186
		c-0.057-0.116-0.108-0.23-0.148-0.327c-0.039-0.1-0.072-0.2-0.142-0.432c-0.024-0.056-0.042-0.116-0.054-0.18
		c-0.034-0.189-0.077-0.365-0.096-0.408c-0.043-0.221-0.072-0.423-0.087-0.616c-0.016-0.198-0.022-0.371-0.022-0.522
		c0-0.69,0.13-1.367,0.388-2.012c0.262-0.662,0.658-1.306,1.176-1.914c0.511-0.598,1.154-1.072,1.91-1.41
		c0.786-0.351,1.746-0.603,2.717-0.725h2.066c0.551,0,1-0.449,1-1V23c0-0.267-0.109-0.527-0.3-0.714
		C38.177,22.102,37.928,22,37.665,22c-0.003,0-2.671,0.053-2.667,0.053c-0.217,0-0.442,0.011-0.681,0.031
		c-0.24,0.023-0.477,0.054-0.571,0.08c-0.259,0.02-0.518,0.065-0.757,0.13c-0.231,0.058-0.458,0.131-0.642,0.196
		c-0.92,0.287-1.815,0.714-2.66,1.271c-0.835,0.552-1.643,1.246-2.401,2.061c-0.787,0.844-1.384,1.805-1.774,2.855
		c-0.395,1.056-0.587,2.184-0.587,3.448c0,1.391,0.203,2.695,0.602,3.877C25.931,37.194,26.546,38.287,27.355,39.25z M41.075,34.368
		l0.057-0.243c0.054-0.313,0.15-0.613,0.296-0.917c0.143-0.3,0.33-0.576,0.581-0.855c0.182-0.214,0.412-0.372,0.7-0.479
		c0.343-0.124,0.774-0.187,1.282-0.187c0.534,0,1.011,0.076,1.415,0.226c0.373,0.138,0.671,0.329,0.905,0.574
		c0.253,0.277,0.448,0.606,0.579,0.978c0.138,0.389,0.207,0.835,0.207,1.327c0,0.753-0.084,1.391-0.25,1.894
		c-0.136,0.408-0.329,0.711-0.571,0.901c-0.304,0.238-0.649,0.42-1.023,0.541c-0.383,0.123-0.807,0.185-1.261,0.185
		c-0.479,0-0.883-0.059-1.202-0.173c-0.279-0.101-0.51-0.252-0.675-0.436c-0.229-0.271-0.425-0.563-0.585-0.87
		c-0.145-0.273-0.259-0.57-0.313-0.784c-0.02-0.152-0.047-0.296-0.081-0.449c-0.019-0.082-0.035-0.167-0.052-0.301
		c-0.011-0.062-0.014-0.121-0.014-0.182l-0.009-0.664L41.075,34.368z M71.049,66.212v-7.333c0-0.552-0.448-1-1-1h-2.484
		c-0.552,0-1,0.448-1,1v7.452c0,0.312-0.042,0.603-0.127,0.868c-0.081,0.262-0.201,0.513-0.355,0.744
		c-0.104,0.156-0.231,0.264-0.395,0.336c-0.209,0.091-0.475,0.137-0.789,0.137c-0.471,0-0.856-0.056-1.145-0.166
		c-0.264-0.102-0.361-0.22-0.429-0.33c-0.158-0.237-0.274-0.479-0.348-0.717c-0.08-0.263-0.127-0.544-0.14-0.846
		c-0.004-0.06-0.012-0.117-0.025-0.175V58.88c0-0.552-0.448-1-1-1h-2.486c-0.552,0-1,0.448-1,1v0.822
		c-0.336-0.363-0.687-0.682-1.043-0.944c-0.384-0.285-0.805-0.527-1.26-0.724c-0.254-0.104-0.5-0.188-0.739-0.253
		c-0.228-0.061-0.453-0.109-0.672-0.147c-0.217-0.039-0.421-0.069-0.608-0.088c-0.201-0.021-0.388-0.032-0.559-0.032
		c-0.364,0-0.717,0.021-1.056,0.064c0.185-0.054,0.364-0.112,0.536-0.176c0.801-0.295,1.474-0.714,1.99-1.236
		c0.51-0.488,0.94-1.009,1.281-1.548c0.2-0.316,0.379-0.648,0.534-0.994c0.328,0.755,0.78,1.438,1.349,2.04
		c0.669,0.692,1.42,1.213,2.229,1.547c0.816,0.343,1.7,0.51,2.7,0.51h0.263c0.498,0,0.931-0.023,1.323-0.071
		c0.394-0.049,0.744-0.117,1.104-0.22c0.281-0.1,0.553-0.218,0.821-0.352c0.062-0.031,0.123-0.063,0.184-0.096
		c0.168,0.315,0.501,0.531,0.883,0.531h2.484c0.552,0,1-0.448,1-1v-7.348c0-0.797-0.165-1.579-0.49-2.322
		c-0.32-0.731-0.807-1.427-1.442-2.064c-0.648-0.667-1.456-1.172-2.399-1.502c-0.908-0.314-1.943-0.474-3.076-0.474
		c-1.193,0-2.272,0.181-3.205,0.537c-0.962,0.365-1.789,0.931-2.457,1.681c-0.509,0.573-0.921,1.199-1.23,1.868
		c-0.182-0.404-0.405-0.793-0.667-1.161c-0.372-0.528-0.827-1.042-1.351-1.527c-0.596-0.554-1.323-0.967-2.162-1.229
		c-0.788-0.247-1.706-0.373-2.73-0.373h-0.221c-0.135,0-0.26,0.012-0.293,0.026c-0.108,0.002-0.207,0.01-0.286,0.02
		c-0.099,0.012-0.203,0.03-0.216,0.036c-0.194,0.02-0.389,0.054-0.585,0.097c-0.192,0.043-0.381,0.095-0.549,0.15
		c-0.667,0.205-1.3,0.5-1.884,0.875c-0.583,0.377-1.143,0.853-1.667,1.414c-0.339,0.363-0.628,0.77-0.864,1.215
		c-0.084-0.334-0.209-0.652-0.374-0.953c-0.307-0.556-0.747-1.045-1.298-1.446c-0.547-0.42-1.143-0.733-1.772-0.931
		c-0.631-0.2-1.278-0.297-1.978-0.297c-0.537,0-1.042,0.052-1.502,0.156c-0.477,0.109-0.917,0.275-1.309,0.493
		c-0.313,0.175-0.583,0.349-0.819,0.527c-0.248-0.229-0.521-0.43-0.813-0.598c-0.342-0.196-0.748-0.34-1.238-0.438
		c-0.449-0.092-0.965-0.139-1.533-0.139c-0.822,0-1.584,0.12-2.263,0.356c-0.695,0.24-1.323,0.613-1.87,1.111
		c-0.537,0.497-0.942,1.053-1.203,1.653c-0.265,0.604-0.399,1.253-0.396,1.99v8.597c0,0.552,0.449,1,1,1h2.276c0.551,0,1-0.448,1-1
		v-7.635c0-0.271,0.03-0.536,0.087-0.785c0.06-0.248,0.149-0.485,0.263-0.703c0.064-0.12,0.166-0.214,0.319-0.295
		c0.206-0.108,0.506-0.189,0.789-0.224c0.259,0,0.483,0.041,0.667,0.123c0.156,0.069,0.279,0.168,0.39,0.317
		c0.141,0.185,0.244,0.386,0.316,0.615c0.074,0.232,0.111,0.491,0.111,0.77v7.817c0,0.552,0.449,1,1,1h2.246c0.551,0,1-0.448,1-1
		l-0.001-8.05l0.005-0.089c0.014-0.042,0.024-0.085,0.033-0.129c0.032-0.175,0.092-0.349,0.179-0.516
		c0.084-0.162,0.203-0.32,0.357-0.473c0.135-0.136,0.27-0.229,0.427-0.295c0.143-0.061,0.305-0.091,0.483-0.091
		c0.122,0,0.235,0.021,0.34,0.061c0.122,0.048,0.224,0.112,0.318,0.198c0.142,0.13,0.266,0.266,0.367,0.404
		c0.084,0.116,0.139,0.228,0.146,0.239l0.021,0.079c0.018,0.156,0.044,0.258,0.069,0.325l0.01,0.044l0.002,0.053
		c-0.015,0.069-0.022,0.141-0.022,0.212v8.029c0,0.552,0.449,1,1,1c0,0,2.328-0.001,2.355-0.003v4.574c0,0.552,0.449,1,1,1h2.276
		c0.551,0,1-0.448,1-1v-4.945c0.214,0.094,0.423,0.176,0.625,0.245c0.386,0.131,0.73,0.234,1.053,0.314
		c0.326,0.075,0.634,0.133,0.934,0.175c0.281,0.035,0.562,0.056,0.946,0.056h0.043c0.281-0.022,0.555-0.054,0.818-0.093
		c-0.145,0.045-0.287,0.096-0.425,0.15c-0.812,0.323-1.532,0.807-2.152,1.448c-0.567,0.63-1,1.317-1.284,2.041
		c-0.29,0.727-0.438,1.515-0.438,2.342v7.611c0,0.552,0.449,1,1,1h2.274c0.552,0,1-0.448,1-1l-0.008-7.427
		c0.04-0.31,0.118-0.607,0.232-0.886c0.109-0.264,0.264-0.516,0.462-0.753c0.157-0.189,0.341-0.329,0.555-0.426
		c0.229-0.1,0.514-0.15,0.845-0.15c0.353,0,0.647,0.055,0.871,0.16c0.209,0.102,0.361,0.237,0.501,0.453
		c0.167,0.242,0.294,0.504,0.376,0.775c0.086,0.287,0.127,0.567,0.127,0.854v7.398c0,0.552,0.448,1,1,1h2.484c0.552,0,1-0.448,1-1
		v-0.926c0.151,0.17,0.317,0.331,0.498,0.483c0.48,0.379,0.997,0.705,1.532,0.97c0.328,0.164,0.678,0.309,1.042,0.432V77
		c0,0.552,0.448,1,1,1h2.248c0.552,0,1-0.448,1-1v-4.563c0.489-0.138,0.938-0.319,1.336-0.541c0.647-0.363,1.181-0.843,1.578-1.413
		c0.411-0.555,0.72-1.137,0.918-1.73c0.195-0.587,0.305-1.196,0.326-1.827v-0.489C71.074,66.359,71.065,66.285,71.049,66.212z
		 M60.561,49.107c0.099-0.292,0.226-0.534,0.378-0.721c0.197-0.242,0.406-0.456,0.623-0.635c0.197-0.165,0.387-0.283,0.657-0.404
		c0.1-0.055,0.2-0.101,0.295-0.132c0.1-0.033,0.198-0.053,0.368-0.077c0.131-0.028,0.251-0.052,0.345-0.065
		c0.089-0.011,0.174-0.019,0.258-0.019c0.654,0,1.211,0.072,1.652,0.214c0.369,0.12,0.627,0.276,0.821,0.504
		c0.212,0.235,0.374,0.49,0.479,0.75c0.095,0.243,0.146,0.487,0.157,0.644c-0.003,0.022-0.009,0.109-0.009,0.132v2.57
		c-0.195,0.037-0.376,0.132-0.52,0.275c-0.077,0.077-0.153,0.149-0.211,0.203c-0.11,0.096-0.22,0.2-0.232,0.222
		c-0.111,0.088-0.215,0.184-0.397,0.349c-0.07,0.044-0.135,0.096-0.206,0.167c-0.079,0.046-0.152,0.093-0.222,0.14
		c0,0-0.329,0.142-0.38,0.16c-0.107,0.044-0.208,0.071-0.311,0.085c-0.141,0.021-0.293,0.028-0.51,0.028h-0.202
		c-0.071-0.013-0.145-0.02-0.185-0.02h-0.014c-0.354-0.038-0.701-0.136-1.034-0.292c-0.335-0.154-0.683-0.377-0.987-0.627
		c-0.268-0.244-0.464-0.541-0.6-0.905c-0.147-0.4-0.227-0.896-0.229-1.401C60.377,49.819,60.448,49.435,60.561,49.107z
		 M51.434,53.277c-0.373,0.149-0.832,0.226-1.365,0.226l-0.43-0.004c-0.066-0.014-0.132-0.021-0.199-0.021
		c-0.042,0-0.08-0.002-0.117-0.009l-0.26-0.052c-0.125-0.025-0.254-0.064-0.382-0.103c-0.14-0.044-0.282-0.096-0.451-0.164
		c-0.15-0.058-0.32-0.134-0.509-0.228c-0.195-0.095-0.407-0.211-0.641-0.352c-0.1-0.06-0.209-0.102-0.323-0.124v-1.839
		c0-0.52,0.053-0.977,0.155-1.354c0.095-0.337,0.236-0.628,0.428-0.872c0.217-0.291,0.446-0.542,0.683-0.749
		c0.222-0.195,0.455-0.354,0.693-0.474c0.108-0.054,0.216-0.102,0.316-0.14c0.062-0.023,0.13-0.042,0.318-0.072
		c0.102-0.025,0.198-0.044,0.282-0.057c0.076-0.01,0.151-0.016,0.227-0.016c0.375,0,0.731,0.07,1.087,0.212
		c0.367,0.151,0.729,0.382,1.076,0.688c0.32,0.283,0.555,0.611,0.716,1.001c0.168,0.412,0.253,0.887,0.253,1.412
		c0,0.504-0.067,0.969-0.199,1.38c-0.131,0.404-0.322,0.776-0.565,1.104C52.017,52.951,51.764,53.144,51.434,53.277z"/>
	<path opacity="0.15" d="M27.739,38.929c0.773,0.926,1.73,1.645,2.846,2.138c1.102,0.486,2.372,0.743,3.784,0.763h3.296
		c0.276,0,0.5-0.224,0.5-0.5v-2.275c0-0.047-0.007-0.093-0.02-0.138c0.199,0.34,0.424,0.666,0.676,0.975
		c0.593,0.728,1.372,1.276,2.316,1.629c0.913,0.341,2.005,0.514,3.247,0.514c0.89,0,1.711-0.132,2.444-0.393
		c0.752-0.271,1.406-0.691,1.937-1.244c0.53-0.53,0.975-1.105,1.32-1.711c0.346-0.603,0.604-1.25,0.771-1.918
		c0.038-0.15,0.071-0.3,0.097-0.445c0.029-0.149,0.05-0.296,0.074-0.512c0-0.049,0.005-0.099,0.01-0.139
		c0.01-0.07,0.015-0.143,0.017-0.216c0.018-0.081,0.026-0.163,0.026-0.247V35c0-1.106-0.16-2.089-0.476-2.922
		c-0.327-0.859-0.811-1.584-1.451-2.167c-0.627-0.533-1.284-0.965-1.953-1.284c-0.682-0.326-1.402-0.547-2.214-0.663l-0.022,0.021
		c-0.067-0.031-0.14-0.048-0.214-0.048h-0.368c-0.05-0.017-0.103-0.025-0.156-0.025h-0.234c-0.879,0-1.728,0.156-2.523,0.465
		c-0.793,0.31-1.551,0.775-2.256,1.388c-0.697,0.623-1.232,1.359-1.59,2.189c-0.357,0.826-0.538,1.764-0.537,2.837
		c0,0.974,0.145,1.898,0.432,2.749c0.138,0.407,0.31,0.8,0.514,1.176c-0.006-0.006-0.012-0.013-0.018-0.019
		c-0.094-0.091-0.219-0.142-0.349-0.142c-0.004,0-2.066,0.052-2.066,0.052c-0.914,0-1.717-0.095-2.389-0.284
		c-0.652-0.178-1.212-0.45-1.665-0.808c-0.481-0.383-0.897-0.782-1.236-1.188c-0.334-0.398-0.599-0.822-0.799-1.285
		c-0.063-0.127-0.119-0.253-0.165-0.366c-0.044-0.112-0.082-0.225-0.137-0.418c-0.039-0.09-0.066-0.185-0.086-0.287
		c-0.029-0.161-0.064-0.311-0.094-0.4c-0.048-0.241-0.079-0.463-0.096-0.673c-0.017-0.213-0.023-0.399-0.023-0.562
		c0-0.754,0.142-1.492,0.423-2.196c0.282-0.712,0.707-1.404,1.261-2.055c0.56-0.654,1.261-1.173,2.086-1.542
		c0.846-0.377,1.849-0.637,2.92-0.769h2.066c0.276,0,0.5-0.224,0.5-0.5V23c0-0.134-0.054-0.263-0.15-0.357
		c-0.094-0.092-0.219-0.143-0.35-0.143c-0.003,0-2.667,0.053-2.667,0.053c-0.204,0-0.415,0.011-0.634,0.029
		c-0.218,0.021-0.432,0.048-0.58,0.08c-0.224,0.017-0.452,0.056-0.674,0.117c-0.215,0.054-0.426,0.122-0.614,0.188
		c-0.875,0.272-1.728,0.68-2.533,1.21c-0.802,0.53-1.58,1.198-2.312,1.985c-0.742,0.795-1.304,1.7-1.671,2.689
		c-0.369,0.985-0.555,2.069-0.555,3.273c0,1.336,0.194,2.587,0.576,3.717C26.384,36.974,26.97,38.014,27.739,38.929z M40.568,34.372
		l0.018-0.105c0.012-0.059,0.027-0.118,0.054-0.227c0.062-0.359,0.172-0.702,0.337-1.048c0.162-0.338,0.376-0.658,0.65-0.962
		c0.238-0.282,0.538-0.487,0.912-0.626c0.397-0.144,0.886-0.216,1.452-0.216c0.593,0,1.128,0.086,1.589,0.257
		c0.445,0.166,0.808,0.399,1.1,0.706c0.299,0.327,0.528,0.713,0.681,1.149c0.156,0.442,0.235,0.945,0.235,1.494
		c0,0.806-0.093,1.497-0.275,2.052c-0.168,0.503-0.416,0.885-0.737,1.137c-0.35,0.274-0.747,0.484-1.179,0.624
		c-0.432,0.139-0.908,0.209-1.414,0.209c-0.537,0-0.999-0.068-1.373-0.203c-0.358-0.13-0.66-0.33-0.887-0.584
		c-0.251-0.298-0.468-0.62-0.645-0.958c-0.171-0.323-0.297-0.66-0.367-0.953c-0.018-0.138-0.043-0.269-0.073-0.402
		c-0.022-0.096-0.041-0.196-0.057-0.326c-0.016-0.092-0.021-0.18-0.021-0.266l-0.002-0.377V34.372z M48.546,57.214
		c0.312,0.071,0.604,0.127,0.885,0.166c0.271,0.034,0.543,0.054,0.851,0.054h0.036c0.915-0.073,1.733-0.241,2.436-0.5
		c0.733-0.271,1.348-0.654,1.817-1.129c0.48-0.46,0.886-0.949,1.204-1.453c0.31-0.49,0.563-1.017,0.757-1.573
		c0.072-0.22,0.135-0.438,0.195-0.664c0.008-0.032,0.016-0.065,0.023-0.099c0.072,0.357,0.168,0.698,0.285,1.021
		c0.312,0.857,0.783,1.623,1.404,2.28c0.621,0.643,1.315,1.125,2.062,1.434c0.744,0.312,1.562,0.471,2.507,0.471h0.263
		c0.48,0,0.894-0.022,1.262-0.067c0.355-0.044,0.681-0.105,0.998-0.195c0.262-0.093,0.515-0.202,0.763-0.326
		c0.241-0.122,0.477-0.258,0.703-0.407c0.033-0.021,0.062-0.048,0.089-0.078v0.367c0,0.276,0.224,0.5,0.5,0.5h2.484
		c0.276,0,0.5-0.224,0.5-0.5v-7.348c0-0.727-0.15-1.441-0.448-2.122c-0.295-0.674-0.748-1.32-1.343-1.916
		c-0.595-0.611-1.337-1.075-2.205-1.378c-0.854-0.296-1.835-0.446-2.912-0.446c-1.133,0-2.151,0.17-3.027,0.504
		c-0.886,0.336-1.646,0.856-2.261,1.545c-0.597,0.672-1.051,1.421-1.351,2.226c-0.106,0.286-0.194,0.582-0.263,0.886
		c-0.011-0.052-0.023-0.104-0.036-0.156c-0.059-0.219-0.121-0.438-0.193-0.66c-0.192-0.572-0.474-1.122-0.838-1.632
		c-0.354-0.502-0.786-0.99-1.282-1.449c-0.541-0.503-1.205-0.879-1.971-1.118c-0.739-0.232-1.607-0.35-2.581-0.35h-0.221
		c-0.101,0-0.193,0.009-0.282,0.026c-0.088,0.002-0.168,0.007-0.235,0.016c-0.082,0.01-0.169,0.025-0.227,0.038
		c-0.176,0.018-0.352,0.049-0.527,0.087c-0.176,0.039-0.348,0.086-0.51,0.14c-0.623,0.191-1.214,0.466-1.759,0.817
		c-0.547,0.354-1.077,0.803-1.572,1.335c-0.521,0.559-0.914,1.233-1.167,2c-0.253,0.756-0.38,1.623-0.378,2.576v11.951
		c0,0.276,0.224,0.5,0.5,0.5h2.276c0.276,0,0.5-0.224,0.5-0.5v-5.751c0.024,0.019,0.049,0.035,0.077,0.049
		c0.422,0.22,0.829,0.397,1.209,0.528C47.914,57.039,48.245,57.139,48.546,57.214z M60.087,48.947
		c0.118-0.35,0.274-0.644,0.464-0.876c0.218-0.268,0.449-0.504,0.69-0.704c0.228-0.19,0.459-0.336,0.734-0.457
		c0.128-0.071,0.258-0.129,0.383-0.171c0.127-0.042,0.251-0.068,0.419-0.091c0.145-0.031,0.276-0.057,0.39-0.072
		c0.109-0.013,0.214-0.022,0.317-0.022c0.707,0,1.315,0.081,1.807,0.238c0.454,0.147,0.791,0.354,1.038,0.645
		c0.251,0.278,0.445,0.584,0.574,0.904c0.116,0.298,0.179,0.598,0.187,0.893c-0.003,0.021-0.004,0.043-0.004,0.064v3.162
		c-0.036-0.028-0.077-0.053-0.121-0.071c-0.062-0.025-0.127-0.038-0.191-0.038c-0.13,0-0.258,0.051-0.354,0.146
		c-0.082,0.082-0.163,0.159-0.237,0.228c-0.096,0.083-0.19,0.173-0.247,0.233c-0.099,0.079-0.191,0.164-0.29,0.26
		c-0.046,0.047-0.098,0.088-0.156,0.124c-0.036,0.022-0.068,0.049-0.098,0.079c-0.032,0.033-0.075,0.067-0.122,0.097
		c-0.083,0.048-0.159,0.098-0.229,0.146c-0.078,0.031-0.355,0.153-0.438,0.185c-0.145,0.058-0.283,0.096-0.424,0.115
		c-0.16,0.023-0.334,0.033-0.582,0.033h-0.249c-0.072-0.016-0.152-0.022-0.205-0.022c-0.409-0.044-0.809-0.156-1.19-0.335
		c-0.378-0.175-0.76-0.42-1.114-0.712c-0.327-0.299-0.566-0.658-0.731-1.101c-0.171-0.462-0.258-1.015-0.259-1.609
		C59.881,49.742,59.961,49.314,60.087,48.947z M46.822,53.001c-0.08-0.048-0.168-0.071-0.258-0.071c-0.085,0-0.17,0.021-0.246,0.064
		c-0.021,0.013-0.042,0.026-0.061,0.041v-2.426c0-0.563,0.059-1.065,0.174-1.488c0.112-0.4,0.281-0.747,0.509-1.037
		c0.239-0.32,0.493-0.597,0.753-0.825c0.254-0.224,0.522-0.406,0.798-0.545c0.124-0.062,0.247-0.117,0.367-0.163
		c0.103-0.038,0.205-0.064,0.369-0.088c0.119-0.03,0.233-0.052,0.337-0.067c0.099-0.014,0.197-0.021,0.295-0.021
		c0.439,0,0.858,0.082,1.276,0.25c0.42,0.172,0.829,0.434,1.217,0.775c0.381,0.335,0.658,0.725,0.849,1.188
		c0.192,0.472,0.29,1.01,0.29,1.601c0,0.557-0.075,1.072-0.224,1.534c-0.147,0.456-0.364,0.878-0.643,1.252
		c-0.264,0.349-0.593,0.599-1.005,0.766c-0.433,0.174-0.955,0.262-1.552,0.262H49.73c-0.083,0-0.144-0.005-0.189-0.014
		c-0.034-0.007-0.067-0.011-0.102-0.011c-0.072,0-0.14-0.005-0.214-0.019l-0.263-0.052c-0.14-0.028-0.285-0.071-0.432-0.116
		c-0.152-0.048-0.308-0.104-0.48-0.174c-0.163-0.062-0.346-0.145-0.549-0.244C47.295,53.273,47.07,53.15,46.822,53.001z
		 M70.549,66.278v-7.399c0-0.276-0.224-0.5-0.5-0.5h-2.484c-0.276,0-0.5,0.224-0.5,0.5v7.452c0,0.362-0.05,0.703-0.149,1.017
		c-0.096,0.309-0.237,0.604-0.418,0.875c-0.158,0.235-0.357,0.403-0.61,0.515c-0.271,0.118-0.604,0.179-0.988,0.179
		c-0.532,0-0.979-0.067-1.324-0.199c-0.308-0.118-0.521-0.282-0.665-0.52c-0.185-0.277-0.322-0.562-0.409-0.848
		c-0.093-0.302-0.147-0.626-0.161-0.962c-0.003-0.048-0.012-0.094-0.026-0.139V58.88c0-0.276-0.224-0.5-0.5-0.5h-2.486
		c-0.276,0-0.5,0.224-0.5,0.5l0.001,2.612c-0.18-0.542-0.452-1.008-0.802-1.378c-0.337-0.373-0.688-0.694-1.04-0.955
		c-0.351-0.26-0.735-0.482-1.152-0.663c-0.232-0.096-0.458-0.173-0.678-0.231c-0.213-0.057-0.425-0.103-0.63-0.139
		c-0.204-0.036-0.396-0.065-0.572-0.083c-0.183-0.019-0.353-0.029-0.508-0.029c-0.932,0-1.776,0.148-2.51,0.44
		c-0.746,0.297-1.403,0.736-1.966,1.318c-0.527,0.585-0.928,1.222-1.191,1.891c-0.266,0.668-0.402,1.394-0.403,2.157v7.611
		c0,0.276,0.224,0.5,0.5,0.5h2.274c0.276,0,0.5-0.224,0.5-0.5l-0.004-7.491c0.046-0.354,0.136-0.693,0.267-1.012
		c0.13-0.314,0.311-0.608,0.539-0.881c0.206-0.249,0.45-0.436,0.74-0.566c0.293-0.127,0.644-0.191,1.044-0.191
		c0.428,0,0.795,0.071,1.089,0.21c0.288,0.14,0.513,0.338,0.695,0.62c0.196,0.285,0.346,0.595,0.443,0.916
		c0.1,0.336,0.147,0.662,0.147,0.997v7.398c0,0.276,0.224,0.5,0.5,0.5h2.484c0.276,0,0.5-0.224,0.5-0.5v-2.813
		c0.057,0.177,0.121,0.346,0.194,0.506c0.253,0.567,0.623,1.059,1.113,1.473c0.45,0.354,0.937,0.663,1.446,0.915
		c0.411,0.205,0.853,0.376,1.318,0.512V77c0,0.276,0.224,0.5,0.5,0.5h2.248c0.276,0,0.5-0.224,0.5-0.5v-4.952
		c0.596-0.135,1.129-0.331,1.591-0.588c0.58-0.326,1.062-0.759,1.422-1.275c0.379-0.512,0.663-1.046,0.845-1.59
		c0.181-0.544,0.281-1.106,0.301-1.67c0-0.006,0-0.489,0-0.489C70.574,66.382,70.565,66.328,70.549,66.278z M42.484,45.723
		c-0.271-0.491-0.667-0.928-1.165-1.292c-0.5-0.384-1.044-0.67-1.618-0.851c-0.582-0.184-1.179-0.273-1.827-0.273
		c-0.5,0-0.968,0.048-1.39,0.144c-0.431,0.099-0.827,0.248-1.177,0.442c-0.348,0.194-0.637,0.386-0.882,0.585
		c-0.075,0.061-0.147,0.123-0.216,0.187c-0.08-0.093-0.162-0.18-0.248-0.261c-0.234-0.225-0.496-0.422-0.778-0.584
		c-0.295-0.169-0.652-0.294-1.089-0.382c-0.416-0.085-0.898-0.129-1.433-0.129c-0.766,0-1.473,0.111-2.1,0.329
		c-0.63,0.217-1.199,0.555-1.693,1.005c-0.486,0.45-0.851,0.951-1.084,1.487c-0.237,0.54-0.357,1.122-0.357,1.73
		c0,0.02,0.001,0.039,0.003,0.059v8.597c0,0.276,0.224,0.5,0.5,0.5h2.276c0.276,0,0.5-0.224,0.5-0.5v-7.635
		c0-0.309,0.035-0.614,0.102-0.903c0.07-0.288,0.174-0.565,0.308-0.821c0.112-0.209,0.284-0.373,0.526-0.501
		c0.27-0.143,0.631-0.238,1.022-0.282c0.33,0,0.621,0.055,0.868,0.166c0.235,0.104,0.427,0.258,0.587,0.472
		c0.176,0.232,0.305,0.482,0.394,0.766c0.089,0.281,0.135,0.591,0.135,0.921v7.817c0,0.276,0.224,0.5,0.5,0.5h2.246
		c0.276,0,0.5-0.224,0.5-0.5v-8.08l0.01-0.163c0.016-0.037,0.028-0.075,0.035-0.114c0.041-0.224,0.117-0.445,0.227-0.657
		c0.108-0.208,0.257-0.407,0.446-0.594c0.181-0.182,0.372-0.313,0.586-0.403c0.205-0.087,0.433-0.131,0.679-0.131
		c0.184,0,0.357,0.032,0.524,0.096c0.177,0.07,0.332,0.167,0.472,0.295c0.167,0.153,0.312,0.314,0.432,0.478
		c0.106,0.146,0.188,0.302,0.23,0.424l0.03,0.133c0.012,0.105,0.034,0.2,0.048,0.225l0.032,0.162
		c0.001,0.006,0.007,0.144,0.007,0.144c-0.017,0.05-0.026,0.104-0.026,0.159v8.029c0,0.276,0.224,0.5,0.5,0.5H42.4
		c0.276,0,0.5-0.224,0.5-0.5v-8.837c0.017-0.058,0.025-0.118,0.025-0.171c0-0.005,0-0.126,0-0.131
		C42.904,46.776,42.756,46.221,42.484,45.723z"/>
	<path fill="#FAEC21" d="M26.448,28.027c0.347-0.934,0.87-1.774,1.569-2.523c0.714-0.768,1.454-1.402,2.222-1.909
		c0.767-0.506,1.568-0.89,2.405-1.15c0.192-0.068,0.387-0.131,0.587-0.181c0.201-0.055,0.398-0.089,0.591-0.104
		c0.19-0.037,0.388-0.062,0.589-0.081c0.199-0.016,0.396-0.026,0.587-0.026L37.665,22v2.274h-2.066
		c-1.185,0.141-2.226,0.411-3.124,0.812c-0.897,0.401-1.651,0.958-2.262,1.673c-0.593,0.696-1.042,1.429-1.346,2.196
		c-0.306,0.767-0.458,1.561-0.458,2.38c0,0.175,0.007,0.374,0.025,0.602s0.052,0.469,0.104,0.731
		c0.037,0.121,0.067,0.252,0.093,0.393c0.026,0.14,0.065,0.269,0.117,0.392c0.035,0.141,0.08,0.274,0.132,0.406
		c0.052,0.129,0.113,0.266,0.182,0.405c0.21,0.488,0.499,0.95,0.864,1.385c0.366,0.437,0.801,0.854,1.308,1.257
		c0.505,0.399,1.119,0.701,1.844,0.899c0.722,0.203,1.562,0.302,2.521,0.302l2.066-0.052v2.275h-3.296
		c-1.34-0.019-2.534-0.258-3.582-0.72c-1.045-0.462-1.934-1.127-2.664-2.001c-0.732-0.871-1.282-1.846-1.649-2.928
		c-0.365-1.08-0.549-2.266-0.549-3.556v-0.053C25.925,29.976,26.099,28.961,26.448,28.027z M38.083,31.153
		c0.331-0.769,0.82-1.44,1.464-2.015c0.663-0.576,1.364-1.006,2.105-1.295c0.741-0.288,1.521-0.431,2.341-0.431
		c0.034,0,0.072,0,0.117,0c0.044,0,0.083,0,0.117,0c0.036,0.018,0.074,0.025,0.117,0.025c0.044,0,0.091,0,0.146,0
		c0.033,0,0.073,0,0.116,0c0.044,0,0.092,0,0.145,0c0.036,0.017,0.072,0.027,0.117,0.027c0.044,0,0.083,0,0.119,0
		c0.696,0.104,1.362,0.31,1.998,0.614c0.636,0.304,1.252,0.71,1.845,1.214c0.574,0.523,1.009,1.18,1.307,1.964
		c0.297,0.782,0.443,1.699,0.443,2.744c0,0.07,0,0.14,0,0.21c0,0.069-0.01,0.129-0.025,0.183c0,0.07-0.003,0.141-0.013,0.208
		c-0.009,0.07-0.015,0.141-0.015,0.211c-0.019,0.14-0.037,0.277-0.064,0.416c-0.025,0.141-0.056,0.28-0.091,0.419
		c-0.156,0.63-0.396,1.226-0.72,1.793c-0.323,0.566-0.735,1.101-1.24,1.605c-0.488,0.508-1.074,0.883-1.753,1.127
		c-0.68,0.242-1.438,0.363-2.274,0.363c-1.187,0-2.21-0.16-3.072-0.482c-0.863-0.323-1.564-0.813-2.104-1.477
		s-0.946-1.396-1.217-2.196c-0.27-0.802-0.405-1.667-0.405-2.589V33.74C37.586,32.781,37.751,31.92,38.083,31.153z M40.07,34.12
		c0,0.114,0.007,0.23,0.028,0.351c0.015,0.123,0.037,0.241,0.063,0.354c0.025,0.114,0.048,0.231,0.064,0.354
		c0.088,0.383,0.227,0.756,0.42,1.122c0.192,0.367,0.426,0.716,0.705,1.047c0.295,0.33,0.663,0.574,1.099,0.732
		c0.436,0.157,0.949,0.233,1.543,0.233c0.557,0,1.079-0.076,1.567-0.233c0.489-0.158,0.933-0.392,1.334-0.706
		c0.4-0.313,0.702-0.771,0.903-1.372c0.198-0.602,0.301-1.339,0.301-2.21c0-0.61-0.088-1.163-0.264-1.66
		c-0.174-0.496-0.434-0.938-0.783-1.32c-0.35-0.366-0.78-0.645-1.295-0.837c-0.515-0.19-1.103-0.288-1.764-0.288
		c-0.627,0-1.168,0.082-1.622,0.246c-0.454,0.169-0.828,0.424-1.124,0.774c-0.296,0.329-0.537,0.688-0.719,1.07
		c-0.185,0.386-0.31,0.776-0.379,1.179c-0.019,0.068-0.036,0.138-0.051,0.207c-0.021,0.069-0.028,0.141-0.028,0.209
		c0,0.07,0,0.14,0,0.212c0,0.068,0,0.138,0,0.208V33.74C40.07,33.88,40.07,34.008,40.07,34.12z M25.925,46.86
		c0-0.54,0.105-1.05,0.315-1.529c0.208-0.479,0.531-0.919,0.966-1.321c0.437-0.398,0.94-0.701,1.517-0.9
		c0.577-0.201,1.221-0.302,1.937-0.302c0.503,0,0.95,0.04,1.332,0.119c0.384,0.077,0.697,0.186,0.941,0.326
		c0.245,0.141,0.472,0.31,0.681,0.511c0.209,0.199,0.391,0.431,0.548,0.691c0.158-0.208,0.35-0.405,0.576-0.587
		c0.227-0.185,0.496-0.362,0.812-0.538c0.312-0.174,0.661-0.304,1.045-0.392c0.381-0.086,0.812-0.131,1.279-0.131
		c0.596,0,1.151,0.084,1.676,0.25c0.521,0.164,1.01,0.422,1.464,0.771c0.453,0.33,0.797,0.711,1.032,1.137
		c0.235,0.429,0.361,0.902,0.379,1.428c0,0.017,0,0.029,0,0.037c0,0.009,0,0.023,0,0.04c0,0.016,0,0.03,0,0.038
		c0,0.008,0,0.022,0,0.039c-0.018,0.019-0.025,0.031-0.025,0.04c0,0.008,0,0.023,0,0.039c0,0.017,0,0.03,0,0.041
		c0,0.009,0,0.02,0,0.036v8.812h-2.274v-8.029c0,0.021,0,0.024,0,0.015s0.007-0.015,0.026-0.015c0-0.017,0-0.029,0-0.038
		c0-0.009,0-0.021,0-0.038c0-0.036,0-0.066,0-0.092c0-0.026,0-0.05,0-0.066c0-0.052-0.004-0.104-0.015-0.155
		c-0.009-0.053-0.021-0.113-0.037-0.185c-0.02-0.053-0.032-0.108-0.039-0.17c-0.011-0.061-0.024-0.126-0.041-0.196
		c-0.069-0.207-0.173-0.41-0.313-0.601c-0.14-0.192-0.307-0.376-0.498-0.551s-0.401-0.302-0.626-0.391
		c-0.227-0.087-0.463-0.131-0.708-0.131c-0.312,0-0.604,0.056-0.874,0.171c-0.27,0.112-0.518,0.281-0.746,0.511
		c-0.227,0.225-0.404,0.464-0.535,0.716c-0.131,0.253-0.225,0.521-0.275,0.799c-0.016,0.035-0.03,0.074-0.039,0.118
		c-0.01,0.042-0.014,0.081-0.014,0.117c0,0.051,0,0.097,0,0.131s0,0.071,0,0.104v7.976h-2.246v-7.817
		c0-0.383-0.053-0.742-0.158-1.072c-0.105-0.332-0.26-0.636-0.472-0.916c-0.208-0.278-0.469-0.489-0.784-0.628
		c-0.312-0.139-0.671-0.208-1.07-0.208c-0.507,0.053-0.925,0.165-1.256,0.34c-0.332,0.175-0.575,0.411-0.733,0.707
		c-0.155,0.296-0.273,0.609-0.353,0.939c-0.078,0.334-0.116,0.673-0.116,1.021c0,0.015,0,0.036,0,0.052v0.025v7.558h-2.276V46.86
		H25.925z M43.479,49.136c0-0.906,0.118-1.712,0.354-2.417c0.233-0.708,0.587-1.312,1.058-1.818
		c0.471-0.505,0.963-0.923,1.478-1.256c0.514-0.331,1.061-0.583,1.635-0.759c0.156-0.052,0.312-0.095,0.471-0.13
		c0.156-0.034,0.313-0.062,0.47-0.078c0.088-0.017,0.164-0.03,0.236-0.039c0.068-0.009,0.146-0.013,0.233-0.013
		c0.069-0.018,0.144-0.026,0.224-0.026c0.076,0,0.151,0,0.221,0c0.925,0,1.734,0.108,2.432,0.327
		c0.697,0.217,1.291,0.553,1.779,1.007c0.471,0.435,0.877,0.892,1.215,1.371c0.341,0.479,0.597,0.981,0.771,1.503
		c0.068,0.209,0.129,0.419,0.185,0.629c0.052,0.209,0.088,0.417,0.104,0.627c0.035,0.208,0.062,0.406,0.078,0.588
		c0.018,0.185,0.026,0.361,0.026,0.537c0,0.174-0.011,0.36-0.026,0.561c-0.018,0.201-0.043,0.407-0.078,0.616
		c-0.017,0.208-0.053,0.419-0.104,0.628c-0.056,0.209-0.115,0.417-0.185,0.627c-0.176,0.505-0.408,0.993-0.705,1.463
		c-0.297,0.471-0.672,0.924-1.127,1.359c-0.434,0.438-0.982,0.776-1.646,1.021c-0.663,0.244-1.429,0.4-2.302,0.471
		c-0.262,0-0.522-0.019-0.783-0.052c-0.262-0.036-0.541-0.09-0.837-0.157c-0.279-0.07-0.597-0.166-0.954-0.287
		c-0.358-0.123-0.737-0.289-1.139-0.498V52.43c0.263,0.158,0.501,0.288,0.72,0.395c0.216,0.105,0.413,0.193,0.588,0.261
		c0.176,0.072,0.345,0.133,0.511,0.185c0.165,0.051,0.326,0.098,0.482,0.129c0.088,0.019,0.18,0.037,0.273,0.054
		c0.098,0.019,0.196,0.026,0.301,0.026c0.09,0.019,0.185,0.024,0.291,0.024c0.104,0,0.215,0,0.338,0
		c0.662,0,1.242-0.099,1.738-0.298c0.498-0.201,0.902-0.512,1.217-0.928c0.312-0.42,0.554-0.887,0.72-1.4
		c0.166-0.516,0.248-1.076,0.248-1.688c0-0.664-0.11-1.258-0.327-1.79c-0.219-0.533-0.544-0.989-0.98-1.374
		c-0.436-0.384-0.889-0.67-1.357-0.863c-0.473-0.189-0.96-0.287-1.467-0.287c-0.121,0-0.242,0.009-0.364,0.026
		c-0.123,0.018-0.254,0.043-0.392,0.078c-0.141,0.017-0.281,0.052-0.42,0.104c-0.14,0.053-0.279,0.114-0.418,0.185
		c-0.313,0.157-0.614,0.362-0.902,0.615c-0.288,0.251-0.562,0.551-0.824,0.901c-0.26,0.331-0.458,0.731-0.59,1.202
		c-0.128,0.471-0.192,1.012-0.192,1.623v11.478h-2.276V49.136H43.479z M67.591,48.299c0-0.381-0.075-0.763-0.222-1.139
		c-0.151-0.374-0.372-0.728-0.669-1.057c-0.298-0.35-0.716-0.611-1.255-0.785c-0.541-0.174-1.192-0.263-1.961-0.263
		c-0.123,0-0.248,0.01-0.379,0.026c-0.131,0.018-0.274,0.046-0.432,0.079c-0.156,0.019-0.312,0.053-0.472,0.105
		c-0.155,0.052-0.313,0.122-0.47,0.209c-0.279,0.12-0.551,0.292-0.812,0.51c-0.264,0.218-0.517,0.475-0.758,0.772
		c-0.228,0.278-0.411,0.622-0.55,1.03c-0.141,0.41-0.229,0.877-0.264,1.399c0,0.698,0.099,1.303,0.289,1.816
		c0.192,0.516,0.479,0.945,0.863,1.296c0.4,0.331,0.812,0.599,1.242,0.797c0.426,0.199,0.876,0.327,1.346,0.378
		c0.02,0,0.038,0,0.064,0c0.027,0,0.05,0,0.066,0c0.034,0.02,0.064,0.025,0.092,0.025c0.023,0,0.047,0,0.063,0
		c0.035,0,0.062,0,0.079,0c0.016,0,0.044,0,0.078,0c0.016,0,0.039,0,0.064,0c0.026,0,0.047,0,0.064,0
		c0.209,0,0.406-0.012,0.589-0.038c0.185-0.026,0.36-0.075,0.537-0.146c0.086-0.033,0.171-0.067,0.25-0.103
		c0.075-0.037,0.159-0.071,0.246-0.104c0.069-0.053,0.147-0.105,0.235-0.156c0.088-0.055,0.166-0.113,0.233-0.184
		c0.088-0.055,0.171-0.119,0.248-0.197c0.08-0.077,0.162-0.152,0.249-0.223c0.088-0.088,0.175-0.17,0.262-0.246
		c0.088-0.08,0.174-0.162,0.262-0.25v2.851c-0.017,0.036-0.034,0.06-0.051,0.079v0.025c-0.211,0.139-0.43,0.266-0.654,0.379
		c-0.228,0.113-0.461,0.215-0.704,0.301c-0.245,0.068-0.542,0.128-0.892,0.171c-0.351,0.043-0.748,0.063-1.201,0.063
		c-0.019,0-0.031,0-0.041,0s-0.021,0-0.037,0c-0.02,0-0.045,0-0.079,0c-0.019,0-0.034,0-0.054,0c-0.017,0-0.037,0-0.052,0
		c-0.018,0-0.03,0-0.038,0c-0.01,0-0.022,0-0.039,0c-0.803,0-1.55-0.144-2.236-0.432c-0.689-0.285-1.322-0.727-1.896-1.32
		c-0.574-0.607-1.006-1.312-1.294-2.104s-0.43-1.688-0.43-2.68c0-0.873,0.138-1.682,0.417-2.432
		c0.279-0.751,0.697-1.439,1.256-2.068c0.559-0.627,1.245-1.099,2.064-1.41c0.819-0.313,1.771-0.472,2.85-0.472
		c1.029,0,1.945,0.141,2.748,0.419c0.8,0.279,1.47,0.698,2.011,1.254c0.558,0.559,0.972,1.148,1.243,1.768
		c0.27,0.617,0.406,1.26,0.406,1.921v7.348h-2.484v-7.215H67.591z M47.877,62.82c0-0.696,0.12-1.354,0.366-1.973
		c0.244-0.619,0.61-1.199,1.098-1.74c0.505-0.522,1.099-0.918,1.779-1.188c0.679-0.271,1.453-0.405,2.325-0.405
		c0.14,0,0.293,0.01,0.457,0.026c0.166,0.017,0.345,0.044,0.535,0.078c0.192,0.034,0.391,0.077,0.59,0.13s0.404,0.123,0.615,0.21
		c0.363,0.158,0.713,0.356,1.045,0.603c0.33,0.244,0.652,0.541,0.967,0.889c0.313,0.332,0.55,0.742,0.707,1.229
		c0.156,0.489,0.234,1.045,0.234,1.676c0,0.018,0,0.039,0,0.062c0,0.025,0,0.059,0,0.092c0,0.02,0,0.04,0,0.065
		c0,0.026,0,0.057,0,0.093v7.766h-2.484v-7.398c0-0.385-0.057-0.762-0.168-1.139c-0.113-0.375-0.283-0.728-0.512-1.059
		c-0.226-0.35-0.523-0.609-0.889-0.786c-0.366-0.173-0.803-0.26-1.307-0.26c-0.473,0-0.887,0.078-1.243,0.233
		c-0.356,0.16-0.667,0.392-0.927,0.707c-0.264,0.312-0.467,0.648-0.615,1.008c-0.146,0.355-0.248,0.734-0.301,1.137v7.557h-2.274
		L47.877,62.82L47.877,62.82z M61.812,57.879v6.984c0,0.068,0,0.128,0,0.182c0,0.05,0,0.096,0,0.13c0,0.035,0,0.075,0,0.118
		c0,0.044,0.008,0.083,0.026,0.116c0.017,0.384,0.078,0.745,0.183,1.087c0.104,0.339,0.263,0.665,0.472,0.979
		c0.19,0.315,0.491,0.551,0.901,0.709c0.41,0.156,0.91,0.232,1.504,0.232c0.453,0,0.851-0.073,1.188-0.221
		c0.341-0.149,0.615-0.381,0.825-0.694c0.208-0.312,0.369-0.647,0.48-1.005c0.113-0.357,0.172-0.746,0.172-1.165v-7.452h2.484v7.402
		c0,0.033,0,0.062,0,0.09c0,0.025,0.008,0.048,0.025,0.064c0,0.034,0,0.062,0,0.08c0,0.016,0,0.032,0,0.051c0,0.035,0,0.074,0,0.117
		c0,0.045,0,0.084,0,0.119c0,0.016,0,0.034,0,0.053c0,0.018,0,0.033,0,0.053c-0.018,0.521-0.11,1.031-0.275,1.529
		c-0.165,0.494-0.423,0.979-0.771,1.449c-0.329,0.471-0.754,0.85-1.266,1.137c-0.516,0.287-1.13,0.492-1.846,0.613V76h-2.248v-5.361
		c-0.574-0.139-1.105-0.33-1.596-0.574c-0.488-0.242-0.94-0.53-1.359-0.86c-0.417-0.353-0.74-0.777-0.967-1.284
		c-0.229-0.505-0.366-1.088-0.42-1.75v-8.29L61.812,57.879L61.812,57.879z"/>
</g>
</svg>
