<?xml version="1.0" encoding="utf-8"?>
<!-- Generator: Adobe Illustrator 15.0.2, SVG Export Plug-In . SVG Version: 6.00 Build 0)  -->
<!DOCTYPE svg PUBLIC "-//W3C//DTD SVG 1.1//EN" "http://www.w3.org/Graphics/SVG/1.1/DTD/svg11.dtd">
<svg version="1.1" id="Layer_1" xmlns="http://www.w3.org/2000/svg" xmlns:xlink="http://www.w3.org/1999/xlink" x="0px" y="0px"
	 width="96px" height="96px" viewBox="0 0 96 96" enable-background="new 0 0 96 96" xml:space="preserve">
<g>
	<path fill-opacity="0.4" d="M88,49c0,29.634-10.363,40-40,40C18.366,89,8,78.634,8,49C8,19.365,18.366,9,48,9
		C77.637,9,88,19.365,88,49z"/>
	
		<linearGradient id="SVGID_1_" gradientUnits="userSpaceOnUse" x1="-126.0005" y1="122.3984" x2="-126.0005" y2="197.2355" gradientTransform="matrix(1 0 0 -1 174 219)">
		<stop  offset="0" style="stop-color:#006325"/>
		<stop  offset="1" style="stop-color:#80C341"/>
	</linearGradient>
	<path fill="url(#SVGID_1_)" d="M88,48c0,29.634-10.363,40-40,40C18.366,88,8,77.634,8,48C8,18.365,18.366,8,48,8
		C77.637,8,88,18.365,88,48z"/>
	<rect fill="none" width="96" height="96"/>
	
		<linearGradient id="SVGID_2_" gradientUnits="userSpaceOnUse" x1="-300.2749" y1="506.6982" x2="-300.2749" y2="585.9434" gradientTransform="matrix(1 0 0 1 348.2749 -498.4453)">
		<stop  offset="0" style="stop-color:#FFFFFF"/>
		<stop  offset="1" style="stop-color:#FFFFFF;stop-opacity:0"/>
	</linearGradient>
	<path fill="url(#SVGID_2_)" fill-opacity="0.25" d="M48,8C18.366,8,8,18.365,8,48c0,29.634,10.366,40,40,40
		c29.637,0,40-10.366,40-40C88,18.365,77.637,8,48,8z M48,87C18.842,87,9,77.158,9,48S18.842,9,48,9s39,9.842,39,39S77.158,87,48,87
		z"/>
	<path fill-opacity="0.05" d="M60.079,31.5H35.921C23.547,31.5,18.5,36.548,18.5,48.921s5.047,17.421,17.421,17.421h24.158
		c12.374,0,17.421-5.048,17.421-17.421S72.453,31.5,60.079,31.5z M49.068,51.065c-0.332-0.158-0.694-0.239-1.068-0.239
		c-0.373,0-0.734,0.081-1.066,0.238c0.08-0.701-0.141-1.398-0.607-1.925c0.713-0.15,1.325-0.606,1.673-1.248
		c0.35,0.643,0.962,1.098,1.675,1.248C49.209,49.667,48.988,50.364,49.068,51.065z"/>
	<path fill-opacity="0.07" d="M60.079,32H35.921C23.902,32,19,36.902,19,48.921s4.902,16.921,16.921,16.921h24.158
		C72.098,65.842,77,60.939,77,48.921S72.098,32,60.079,32z M50.395,49.161c-0.719,0.512-1.017,1.42-0.739,2.259l0.273,0.826
		l-0.763-0.544c-0.341-0.246-0.744-0.376-1.166-0.376c-0.418,0-0.82,0.128-1.162,0.372l-0.765,0.545l0.273-0.824
		c0.278-0.84-0.02-1.746-0.738-2.257l-0.657-0.468h0.854c0.866,0,1.629-0.552,1.898-1.371L48,46.426l0.295,0.896
		c0.271,0.82,1.035,1.373,1.9,1.373h0.855L50.395,49.161z"/>
	<path fill-opacity="0.1" d="M60.079,32.5H35.921C24.104,32.5,19.5,37.104,19.5,48.921s4.604,16.421,16.421,16.421h24.158
		c11.817,0,16.421-4.604,16.421-16.421S71.896,32.5,60.079,32.5z M50.685,49.568c-0.54,0.384-0.763,1.064-0.555,1.694l0.755,2.279
		l-2.01-1.434c-0.257-0.186-0.559-0.282-0.875-0.282c-0.314,0-0.616,0.097-0.872,0.278l-2.012,1.437l0.755-2.279
		c0.208-0.629-0.015-1.31-0.554-1.692l-1.932-1.375h2.418c0.649,0,1.222-0.414,1.424-1.029L48,44.833l0.771,2.331
		c0.203,0.616,0.775,1.03,1.425,1.03h2.42L50.685,49.568z"/>
	<path fill-opacity="0.15" d="M60.079,33H35.921C24.315,33,20,37.315,20,48.921s4.315,15.921,15.921,15.921h24.158
		C71.686,64.842,76,60.526,76,48.921S71.686,33,60.079,33z M50.604,51.105l1.235,3.733l-3.258-2.325
		c-0.17-0.122-0.371-0.188-0.582-0.188c-0.209,0-0.411,0.064-0.581,0.187l-3.259,2.325l1.237-3.733
		c0.139-0.419-0.01-0.873-0.369-1.128l-3.207-2.283l3.983,0.001c0.433,0,0.814-0.275,0.949-0.686L48,43.24l1.246,3.768
		c0.135,0.411,0.517,0.687,0.949,0.687l3.986-0.001l-3.207,2.282C50.614,50.231,50.466,50.686,50.604,51.105z"/>
	<path fill-opacity="0.15" d="M60.079,33.5H35.921C24.535,33.5,20.5,37.535,20.5,48.921s4.035,15.421,15.421,15.421h24.158
		c11.386,0,15.421-4.035,15.421-15.421S71.465,33.5,60.079,33.5z M51.079,50.948l1.67,5.044l-0.099,0.047
		c-0.02-0.02-0.057-0.048-0.078-0.063l-4.281-3.057c-0.088-0.062-0.189-0.093-0.291-0.093s-0.204,0.03-0.291,0.093l-4.198,2.996
		c-0.102,0.004-0.199,0.029-0.269,0.08l0.039-0.095l1.642-4.952c0.069-0.209-0.006-0.438-0.185-0.564l-4.155-2.957
		c-0.063-0.109-0.15-0.201-0.247-0.246c0.04,0.01,0.104,0.019,0.146,0.019c0.025,0,0.05-0.002,0.075-0.006l5.247,0.001
		c0.216,0,0.407-0.139,0.475-0.343l1.587-4.8c0.091-0.056,0.165-0.129,0.196-0.215l1.658,5.015c0.067,0.204,0.259,0.343,0.475,0.343
		l5.238-0.001c0.057,0.042,0.121,0.093,0.169,0.093c-0.026,0.018-0.051,0.039-0.073,0.062l-4.266,3.036
		C51.085,50.511,51.01,50.739,51.079,50.948z"/>
	<linearGradient id="SVGID_3_" gradientUnits="userSpaceOnUse" x1="48.0005" y1="62.8418" x2="48.0005" y2="33.1085">
		<stop  offset="0" style="stop-color:#D0CBC5"/>
		<stop  offset="0.5031" style="stop-color:#FAFCEF"/>
		<stop  offset="0.9693" style="stop-color:#FFFFFF"/>
		<stop  offset="1" style="stop-color:#FFFFFF"/>
	</linearGradient>
	<path fill="url(#SVGID_3_)" d="M60.079,33H35.921C24.866,33,21,36.87,21,47.921c0,11.056,3.866,14.921,14.921,14.921h24.158
		C71.134,62.842,75,58.977,75,47.921C75,36.87,71.134,33,60.079,33z M55.889,46.706l-4.335,3.085l1.646,4.967
		c0.007,0.018,0.011,0.036,0.016,0.054l0.013,0.038l-0.004,0.002c0.012,0.046,0.028,0.089,0.028,0.139
		c0,0.308-0.255,0.557-0.569,0.557c-0.134,0-0.251-0.053-0.349-0.128h-0.001l-0.037-0.026c-0.004-0.004-0.011-0.007-0.016-0.011
		L48,52.326l-4.358,3.11l-0.006-0.004c-0.093,0.067-0.201,0.113-0.324,0.113c-0.313,0-0.568-0.249-0.568-0.556
		c0-0.092,0.026-0.171,0.063-0.247l1.642-4.952l-4.259-3.031l0.004-0.01c-0.192-0.09-0.327-0.278-0.327-0.5
		c0-0.31,0.255-0.559,0.567-0.559c0.018,0,0.031,0.008,0.049,0.008l0.002-0.006l5.32,0.001l1.661-5.023h0.009
		c0.078-0.218,0.283-0.375,0.53-0.375c0.25,0,0.457,0.163,0.532,0.384l1.658,5.015l5.361-0.001c0.003,0,0.005-0.002,0.009-0.002
		c0.002,0,0.004,0.002,0.007,0.002h0.005c0.308,0.008,0.557,0.251,0.557,0.557c0,0.188-0.102,0.347-0.247,0.447L55.889,46.706z"/>
	<linearGradient id="SVGID_4_" gradientUnits="userSpaceOnUse" x1="48.0005" y1="62.8418" x2="48.0005" y2="39.3816">
		<stop  offset="0" style="stop-color:#000000"/>
		<stop  offset="1" style="stop-color:#000000;stop-opacity:0"/>
	</linearGradient>
	<path fill="url(#SVGID_4_)" fill-opacity="0.06" d="M51.554,49.791l0.269-0.19l1.378,4.157c0.007,0.018,0.011,0.036,0.016,0.054
		l0.013,0.038l-0.004,0.002c0.012,0.046,0.028,0.089,0.028,0.139c0,0.157-0.067,0.298-0.175,0.399L51.554,49.791z M42.743,53.99
		c0,0.159,0.07,0.3,0.18,0.401l1.525-4.601l-0.268-0.19l-1.374,4.143C42.77,53.819,42.743,53.898,42.743,53.99z M55.577,44.693
		h-0.005c-0.003,0-0.005-0.002-0.007-0.002c-0.004,0-0.006,0.002-0.009,0.002l-5.361,0.001l-1.658-5.015
		c-0.075-0.221-0.282-0.384-0.532-0.384c-0.247,0-0.452,0.157-0.53,0.375h-0.009l-1.661,5.023l-5.32-0.001l-0.002,0.006
		c-0.018,0-0.031-0.008-0.049-0.008c-0.312,0-0.567,0.249-0.567,0.559c0,0.222,0.134,0.409,0.326,0.499
		c0.074-0.035,0.154-0.058,0.241-0.058c0.018,0,0.031,0.008,0.049,0.008l0.002-0.006l5.32,0.001l1.661-5.023h0.009
		c0.078-0.218,0.283-0.375,0.53-0.375c0.25,0,0.457,0.163,0.532,0.384l1.658,5.015l5.361-0.001c0.003,0,0.005-0.002,0.009-0.002
		c0.002,0,0.004,0.002,0.007,0.002h0.005c0.087,0.002,0.167,0.027,0.24,0.063l0.071-0.051l-0.002-0.009
		c0.146-0.101,0.247-0.26,0.247-0.447C56.134,44.944,55.885,44.701,55.577,44.693z M60.079,61.842H35.921
		c-10.881,0-14.789-3.761-14.909-14.421C21.01,47.591,21,47.747,21,47.921c0,11.056,3.866,14.921,14.921,14.921h24.158
		C71.134,62.842,75,58.977,75,47.921c0-0.174-0.01-0.33-0.012-0.5C74.868,58.081,70.96,61.842,60.079,61.842z"/>
	<path fill="#FFFFFF" d="M56.134,47.25c0,0.188-0.102,0.347-0.247,0.447l0.002,0.009l-4.066,2.895l-0.269-0.81l4.264-3.034
		C56.004,46.848,56.134,47.031,56.134,47.25z M35.921,34h24.158c10.881,0,14.789,3.765,14.909,14.421
		c0.002-0.17,0.012-0.326,0.012-0.5C75,36.87,71.134,33,60.079,33H35.921C24.866,33,21,36.87,21,47.921c0,0.174,0.01,0.33,0.012,0.5
		C21.132,37.765,25.04,34,35.921,34z M43.312,56.546c0.123,0,0.231-0.046,0.324-0.113l0.006,0.004L48,53.326l4.281,3.056
		c0.005,0.004,0.012,0.007,0.016,0.011l0.037,0.026h0.001c0.098,0.075,0.215,0.128,0.349,0.128c0.314,0,0.569-0.249,0.569-0.557
		c0-0.05-0.017-0.093-0.028-0.139l0.004-0.002l-0.013-0.038c-0.005-0.018-0.009-0.036-0.016-0.054l-0.122-0.368
		c-0.103,0.096-0.24,0.157-0.395,0.157c-0.134,0-0.251-0.053-0.349-0.128h-0.001l-0.037-0.026c-0.004-0.004-0.011-0.007-0.016-0.011
		L48,52.326l-4.358,3.11l-0.006-0.004c-0.093,0.067-0.201,0.113-0.324,0.113c-0.151,0-0.287-0.061-0.389-0.154l-0.116,0.352
		c-0.037,0.076-0.063,0.155-0.063,0.247C42.743,56.297,42.998,56.546,43.312,56.546z M40.193,47.75l-0.004,0.01l3.991,2.841
		l0.268-0.81l-4.259-3.031l0.004-0.01c0,0,0-0.001-0.001-0.001c-0.191,0.09-0.326,0.277-0.326,0.501
		C39.866,47.472,40.001,47.66,40.193,47.75z"/>
</g>
</svg>
