<?xml version="1.0" encoding="utf-8"?>
<!-- Generator: Adobe Illustrator 15.0.2, SVG Export Plug-In . SVG Version: 6.00 Build 0)  -->
<!DOCTYPE svg PUBLIC "-//W3C//DTD SVG 1.1//EN" "http://www.w3.org/Graphics/SVG/1.1/DTD/svg11.dtd">
<svg version="1.1" id="Layer_1" xmlns="http://www.w3.org/2000/svg" xmlns:xlink="http://www.w3.org/1999/xlink" x="0px" y="0px"
	 width="96px" height="96px" viewBox="0 0 96 96" enable-background="new 0 0 96 96" xml:space="preserve">
<g>
	<path fill-opacity="0.4" d="M88,49c0,29.635-10.363,40-40,40C18.367,89,8,78.635,8,49S18.367,9,48,9C77.637,9,88,19.365,88,49z"/>
	
		<linearGradient id="SVGID_1_" gradientUnits="userSpaceOnUse" x1="-126.0005" y1="122.3984" x2="-126.0005" y2="197.2355" gradientTransform="matrix(1 0 0 -1 174 219)">
		<stop  offset="0" style="stop-color:#006325"/>
		<stop  offset="1" style="stop-color:#80C341"/>
	</linearGradient>
	<path fill="url(#SVGID_1_)" d="M88,48c0,29.635-10.363,40-40,40C18.367,88,8,77.635,8,48S18.367,8,48,8C77.637,8,88,18.365,88,48z"
		/>
	<rect fill="none" width="96" height="96"/>
	
		<linearGradient id="SVGID_2_" gradientUnits="userSpaceOnUse" x1="-300.2749" y1="506.6982" x2="-300.2749" y2="585.9434" gradientTransform="matrix(1 0 0 1 348.2749 -498.4453)">
		<stop  offset="0" style="stop-color:#FFFFFF"/>
		<stop  offset="1" style="stop-color:#FFFFFF;stop-opacity:0"/>
	</linearGradient>
	<path fill="url(#SVGID_2_)" fill-opacity="0.25" d="M48,8C18.367,8,8,18.365,8,48s10.367,40,40,40c29.637,0,40-10.365,40-40
		S77.637,8,48,8z M48,87C18.842,87,9,77.158,9,48S18.842,9,48,9s39,9.842,39,39S77.158,87,48,87z"/>
	<path opacity="0.05" d="M63.811,45.072l-17.732-17c-1.061-1.014-2.461-1.572-3.943-1.572c-1.48,0-2.882,0.559-3.945,1.574
		c-1.089,1.043-1.689,2.438-1.69,3.93c0,1.492,0.601,2.889,1.69,3.931L51.819,49L38.193,62.068c-1.089,1.043-1.688,2.438-1.688,3.93
		c0,1.489,0.6,2.885,1.688,3.926c1.059,1.017,2.461,1.576,3.947,1.576c1.488,0,2.889-0.561,3.943-1.576l17.732-16.998
		c1.089-1.046,1.687-2.443,1.685-3.934C65.499,47.502,64.898,46.109,63.811,45.072z"/>
	<path opacity="0.07" d="M63.465,45.434l-17.732-17C44.766,27.51,43.488,27,42.135,27c-1.353,0-2.63,0.51-3.6,1.436
		c-0.989,0.947-1.535,2.215-1.536,3.568c0,1.354,0.546,2.623,1.536,3.57L52.542,49L38.539,62.43
		c-0.989,0.947-1.534,2.215-1.534,3.568c0,1.352,0.544,2.617,1.533,3.565C39.504,70.49,40.783,71,42.14,71
		c1.357,0,2.636-0.51,3.598-1.437l17.731-16.997c0.989-0.951,1.533-2.221,1.531-3.574C64.999,47.641,64.453,46.375,63.465,45.434z"
		/>
	<path opacity="0.1" d="M63.119,45.795l-17.732-17c-0.873-0.835-2.027-1.295-3.252-1.295c-1.223,0-2.378,0.46-3.254,1.296
		c-0.89,0.853-1.381,1.991-1.382,3.208c0,1.217,0.49,2.355,1.382,3.209L53.265,49l-14.38,13.79c-0.89,0.853-1.38,1.991-1.38,3.208
		c0,1.215,0.49,2.353,1.379,3.205c0.872,0.836,2.028,1.297,3.256,1.297s2.383-0.461,3.252-1.297l17.73-16.998
		c0.891-0.855,1.38-1.996,1.378-3.212C64.499,47.779,64.009,46.643,63.119,45.795z"/>
	<path opacity="0.15" d="M62.773,46.155L45.041,29.156C44.262,28.41,43.23,28,42.135,28c-1.094,0-2.126,0.41-2.908,1.156
		c-0.791,0.758-1.227,1.77-1.228,2.848c0,1.078,0.436,2.09,1.228,2.848L53.987,49L39.23,63.15c-0.79,0.758-1.226,1.769-1.226,2.848
		c0,1.076,0.436,2.087,1.226,2.844C40.009,69.589,41.042,70,42.14,70s2.13-0.412,2.906-1.158l17.729-16.996
		c0.792-0.762,1.227-1.774,1.225-2.852C63.999,47.918,63.563,46.909,62.773,46.155z"/>
	<path opacity="0.15" d="M62.428,46.516L44.695,29.518c-0.686-0.656-1.595-1.018-2.561-1.018c-0.964,0-1.874,0.361-2.562,1.018
		c-0.691,0.663-1.072,1.546-1.073,2.486c0,0.94,0.381,1.824,1.073,2.487L54.71,49L39.576,63.512
		c-0.691,0.662-1.071,1.545-1.071,2.486c0,0.939,0.381,1.821,1.071,2.482c0.686,0.658,1.596,1.02,2.563,1.02
		c0.967,0,1.877-0.361,2.561-1.02l17.729-16.996c0.692-0.665,1.073-1.549,1.071-2.49C63.499,48.057,63.118,47.176,62.428,46.516z"/>
	<linearGradient id="SVGID_3_" gradientUnits="userSpaceOnUse" x1="51" y1="68" x2="51" y2="28.0005">
		<stop  offset="0" style="stop-color:#D0CBC5"/>
		<stop  offset="0.5031" style="stop-color:#FAFCEF"/>
		<stop  offset="0.9693" style="stop-color:#FFFFFF"/>
		<stop  offset="1" style="stop-color:#FFFFFF"/>
	</linearGradient>
	<path fill="url(#SVGID_3_)" d="M62.082,45.877L44.35,28.879c-1.225-1.172-3.203-1.172-4.432,0c-1.225,1.174-1.225,3.076,0,4.252
		L55.433,48L39.922,62.873c-1.223,1.172-1.223,3.075,0,4.247c1.225,1.173,3.211,1.173,4.433,0l17.728-16.996
		C63.307,48.947,63.307,47.047,62.082,45.877z"/>
	<path fill="#FFFFFF" d="M39.049,31.504c-0.162-0.926,0.123-1.91,0.869-2.625c1.229-1.172,3.207-1.172,4.432,0l17.732,16.998
		c0.745,0.713,1.031,1.695,0.868,2.621c-0.104-0.594-0.39-1.163-0.868-1.621L44.35,29.879c-1.225-1.171-3.203-1.171-4.432,0
		C39.438,30.338,39.153,30.91,39.049,31.504z M55.433,49.001l-0.522-0.5L39.922,62.873c-0.745,0.714-1.029,1.698-0.867,2.624
		c0.104-0.595,0.389-1.165,0.867-1.624L55.433,49.001z"/>
	<linearGradient id="SVGID_4_" gradientUnits="userSpaceOnUse" x1="50.999" y1="68" x2="50.999" y2="30.5044">
		<stop  offset="0" style="stop-color:#000000"/>
		<stop  offset="1" style="stop-color:#000000;stop-opacity:0"/>
	</linearGradient>
	<path fill="url(#SVGID_4_)" fill-opacity="0.06" d="M39.918,33.131c-0.746-0.716-1.031-1.7-0.869-2.627
		c0.104,0.596,0.39,1.168,0.869,1.627l15.515,14.87l-0.521,0.5L39.918,33.131z M62.082,49.125L44.354,66.121
		c-1.222,1.173-3.208,1.173-4.433,0c-0.479-0.459-0.764-1.029-0.867-1.624c-0.162,0.926,0.122,1.909,0.867,2.623
		c1.225,1.173,3.211,1.173,4.433,0l17.728-16.996c0.745-0.716,1.03-1.7,0.868-2.626C62.846,48.094,62.561,48.664,62.082,49.125z"/>
</g>
</svg>
