<?xml version="1.0" encoding="utf-8"?>
<!-- Generator: Adobe Illustrator 15.0.2, SVG Export Plug-In . SVG Version: 6.00 Build 0)  -->
<!DOCTYPE svg PUBLIC "-//W3C//DTD SVG 1.1//EN" "http://www.w3.org/Graphics/SVG/1.1/DTD/svg11.dtd">
<svg version="1.1" id="Layer_1" xmlns="http://www.w3.org/2000/svg" xmlns:xlink="http://www.w3.org/1999/xlink" x="0px" y="0px"
	 width="96px" height="96px" viewBox="0 0 96 96" enable-background="new 0 0 96 96" xml:space="preserve">
<g>
	<rect fill="none" width="96" height="96"/>
	<path fill-opacity="0.4" d="M88,49c0,29.634-10.363,40-40,40C18.366,89,8,78.634,8,49C8,19.365,18.366,9,48,9
		C77.637,9,88,19.365,88,49z"/>
	
		<linearGradient id="SVGID_1_" gradientUnits="userSpaceOnUse" x1="-126.0005" y1="122.3984" x2="-126.0005" y2="197.2355" gradientTransform="matrix(1 0 0 -1 174 219)">
		<stop  offset="0" style="stop-color:#006325"/>
		<stop  offset="1" style="stop-color:#80C341"/>
	</linearGradient>
	<path fill="url(#SVGID_1_)" d="M88,48c0,29.634-10.363,40-40,40C18.366,88,8,77.634,8,48C8,18.365,18.366,8,48,8
		C77.637,8,88,18.365,88,48z"/>
	
		<linearGradient id="SVGID_2_" gradientUnits="userSpaceOnUse" x1="-300.2749" y1="506.6982" x2="-300.2749" y2="585.9434" gradientTransform="matrix(1 0 0 1 348.2749 -498.4453)">
		<stop  offset="0" style="stop-color:#FFFFFF"/>
		<stop  offset="1" style="stop-color:#FFFFFF;stop-opacity:0"/>
	</linearGradient>
	<path fill="url(#SVGID_2_)" fill-opacity="0.25" d="M48,8C18.366,8,8,18.365,8,48c0,29.634,10.366,40,40,40
		c29.637,0,40-10.366,40-40C88,18.365,77.637,8,48,8z M48,87C18.842,87,9,77.158,9,48S18.842,9,48,9s39,9.842,39,39S77.158,87,48,87
		z"/>
	<path fill-opacity="0.05" d="M68,31.5H28c-4.136,0-7.5,3.364-7.5,7.5v12c0,1.379,1.122,2.5,2.5,2.5h50c1.379,0,2.5-1.121,2.5-2.5
		V39C75.5,34.864,72.136,31.5,68,31.5z M58.928,45.5H29.5v-5h29.428C58.644,41.221,58.5,42.057,58.5,43S58.644,44.779,58.928,45.5z"
		/>
	<path fill-opacity="0.07" d="M68,32H28c-3.86,0-7,3.141-7,7v12c0,1.104,0.897,2,2,2h50c1.104,0,2-0.896,2-2V39
		C75,35.141,71.859,32,68,32z M59.732,40C59.246,40.788,59,41.792,59,43s0.246,2.212,0.732,3H29v-6H59.732z"/>
	<path fill-opacity="0.1" d="M68,32.5H28c-3.584,0-6.5,2.916-6.5,6.5v12c0,0.827,0.673,1.5,1.5,1.5h50c0.827,0,1.5-0.673,1.5-1.5V39
		C74.5,35.416,71.584,32.5,68,32.5z M59.5,43c0,1.57,0.442,2.745,1.302,3.5H28.5v-7h32.302C59.942,40.255,59.5,41.43,59.5,43z
		 M67.5,46.198V46.5h-0.302C67.305,46.406,67.406,46.305,67.5,46.198z"/>
	<path fill-opacity="0.15" d="M68,33H28c-3.309,0-6,2.691-6,6v12c0,0.551,0.449,1,1,1h50c0.551,0,1-0.449,1-1V39
		C74,35.691,71.309,33,68,33z M68,43v4h-4H28v-8h36h4V43z M64,39c-2.654,0-4,1.346-4,4s1.346,4,4,4s4-1.346,4-4S66.654,39,64,39z"/>
	<path fill-opacity="0.15" d="M64,39.5c-2.388,0-3.5,1.112-3.5,3.5s1.112,3.5,3.5,3.5s3.5-1.112,3.5-3.5S66.388,39.5,64,39.5z
		 M68,33.5H28c-3.033,0-5.5,2.467-5.5,5.5v12c0,0.276,0.224,0.5,0.5,0.5h50c0.276,0,0.5-0.224,0.5-0.5V39
		C73.5,35.967,71.033,33.5,68,33.5z M68.5,47.5h-41V39c0-0.275,0.224-0.5,0.5-0.5h40c0.275,0,0.5,0.225,0.5,0.5V47.5z"/>
	<linearGradient id="SVGID_3_" gradientUnits="userSpaceOnUse" x1="48.0005" y1="50" x2="48.0005" y2="33.0005">
		<stop  offset="0" style="stop-color:#D0CBC5"/>
		<stop  offset="0.5031" style="stop-color:#FAFCEF"/>
		<stop  offset="0.9693" style="stop-color:#FFFFFF"/>
		<stop  offset="1" style="stop-color:#FFFFFF"/>
	</linearGradient>
	<path fill="url(#SVGID_3_)" d="M68,33H28c-2.757,0-5,2.243-5,5v12h50V38C73,35.243,70.757,33,68,33z M69,47H27v-9
		c0-0.55,0.45-1,1-1h40c0.55,0,1,0.45,1,1V47z M64,39c-2.103,0-3,0.897-3,3s0.897,3,3,3s3-0.897,3-3S66.103,39,64,39z"/>
	<linearGradient id="SVGID_4_" gradientUnits="userSpaceOnUse" x1="48.0005" y1="50" x2="48.0005" y2="36.0005">
		<stop  offset="0" style="stop-color:#000000"/>
		<stop  offset="1" style="stop-color:#000000;stop-opacity:0"/>
	</linearGradient>
	<path fill="url(#SVGID_4_)" fill-opacity="0.06" d="M61,42c0-0.18,0.016-0.338,0.029-0.5C61.172,43.237,62.077,44,64,44
		s2.828-0.763,2.971-2.5C66.984,41.662,67,41.82,67,42c0,2.103-0.897,3-3,3S61,44.103,61,42z M23,50h50v-1H23V50z M68,36H28
		c-0.55,0-1,0.45-1,1v1c0-0.55,0.45-1,1-1h40c0.55,0,1,0.45,1,1v-1C69,36.45,68.55,36,68,36z"/>
	<path fill="#FFFFFF" d="M27,48v-1h42v1H27z M64,39c-2.103,0-3,0.897-3,3c0,0.18,0.016,0.338,0.029,0.5
		C61.172,40.763,62.077,40,64,40s2.828,0.763,2.971,2.5C66.984,42.338,67,42.18,67,42C67,39.897,66.103,39,64,39z M68,33H28
		c-2.757,0-5,2.243-5,5v1c0-2.757,2.243-5,5-5h40c2.757,0,5,2.243,5,5v-1C73,35.243,70.757,33,68,33z"/>
</g>
</svg>
