<?xml version="1.0"?>
<!-- Converted with SVG Converter - Version 0.9.5 (Compiled Mon May 30 09:25:05 2011) - Copyright (C) 2011 Nokia -->
<svg xmlns="http://www.w3.org/2000/svg" width="130px" x="0px" version="1.1" y="0px" height="64px" viewBox="0 0 130 64" xmlns:xlink="http://www.w3.org/1999/xlink" baseProfile="tiny" id="Layer_1" xml:space="preserve">
 <g>
  <rect width="130" fill="none" height="64"/>
  <g>
   <path stroke-opacity="0.1" fill-opacity="0.1" d="M25.214,9.58c13.365,0,24.204,10.838,24.204,24.204c0,13.368-10.839,24.206-24.204,24.206&#xd;&#xa;&#x9;&#x9;&#x9;C11.846,57.99,1.01,47.152,1.01,33.784C1.01,20.418,11.846,9.58,25.214,9.58 M25.214,8.572C11.311,8.572,0,19.884,0,33.784&#xd;&#xa;&#x9;&#x9;&#x9;C0,47.688,11.311,59,25.214,59c13.901,0,25.214-11.312,25.214-25.216C50.428,19.884,39.115,8.572,25.214,8.572L25.214,8.572z"/>
   <path stroke-opacity="0.2" fill-opacity="0.2" d="M50.887,12.723c0.787-0.787,0.787-2.064,0-2.854l-1.426-1.425c-0.788-0.788-2.066-0.788-2.854,0&#xd;&#xa;&#x9;&#x9;&#x9;l-5.705,5.704c-0.233,0.234-0.389,0.515-0.484,0.809c-4.156-3.36-9.443-5.377-15.204-5.377C11.846,9.58,1.01,20.418,1.01,33.784&#xd;&#xa;&#x9;&#x9;&#x9;c0,13.368,10.836,24.206,24.204,24.206c13.365,0,24.204-10.838,24.204-24.206c0-5.599-1.908-10.753-5.103-14.854&#xd;&#xa;&#x9;&#x9;&#x9;c0.316-0.094,0.616-0.253,0.866-0.502L50.887,12.723z"/>
  </g>
  <g>
   <path fill="#FFFFFF" d="M51.184,9.749c0.791-0.79,0.791-2.077,0-2.87l-1.437-1.433c-0.79-0.794-2.075-0.794-2.868,0l-5.74,5.737&#xd;&#xa;&#x9;&#x9;&#x9;c-0.047,0.051-0.081,0.105-0.126,0.154c-4.311-3.396-9.748-5.43-15.653-5.43C11.378,5.908,0,17.285,0,31.268&#xd;&#xa;&#x9;&#x9;&#x9;c0,13.985,11.378,25.359,25.359,25.359c13.986,0,25.36-11.374,25.36-25.359c0-5.904-2.033-11.34-5.431-15.654&#xd;&#xa;&#x9;&#x9;&#x9;c0.053-0.043,0.107-0.076,0.156-0.127L51.184,9.749z"/>
   <linearGradient id="SVGID_1_" y1="13.4053" x1="43.2393" y2="6.261" gradientUnits="userSpaceOnUse" x2="50.3835">
    <stop offset="0.16" style="stop-color:#0A0A0A"/>
    <stop offset="0.33" style="stop-color:#000000;stop-opacity:0.2"/>
    <stop offset="0.5" style="stop-color:#000000;stop-opacity:0"/>
   </linearGradient>
   <path fill="url(#SVGID_1_)" fill-opacity="0.15" d="M51.101,6.979l-1.438-1.436c-0.79-0.791-2.075-0.791-2.868,0l-5.709,5.709&#xd;&#xa;&#x9;&#x9;&#x9;c1.602,1.262,3.047,2.703,4.307,4.306l5.708-5.708C51.892,9.057,51.892,7.77,51.101,6.979z"/>
   <path fill="#332630" d="M48.438,31.268c0,12.747-10.332,23.078-23.078,23.078S2.281,44.015,2.281,31.268&#xd;&#xa;&#x9;&#x9;&#x9;c0-12.742,10.332-23.078,23.078-23.078S48.438,18.525,48.438,31.268z"/>
   <path fill="#3E2B2D" d="M31.82,14.651c-12.745,0-23.077,10.335-23.077,23.079c0,4.721,1.421,9.104,3.851,12.761&#xd;&#xa;&#x9;&#x9;&#x9;c3.657,2.436,8.046,3.854,12.766,3.854c12.746,0,23.078-10.331,23.078-23.078c0-4.719-1.421-9.107-3.854-12.762&#xd;&#xa;&#x9;&#x9;&#x9;C40.928,16.076,36.541,14.651,31.82,14.651z"/>
   <linearGradient id="SVGID_2_" y1="50.4941" x1="12.5967" y2="18.5065" gradientUnits="userSpaceOnUse" x2="44.5843">
    <stop offset="0" style="stop-color:#000000;stop-opacity:0.2"/>
    <stop offset="1" style="stop-color:#C69C6D"/>
   </linearGradient>
   <path fill="url(#SVGID_2_)" fill-opacity="0.05" d="M31.82,14.651c-12.745,0-23.077,10.335-23.077,23.079&#xd;&#xa;&#x9;&#x9;&#x9;c0,4.721,1.421,9.104,3.851,12.761c3.657,2.436,8.046,3.854,12.766,3.854c12.746,0,23.078-10.331,23.078-23.078&#xd;&#xa;&#x9;&#x9;&#x9;c0-4.719-1.421-9.107-3.854-12.762C40.928,16.076,36.541,14.651,31.82,14.651z"/>
   <linearGradient id="SVGID_3_" y1="14.77" x1="8.8628" y2="47.7658" gradientUnits="userSpaceOnUse" x2="41.8586">
    <stop offset="0" style="stop-color:#000000"/>
    <stop offset="1" style="stop-color:#000000;stop-opacity:0.2"/>
   </linearGradient>
   <path stroke-opacity="0.25" fill="url(#SVGID_3_)" fill-opacity="0.25" d="M25.359,9.969c11.745,0,21.302,9.552,21.302,21.299&#xd;&#xa;&#x9;&#x9;&#x9;c0,11.746-9.557,21.301-21.302,21.301S4.061,43.014,4.061,31.268C4.061,19.521,13.614,9.969,25.359,9.969 M25.359,7.936&#xd;&#xa;&#x9;&#x9;&#x9;c-12.885,0-23.33,10.447-23.33,23.332s10.445,23.333,23.33,23.333c12.886,0,23.332-10.448,23.332-23.333&#xd;&#xa;&#x9;&#x9;&#x9;S38.245,7.936,25.359,7.936L25.359,7.936z"/>
  </g>
  <path fill="#FFFFFF" d="M55.542,19.861h1.355v9.629h0.085c0.564-0.732,1.129-1.381,1.637-1.977l6.749-7.652h1.639l-7.229,8.078&#xd;&#xa;&#x9;&#x9;l7.907,10.955h-1.61l-7.229-10.021l-1.948,2.142v7.88h-1.355V19.861z M78.754,35.678c0,1.071,0.027,2.172,0.197,3.217h-1.242&#xd;&#xa;&#x9;&#x9;l-0.197-1.948h-0.057c-0.678,1.046-2.175,2.261-4.349,2.261c-2.739,0-3.982-1.921-3.982-3.729c0-3.135,2.739-5.025,8.274-4.969&#xd;&#xa;&#x9;&#x9;v-0.369c0-1.326-0.254-4.009-3.474-3.98c-1.187,0-2.429,0.311-3.417,1.017l-0.424-0.989c1.244-0.818,2.768-1.159,3.982-1.159&#xd;&#xa;&#x9;&#x9;c3.924,0,4.688,2.938,4.688,5.338V35.678z M77.398,31.639c-2.965-0.085-6.862,0.367-6.862,3.615c0,1.947,1.299,2.822,2.712,2.822&#xd;&#xa;&#x9;&#x9;c2.259,0,3.557-1.383,4.01-2.712c0.113-0.28,0.141-0.593,0.141-0.819V31.639z M83.131,18.847h1.355v8.923h0.057&#xd;&#xa;&#x9;&#x9;c0.396-0.764,1.045-1.498,1.836-1.95c0.789-0.505,1.723-0.791,2.738-0.791c1.271,0,4.716,0.653,4.716,5.706v8.16h-1.354v-8.018&#xd;&#xa;&#x9;&#x9;c0-2.459-0.961-4.662-3.729-4.662c-1.919,0-3.501,1.386-4.095,3.053c-0.14,0.424-0.169,0.791-0.169,1.353v8.274h-1.355V18.847z&#xd;&#xa;&#x9;&#x9; M97.562,25.342l3.162,8.414c0.538,1.328,0.962,2.484,1.329,3.614h0.055c0.367-1.13,0.875-2.317,1.385-3.614l3.219-8.414h1.41&#xd;&#xa;&#x9;&#x9;l-5.506,13.553h-1.186l-5.309-13.553H97.562z M112.499,21.472c0,0.622-0.424,1.157-1.13,1.157c-0.619,0-1.043-0.535-1.043-1.157&#xd;&#xa;&#x9;&#x9;c0-0.621,0.48-1.188,1.1-1.188C112.048,20.284,112.499,20.823,112.499,21.472z M110.75,38.895V25.342h1.353v13.553H110.75z"/>
  <path stroke-opacity="0.2" fill="#C69C6D" fill-opacity="0.2" d="M15.836,27.619c-1.109,0-2.012,0.906-2.012,2.018s0.902,2.011,2.012,2.011&#xd;&#xa;&#x9;&#x9;c1.108,0,2.012-0.899,2.012-2.011S16.944,27.619,15.836,27.619z M15.836,30.89c-0.691,0-1.253-0.563-1.253-1.253&#xd;&#xa;&#x9;&#x9;c0-0.691,0.562-1.255,1.253-1.255s1.25,0.563,1.25,1.255C17.086,30.326,16.527,30.89,15.836,30.89z M24.848,26.837&#xd;&#xa;&#x9;&#x9;c0-0.714-0.377-1.343-0.939-1.698c0.151-0.338,0.242-0.707,0.242-1.102c0-1.496-1.22-2.715-2.717-2.715&#xd;&#xa;&#x9;&#x9;c-1.369,0-2.494,1.025-2.675,2.344c-1.059,0.06-1.907,0.932-1.907,2.004c0,0.855,0.542,1.584,1.297,1.877&#xd;&#xa;&#x9;&#x9;c-0.079,0.213-0.129,0.445-0.129,0.688c0,1.111,0.904,2.017,2.016,2.017c0.248,0,0.479-0.052,0.699-0.134&#xd;&#xa;&#x9;&#x9;c0.219,0.082,0.452,0.134,0.699,0.134c0.924,0,1.697-0.631,1.932-1.48C24.219,28.534,24.848,27.76,24.848,26.837z M19.6,24.682&#xd;&#xa;&#x9;&#x9;c0.021,0.015,0.047,0.027,0.064,0.043c-0.008,0.021-0.02,0.043-0.033,0.064C19.619,24.752,19.613,24.718,19.6,24.682z&#xd;&#xa;&#x9;&#x9; M21.236,25.623c-0.077,0.102-0.144,0.211-0.199,0.322c-0.064-0.01-0.12-0.035-0.181-0.053c0.006-0.056,0.017-0.108,0.021-0.164&#xd;&#xa;&#x9;&#x9;C20.986,25.672,21.107,25.643,21.236,25.623z M22.162,25.846c-0.035,0.012-0.071,0.02-0.109,0.031&#xd;&#xa;&#x9;&#x9;c0.025-0.02,0.055-0.036,0.08-0.051C22.143,25.834,22.153,25.837,22.162,25.846z M20.49,27.438&#xd;&#xa;&#x9;&#x9;c0.154,0.082,0.316,0.148,0.494,0.191c0.064,0.15,0.15,0.289,0.252,0.421c-0.34-0.058-0.625-0.241-0.812-0.516&#xd;&#xa;&#x9;&#x9;C20.445,27.502,20.463,27.468,20.49,27.438z M22.133,24.955c-0.219-0.081-0.453-0.131-0.699-0.131c-0.244,0-0.475,0.05-0.691,0.125&#xd;&#xa;&#x9;&#x9;c-0.029-0.075-0.066-0.15-0.107-0.225c0.218-0.184,0.49-0.308,0.799-0.308c0.385,0,0.718,0.185,0.947,0.46&#xd;&#xa;&#x9;&#x9;C22.296,24.898,22.214,24.927,22.133,24.955z M20.22,28.434c0.261,0.197,0.568,0.333,0.905,0.384&#xd;&#xa;&#x9;&#x9;c-0.096,0.177-0.229,0.317-0.391,0.431C20.461,29.057,20.276,28.773,20.22,28.434z M21.98,27.744&#xd;&#xa;&#x9;&#x9;c-0.014-0.049-0.027-0.088-0.042-0.133c0.155-0.041,0.301-0.102,0.438-0.174c0.025,0.03,0.043,0.064,0.066,0.097&#xd;&#xa;&#x9;&#x9;c-0.084,0.124-0.186,0.226-0.311,0.313C22.082,27.811,22.023,27.785,21.98,27.744z M21.434,22.082c1.077,0,1.953,0.878,1.953,1.955&#xd;&#xa;&#x9;&#x9;c0,0.266-0.055,0.521-0.15,0.754c-0.329-0.67-1.012-1.134-1.803-1.134c-0.491,0-0.936,0.181-1.282,0.476&#xd;&#xa;&#x9;&#x9;c-0.19-0.159-0.405-0.281-0.642-0.361C19.641,22.82,20.448,22.082,21.434,22.082z M17.614,25.67c0-0.653,0.508-1.174,1.147-1.232&#xd;&#xa;&#x9;&#x9;c0.082,0.547,0.323,1.035,0.677,1.424c0.014,0.136,0.04,0.266,0.077,0.393c-0.004,0.018-0.01,0.029-0.014,0.051&#xd;&#xa;&#x9;&#x9;c-0.361,0.1-0.683,0.291-0.934,0.557C18.027,26.725,17.614,26.256,17.614,25.67z M18.782,28.234c0-0.203,0.06-0.387,0.146-0.559&#xd;&#xa;&#x9;&#x9;c0.218-0.006,0.424-0.047,0.618-0.121c-0.078,0.216-0.125,0.441-0.125,0.68c0,0.459,0.157,0.876,0.417,1.215&#xd;&#xa;&#x9;&#x9;C19.242,29.352,18.782,28.857,18.782,28.234z M21.631,29.449c0.154-0.201,0.268-0.43,0.335-0.681&#xd;&#xa;&#x9;&#x9;c0.056-0.015,0.112-0.032,0.167-0.052c0.127,0.045,0.254,0.08,0.39,0.101C22.344,29.152,22.018,29.385,21.631,29.449z&#xd;&#xa;&#x9;&#x9; M23.416,27.926c-0.022-0.131-0.056-0.266-0.1-0.392c0.078-0.218,0.129-0.452,0.129-0.697c0-0.204-0.039-0.398-0.094-0.583&#xd;&#xa;&#x9;&#x9;c0.037-0.125,0.062-0.257,0.078-0.393c0.018-0.022,0.035-0.045,0.057-0.068c0.352,0.222,0.599,0.596,0.599,1.044&#xd;&#xa;&#x9;&#x9;C24.085,27.312,23.807,27.715,23.416,27.926z"/>
  <path fill="#92624C" d="M17.312,38.367l1.551-8.303c0.24-1.306,0.411-2.445,0.531-3.412h1.768l-0.291,2.202h0.049&#xd;&#xa;&#x9;&#x9;c1.089-1.646,2.565-2.469,4.115-2.469c1.791,0,2.639,1.138,2.736,2.616c1.041-1.695,2.541-2.591,4.285-2.616&#xd;&#xa;&#x9;&#x9;c1.354,0,2.855,0.872,2.855,3.072c0,0.534-0.072,1.333-0.193,1.987l-1.309,6.922h-1.96l1.259-6.75&#xd;&#xa;&#x9;&#x9;c0.097-0.463,0.17-1.043,0.17-1.527c0-1.235-0.461-2.033-1.768-2.033c-1.453,0-3.195,1.692-3.68,4.309l-1.113,6.002h-1.938&#xd;&#xa;&#x9;&#x9;l1.308-6.875c0.097-0.531,0.146-0.966,0.146-1.428c0-0.99-0.266-2.008-1.742-2.008c-1.453,0-3.293,1.936-3.752,4.431l-1.065,5.88&#xd;&#xa;&#x9;&#x9;H17.312z M39.268,26.652l1.162,6.295c0.266,1.355,0.412,2.227,0.531,3.099h0.049c0.314-0.751,0.654-1.576,1.26-2.883l3.002-6.511&#xd;&#xa;&#x9;&#x9;h2.13l-4.405,8.908c-1.26,2.517-2.445,4.574-4.043,6.148c-1.307,1.33-2.736,1.889-3.39,2.034L35.055,42&#xd;&#xa;&#x9;&#x9;c0.509-0.17,1.355-0.484,2.155-1.113c0.798-0.606,1.646-1.549,2.274-2.713c0.097-0.193,0.097-0.312,0.049-0.531l-2.348-10.99&#xd;&#xa;&#x9;&#x9;H39.268z"/>
 </g>
</svg>
