<?xml version="1.0"?>
<!-- Converted with SVG Converter - Version 0.9.5 (Compiled Mon May 30 09:25:05 2011) - Copyright (C) 2011 Nokia -->
<svg xmlns="http://www.w3.org/2000/svg" width="260px" x="0px" version="1.1" y="0px" height="128px" viewBox="0 0 260 128" xmlns:xlink="http://www.w3.org/1999/xlink" baseProfile="tiny" id="Layer_1" xml:space="preserve">
 <g>
  <rect width="260" fill="none" height="128"/>
  <g>
   <path stroke-opacity="0.1" fill-opacity="0.1" d="M50.428,19.16c26.73,0,48.408,21.676,48.408,48.408&#xd;&#xa;&#x9;&#x9;&#x9;c0,26.736-21.678,48.412-48.408,48.412c-26.735,0-48.408-21.676-48.408-48.412C2.02,40.836,23.692,19.16,50.428,19.16&#xd;&#xa;&#x9;&#x9;&#x9; M50.428,17.145C22.622,17.145,0,39.768,0,67.568C0,95.375,22.622,118,50.428,118c27.803,0,50.429-22.625,50.429-50.432&#xd;&#xa;&#x9;&#x9;&#x9;C100.856,39.768,78.23,17.145,50.428,17.145L50.428,17.145z"/>
   <path stroke-opacity="0.2" fill-opacity="0.2" d="M101.774,25.446c1.573-1.574,1.573-4.128,0-5.708l-2.853-2.851&#xd;&#xa;&#x9;&#x9;&#x9;c-1.576-1.575-4.132-1.575-5.708,0l-11.41,11.408c-0.466,0.468-0.777,1.03-0.968,1.618C72.524,23.194,61.95,19.16,50.428,19.16&#xd;&#xa;&#x9;&#x9;&#x9;C23.692,19.16,2.02,40.836,2.02,67.568c0,26.736,21.673,48.412,48.408,48.412c26.73,0,48.408-21.676,48.408-48.412&#xd;&#xa;&#x9;&#x9;&#x9;c0-11.198-3.816-21.506-10.206-29.708c0.632-0.188,1.232-0.507,1.732-1.005L101.774,25.446z"/>
  </g>
  <g>
   <path fill="#FFFFFF" d="M102.368,19.498c1.582-1.58,1.582-4.154,0-5.74l-2.874-2.866c-1.58-1.588-4.15-1.588-5.736,0&#xd;&#xa;&#x9;&#x9;&#x9;L82.278,22.366c-0.095,0.102-0.162,0.21-0.252,0.308C73.404,15.882,62.53,11.814,50.72,11.814C22.756,11.816,0,34.57,0,62.536&#xd;&#xa;&#x9;&#x9;&#x9;c0,27.97,22.756,50.718,50.718,50.718c27.973,0,50.721-22.748,50.721-50.718c0-11.808-4.066-22.681-10.862-31.308&#xd;&#xa;&#x9;&#x9;&#x9;c0.105-0.087,0.214-0.152,0.312-0.255L102.368,19.498z"/>
   <linearGradient gradientTransform="matrix(1 0 0 -1 -57.5 44)" id="SVGID_1_" y1="17.188" x1="143.9785" y2="31.4766" gradientUnits="userSpaceOnUse" x2="158.2669">
    <stop offset="0.16" style="stop-color:#0A0A0A"/>
    <stop offset="0.33" style="stop-color:#000000;stop-opacity:0.2"/>
    <stop offset="0.5" style="stop-color:#000000;stop-opacity:0"/>
   </linearGradient>
   <path fill="url(#SVGID_1_)" fill-opacity="0.15" d="M102.202,13.958l-2.876-2.872c-1.58-1.582-4.15-1.582-5.736,0L82.172,22.504&#xd;&#xa;&#x9;&#x9;&#x9;c3.204,2.524,6.094,5.406,8.614,8.612L102.202,19.7C103.784,18.114,103.784,15.54,102.202,13.958z"/>
   <path fill="#332630" d="M96.876,62.536c0,25.495-20.664,46.155-46.156,46.155S4.562,88.031,4.562,62.536&#xd;&#xa;&#x9;&#x9;&#x9;c0-25.484,20.664-46.156,46.156-46.156S96.876,37.05,96.876,62.536z"/>
   <path fill="#3E2B2D" d="M63.64,29.302c-25.489,0-46.153,20.67-46.153,46.159c0,9.441,2.842,18.207,7.702,25.521&#xd;&#xa;&#x9;&#x9;&#x9;c7.313,4.871,16.092,7.707,25.531,7.707c25.492,0,46.156-20.662,46.156-46.155c0-9.438-2.842-18.214-7.708-25.524&#xd;&#xa;&#x9;&#x9;&#x9;C81.856,32.152,73.082,29.302,63.64,29.302z"/>
   <linearGradient gradientTransform="matrix(1 0 0 -1 -57.5 44)" id="SVGID_2_" y1="-56.9863" x1="82.6914" y2="6.9903" gradientUnits="userSpaceOnUse" x2="146.668">
    <stop offset="0" style="stop-color:#000000;stop-opacity:0.2"/>
    <stop offset="1" style="stop-color:#C69C6D"/>
   </linearGradient>
   <path fill="url(#SVGID_2_)" fill-opacity="0.05" d="M63.64,29.302c-25.489,0-46.153,20.67-46.153,46.159&#xd;&#xa;&#x9;&#x9;&#x9;c0,9.441,2.842,18.207,7.702,25.521c7.313,4.871,16.092,7.707,25.531,7.707c25.492,0,46.156-20.662,46.156-46.155&#xd;&#xa;&#x9;&#x9;&#x9;c0-9.438-2.842-18.214-7.708-25.524C81.856,32.152,73.082,29.302,63.64,29.302z"/>
   <linearGradient gradientTransform="matrix(1 0 0 -1 -57.5 44)" id="SVGID_3_" y1="14.4585" x1="75.2227" y2="-51.533" gradientUnits="userSpaceOnUse" x2="141.2141">
    <stop offset="0" style="stop-color:#000000"/>
    <stop offset="1" style="stop-color:#000000;stop-opacity:0.2"/>
   </linearGradient>
   <path stroke-opacity="0.25" fill="url(#SVGID_3_)" fill-opacity="0.25" d="M50.718,19.938c23.49,0,42.604,19.104,42.604,42.599&#xd;&#xa;&#x9;&#x9;&#x9;c0,23.491-19.114,42.601-42.604,42.601S8.122,86.027,8.122,62.536C8.122,39.042,27.228,19.938,50.718,19.938 M50.718,15.872&#xd;&#xa;&#x9;&#x9;&#x9;c-25.77,0-46.66,20.894-46.66,46.664c0,25.769,20.891,46.667,46.66,46.667c25.772,0,46.664-20.898,46.664-46.667&#xd;&#xa;&#x9;&#x9;&#x9;C97.382,36.766,76.49,15.872,50.718,15.872L50.718,15.872z"/>
  </g>
  <path fill="#FFFFFF" d="M111.084,39.722h2.71V58.98h0.17c1.128-1.465,2.258-2.763,3.274-3.954l13.498-15.305h3.277l-14.458,16.156&#xd;&#xa;&#x9;&#x9;l15.815,21.911h-3.221l-14.458-20.043l-3.896,4.284v15.759h-2.71V39.722H111.084z M157.508,71.355c0,2.143,0.055,4.344,0.395,6.434&#xd;&#xa;&#x9;&#x9;h-2.484l-0.395-3.895h-0.113c-1.355,2.092-4.352,4.521-8.699,4.521c-5.477,0-7.963-3.842-7.963-7.459&#xd;&#xa;&#x9;&#x9;c0-6.27,5.479-10.049,16.549-9.938v-0.737c0-2.652-0.508-8.019-6.949-7.96c-2.375,0-4.857,0.622-6.834,2.033l-0.848-1.978&#xd;&#xa;&#x9;&#x9;c2.488-1.636,5.537-2.317,7.963-2.317c7.848,0,9.377,5.875,9.377,10.676v10.619H157.508z M154.797,63.278&#xd;&#xa;&#x9;&#x9;c-5.93-0.17-13.725,0.733-13.725,7.229c0,3.895,2.598,5.645,5.424,5.645c4.518,0,7.113-2.766,8.02-5.424&#xd;&#xa;&#x9;&#x9;c0.227-0.561,0.281-1.186,0.281-1.639V63.278L154.797,63.278z M166.262,37.694h2.711V55.54h0.113c0.793-1.528,2.09-2.996,3.672-3.9&#xd;&#xa;&#x9;&#x9;c1.578-1.01,3.445-1.582,5.477-1.582c2.543,0,9.432,1.307,9.432,11.412v16.319h-2.709V61.754c0-4.918-1.922-9.324-7.457-9.324&#xd;&#xa;&#x9;&#x9;c-3.838,0-7.002,2.772-8.191,6.106c-0.277,0.848-0.336,1.582-0.336,2.706v16.547h-2.711V37.694z M195.125,50.684l6.324,16.828&#xd;&#xa;&#x9;&#x9;c1.074,2.656,1.922,4.969,2.656,7.229h0.109c0.734-2.26,1.75-4.635,2.771-7.229l6.438-16.828h2.82l-11.012,27.105h-2.373&#xd;&#xa;&#x9;&#x9;l-10.617-27.105H195.125z M224.998,42.944c0,1.243-0.848,2.313-2.26,2.313c-1.238,0-2.086-1.07-2.086-2.313&#xd;&#xa;&#x9;&#x9;c0-1.242,0.961-2.376,2.199-2.376C224.096,40.568,224.998,41.646,224.998,42.944z M221.5,77.789V50.684h2.707v27.105H221.5z"/>
  <path stroke-opacity="0.2" fill="#C69C6D" fill-opacity="0.2" d="M31.672,55.238c-2.218,0-4.023,1.812-4.023,4.036&#xd;&#xa;&#x9;&#x9;c0,2.224,1.804,4.021,4.023,4.021c2.216,0,4.024-1.798,4.024-4.021C35.696,57.05,33.888,55.238,31.672,55.238z M31.672,61.78&#xd;&#xa;&#x9;&#x9;c-1.382,0-2.506-1.126-2.506-2.506c0-1.383,1.124-2.511,2.506-2.511s2.5,1.126,2.5,2.511C34.172,60.652,33.054,61.78,31.672,61.78z&#xd;&#xa;&#x9;&#x9; M49.696,53.674c0-1.428-0.754-2.686-1.878-3.396c0.302-0.677,0.483-1.414,0.483-2.204c0-2.992-2.439-5.43-5.434-5.43&#xd;&#xa;&#x9;&#x9;c-2.738,0-4.988,2.05-5.351,4.688c-2.117,0.12-3.813,1.864-3.813,4.008c0,1.71,1.084,3.168,2.594,3.754&#xd;&#xa;&#x9;&#x9;c-0.158,0.426-0.258,0.891-0.258,1.376c0,2.223,1.808,4.034,4.032,4.034c0.496,0,0.958-0.104,1.397-0.268&#xd;&#xa;&#x9;&#x9;c0.438,0.164,0.904,0.268,1.398,0.268c1.848,0,3.394-1.262,3.864-2.96C48.438,57.068,49.696,55.52,49.696,53.674z M39.2,49.364&#xd;&#xa;&#x9;&#x9;c0.042,0.03,0.094,0.054,0.128,0.086c-0.017,0.042-0.04,0.086-0.066,0.128C39.238,49.504,39.226,49.436,39.2,49.364z&#xd;&#xa;&#x9;&#x9; M42.472,51.246c-0.153,0.204-0.288,0.422-0.397,0.644c-0.128-0.02-0.24-0.069-0.362-0.105c0.012-0.112,0.034-0.216,0.042-0.328&#xd;&#xa;&#x9;&#x9;C41.972,51.344,42.214,51.286,42.472,51.246z M44.324,51.692c-0.07,0.023-0.143,0.04-0.218,0.062&#xd;&#xa;&#x9;&#x9;c0.05-0.04,0.109-0.072,0.159-0.102C44.286,51.668,44.306,51.674,44.324,51.692z M40.98,54.876&#xd;&#xa;&#x9;&#x9;c0.308,0.164,0.632,0.296,0.987,0.382c0.128,0.3,0.3,0.578,0.504,0.842c-0.68-0.115-1.25-0.481-1.624-1.031&#xd;&#xa;&#x9;&#x9;C40.89,55.004,40.926,54.936,40.98,54.876z M44.266,49.91c-0.438-0.162-0.905-0.262-1.397-0.262c-0.488,0-0.95,0.1-1.382,0.25&#xd;&#xa;&#x9;&#x9;c-0.059-0.15-0.133-0.301-0.214-0.45c0.436-0.368,0.979-0.616,1.598-0.616c0.77,0,1.436,0.37,1.894,0.92&#xd;&#xa;&#x9;&#x9;C44.592,49.796,44.428,49.854,44.266,49.91z M40.44,56.868c0.521,0.394,1.136,0.666,1.81,0.768&#xd;&#xa;&#x9;&#x9;c-0.192,0.354-0.458,0.634-0.782,0.862C40.922,58.114,40.552,57.546,40.44,56.868z M43.96,55.488&#xd;&#xa;&#x9;&#x9;c-0.028-0.099-0.054-0.176-0.084-0.267c0.31-0.082,0.602-0.204,0.876-0.348c0.05,0.06,0.086,0.128,0.132,0.194&#xd;&#xa;&#x9;&#x9;c-0.168,0.248-0.372,0.451-0.622,0.626C44.164,55.622,44.046,55.57,43.96,55.488z M42.868,44.164c2.154,0,3.906,1.756,3.906,3.91&#xd;&#xa;&#x9;&#x9;c0,0.531-0.11,1.042-0.301,1.508c-0.657-1.34-2.023-2.268-3.605-2.268c-0.982,0-1.872,0.361-2.564,0.951&#xd;&#xa;&#x9;&#x9;c-0.38-0.317-0.81-0.562-1.284-0.722C39.282,45.64,40.896,44.164,42.868,44.164z M35.228,51.34c0-1.306,1.017-2.348,2.295-2.464&#xd;&#xa;&#x9;&#x9;c0.163,1.094,0.646,2.07,1.354,2.848c0.028,0.272,0.08,0.532,0.154,0.786c-0.008,0.036-0.021,0.059-0.028,0.103&#xd;&#xa;&#x9;&#x9;c-0.722,0.2-1.366,0.582-1.868,1.113C36.054,53.45,35.228,52.512,35.228,51.34z M37.564,56.468c0-0.405,0.119-0.773,0.292-1.118&#xd;&#xa;&#x9;&#x9;c0.436-0.012,0.848-0.094,1.235-0.241c-0.156,0.432-0.25,0.882-0.25,1.359c0,0.918,0.314,1.752,0.834,2.431&#xd;&#xa;&#x9;&#x9;C38.484,58.704,37.564,57.714,37.564,56.468z M43.262,58.898c0.309-0.402,0.536-0.86,0.67-1.362&#xd;&#xa;&#x9;&#x9;c0.112-0.03,0.225-0.064,0.334-0.104c0.254,0.09,0.509,0.16,0.78,0.202C44.688,58.304,44.036,58.77,43.262,58.898z M46.832,55.852&#xd;&#xa;&#x9;&#x9;c-0.044-0.262-0.112-0.531-0.2-0.783c0.156-0.437,0.258-0.904,0.258-1.395c0-0.408-0.078-0.796-0.188-1.166&#xd;&#xa;&#x9;&#x9;c0.074-0.25,0.124-0.514,0.156-0.786c0.035-0.044,0.069-0.09,0.113-0.136c0.704,0.444,1.198,1.192,1.198,2.088&#xd;&#xa;&#x9;&#x9;C48.17,54.624,47.614,55.43,46.832,55.852z"/>
  <path fill="#92624C" d="M34.624,76.734l3.102-16.606c0.48-2.612,0.822-4.89,1.062-6.824h3.536l-0.582,4.404h0.098&#xd;&#xa;&#x9;&#x9;c2.178-3.292,5.13-4.938,8.23-4.938c3.582,0,5.277,2.276,5.472,5.232c2.082-3.39,5.082-5.182,8.57-5.232&#xd;&#xa;&#x9;&#x9;c2.708,0,5.71,1.744,5.71,6.145c0,1.068-0.145,2.666-0.387,3.974l-2.617,13.845h-3.92l2.518-13.5&#xd;&#xa;&#x9;&#x9;c0.194-0.927,0.34-2.086,0.34-3.055c0-2.47-0.922-4.065-3.536-4.065c-2.905,0-6.39,3.384-7.359,8.618l-2.227,12.004h-3.876&#xd;&#xa;&#x9;&#x9;l2.616-13.75c0.194-1.062,0.292-1.933,0.292-2.856c0-1.979-0.532-4.016-3.484-4.016c-2.905,0-6.586,3.872-7.504,8.861l-2.13,11.761&#xd;&#xa;&#x9;&#x9;H34.624z M78.536,53.304l2.324,12.591c0.531,2.709,0.823,4.453,1.062,6.197h0.098c0.629-1.502,1.309-3.152,2.521-5.766&#xd;&#xa;&#x9;&#x9;l6.004-13.022h4.26l-8.81,17.817c-2.521,5.033-4.891,9.146-8.086,12.295c-2.614,2.66-5.473,3.779-6.78,4.068L70.11,84&#xd;&#xa;&#x9;&#x9;c1.018-0.34,2.71-0.969,4.31-2.227c1.596-1.211,3.292-3.098,4.548-5.426c0.194-0.387,0.194-0.625,0.099-1.062L74.37,53.306h4.166&#xd;&#xa;&#x9;&#x9;V53.304z"/>
 </g>
</svg>
