<?xml version="1.0" encoding="UTF-8" standalone="no"?>
<!-- Converted with SVG Converter - Version 0.9.5 (Compiled Mon May 30 09:25:05 2011) - Copyright (C) 2011 Nokia -->

<svg
   xmlns:dc="http://purl.org/dc/elements/1.1/"
   xmlns:cc="http://creativecommons.org/ns#"
   xmlns:rdf="http://www.w3.org/1999/02/22-rdf-syntax-ns#"
   xmlns:svg="http://www.w3.org/2000/svg"
   xmlns="http://www.w3.org/2000/svg"
   xmlns:sodipodi="http://sodipodi.sourceforge.net/DTD/sodipodi-0.dtd"
   xmlns:inkscape="http://www.inkscape.org/namespaces/inkscape"
   width="70px"
   x="0px"
   version="1.1"
   y="0px"
   height="70px"
   viewBox="0 0 70 70"
   id="Layer_1"
   xml:space="preserve"
   inkscape:version="0.48.1 "
   sodipodi:docname="large_all_coffees.svg"><metadata
   id="metadata20"><rdf:RDF><cc:Work
       rdf:about=""><dc:format>image/svg+xml</dc:format><dc:type
         rdf:resource="http://purl.org/dc/dcmitype/StillImage" /></cc:Work></rdf:RDF></metadata><defs
   id="defs18" /><sodipodi:namedview
   pagecolor="#ffffff"
   bordercolor="#666666"
   borderopacity="1"
   objecttolerance="10"
   gridtolerance="10"
   guidetolerance="10"
   inkscape:pageopacity="0"
   inkscape:pageshadow="2"
   inkscape:window-width="1009"
   inkscape:window-height="612"
   id="namedview16"
   showgrid="false"
   inkscape:zoom="4.1571429"
   inkscape:cx="19.489759"
   inkscape:cy="31.436457"
   inkscape:window-x="105"
   inkscape:window-y="103"
   inkscape:window-maximized="0"
   inkscape:current-layer="Layer_1" />
 <rect
   width="70"
   fill="none"
   height="70"
   id="rect3" />
 
 <path
   fill="#9E705C"
   d="M40.822,16.576c3.2,1.279,4.48,8.314,4.48,12.153c0,0.556,0.072,1.065,0.188,1.521h-1.834L41.877,35h23.988
	l-1.779-4.75H48.333c0.104-0.58,0.167-1.286,0.167-2.16c0-6.397-6.397-17.272-8.314-19.833c-1.92-2.557,0,0-3.841,3.2
	c-1.49,1.242-4.043,1.807-6.607,2.035l0.21-5.876L12.679,5.701l1.926,9.469C8.913,17.995,5,23.863,5,30.648
	C5,37.334,8.802,43.129,14.36,46h15.825c5.558-2.871,9.36-8.666,9.36-15.352c0-4.796-1.955-9.134-5.11-12.264
	C36.789,17.091,38.92,15.814,40.822,16.576z M36.984,30.648H7.561c0-8.124,6.585-14.712,14.712-14.712
	C30.396,15.936,36.984,22.524,36.984,30.648z M43.7,55.148h20.341L62.808,66H44.933L43.7,55.148z M65.99,38l-0.908,8H42.66l-0.908-8
	H65.99z M53.87,54.329c-2.115,0-3.831-1.717-3.831-3.828c0-2.118,1.716-3.83,3.831-3.83c2.117,0,3.833,1.712,3.833,3.83
	C57.703,52.612,55.987,54.329,53.87,54.329z"
   id="path7" />
 <linearGradient
   id="SVGID_1_"
   y1="66"
   x1="35.4956"
   y2="5.7012"
   gradientUnits="userSpaceOnUse"
   x2="35.4956">
  <stop
   offset="0"
   style="stop-color:#42210B;stop-opacity:0.1"
   id="stop10" />
  <stop
   offset="1"
   style="stop-color:#59322B;stop-opacity:0"
   id="stop12" />
 </linearGradient>
 <path
   fill="url(#SVGID_1_)"
   d="M40.822,16.576c3.2,1.279,4.48,8.314,4.48,12.153c0,0.556,0.072,1.065,0.188,1.521h-1.834L41.877,35
	h23.988l-1.779-4.75H48.333c0.104-0.58,0.167-1.286,0.167-2.16c0-6.397-6.397-17.272-8.314-19.833c-1.92-2.557,0,0-3.841,3.2
	c-1.49,1.242-4.043,1.807-6.607,2.035l0.21-5.876L12.679,5.701l1.926,9.469C8.913,17.995,5,23.863,5,30.648
	C5,37.334,8.802,43.129,14.36,46h15.825c5.558-2.871,9.36-8.666,9.36-15.352c0-4.796-1.955-9.134-5.11-12.264
	C36.789,17.091,38.92,15.814,40.822,16.576z M36.984,30.648H7.561c0-8.124,6.585-14.712,14.712-14.712
	C30.396,15.936,36.984,22.524,36.984,30.648z M43.7,55.148h20.341L62.808,66H44.933L43.7,55.148z M65.99,38l-0.908,8H42.66l-0.908-8
	H65.99z M53.87,54.329c-2.115,0-3.831-1.717-3.831-3.828c0-2.118,1.716-3.83,3.831-3.83c2.117,0,3.833,1.712,3.833,3.83
	C57.703,52.612,55.987,54.329,53.87,54.329z"
   id="path14" />
</svg>