<?xml version="1.0" encoding="UTF-8" standalone="no"?>
<!-- Converted with SVG Converter - Version 0.9.5 (Compiled Mon May 30 09:25:05 2011) - Copyright (C) 2011 Nokia -->

<svg
   xmlns:dc="http://purl.org/dc/elements/1.1/"
   xmlns:cc="http://creativecommons.org/ns#"
   xmlns:rdf="http://www.w3.org/1999/02/22-rdf-syntax-ns#"
   xmlns:svg="http://www.w3.org/2000/svg"
   xmlns="http://www.w3.org/2000/svg"
   xmlns:sodipodi="http://sodipodi.sourceforge.net/DTD/sodipodi-0.dtd"
   xmlns:inkscape="http://www.inkscape.org/namespaces/inkscape"
   width="70px"
   x="0px"
   version="1.1"
   y="0px"
   height="70px"
   viewBox="0 0 70 70"
   id="Layer_1"
   xml:space="preserve"
   inkscape:version="0.48.1 "
   sodipodi:docname="large_ground_coffees.svg"><metadata
   id="metadata20"><rdf:RDF><cc:Work
       rdf:about=""><dc:format>image/svg+xml</dc:format><dc:type
         rdf:resource="http://purl.org/dc/dcmitype/StillImage" /></cc:Work></rdf:RDF></metadata><defs
   id="defs18" /><sodipodi:namedview
   pagecolor="#ffffff"
   bordercolor="#666666"
   borderopacity="1"
   objecttolerance="10"
   gridtolerance="10"
   guidetolerance="10"
   inkscape:pageopacity="0"
   inkscape:pageshadow="2"
   inkscape:window-width="640"
   inkscape:window-height="480"
   id="namedview16"
   showgrid="false"
   inkscape:zoom="4.1571429"
   inkscape:cx="34.915808"
   inkscape:cy="35"
   inkscape:window-x="0"
   inkscape:window-y="0"
   inkscape:window-maximized="0"
   inkscape:current-layer="Layer_1" />
 <rect
   width="70"
   fill="none"
   height="70"
   id="rect3" />
 
 <path
   fill="#9E705C"
   d="M56.914,13.867c-2.561-3.409,0,0-5.121,4.268c-1.987,1.656-5.391,2.409-8.81,2.713l0.28-7.835l-23.025-2.555
	l2.568,12.626C15.218,26.85,10,34.674,10,43.721c0,8.915,5.069,16.642,12.48,20.469h21.1c7.411-3.827,12.48-11.554,12.48-20.469
	c0-6.395-2.607-12.179-6.814-16.352c3.14-1.725,5.98-3.427,8.518-2.411c4.267,1.705,5.973,11.085,5.973,16.205S68,48.838,68,40.311
	C68,31.781,59.47,17.281,56.914,13.867z M52.646,43.721H13.414c0-10.832,8.78-19.617,19.616-19.617
	C43.861,24.104,52.646,32.889,52.646,43.721z"
   id="path7" />
 <linearGradient
   id="SVGID_1_"
   y1="64.1895"
   x1="39"
   y2="10.458"
   gradientUnits="userSpaceOnUse"
   x2="39">
  <stop
   offset="0"
   style="stop-color:#42210B;stop-opacity:0.1"
   id="stop10" />
  <stop
   offset="1"
   style="stop-color:#59322B;stop-opacity:0"
   id="stop12" />
 </linearGradient>
 <path
   fill="url(#SVGID_1_)"
   d="M56.914,13.867c-2.561-3.409,0,0-5.121,4.268c-1.987,1.656-5.391,2.409-8.81,2.713l0.28-7.835
	l-23.025-2.555l2.568,12.626C15.218,26.85,10,34.674,10,43.721c0,8.915,5.069,16.642,12.48,20.469h21.1
	c7.411-3.827,12.48-11.554,12.48-20.469c0-6.395-2.607-12.179-6.814-16.352c3.14-1.725,5.98-3.427,8.518-2.411
	c4.267,1.705,5.973,11.085,5.973,16.205S68,48.838,68,40.311C68,31.781,59.47,17.281,56.914,13.867z M52.646,43.721H13.414
	c0-10.832,8.78-19.617,19.616-19.617C43.861,24.104,52.646,32.889,52.646,43.721z"
   id="path14" />
</svg>