<?xml version="1.0"?>
<!-- Converted with SVG Converter - Version 0.9.5 (Compiled Mon May 30 09:25:05 2011) - Copyright (C) 2011 Nokia -->
<svg xmlns="http://www.w3.org/2000/svg" width="96px" x="0px" version="1.1" y="0px" height="96px" viewBox="0 0 96 96" xmlns:xlink="http://www.w3.org/1999/xlink" baseProfile="tiny" id="Layer_1" xml:space="preserve">
 <path fill-opacity="0.4" d="M88,49c0,29.634-10.363,40-40,40C18.366,89,8,78.634,8,49C8,19.366,18.366,9,48,9&#xd;&#xa;&#x9;C77.637,9,88,19.366,88,49z"/>
 <g>
  <path fill="#92624C" d="M88,48c0,29.634-10.363,40-40,40C18.366,88,8,77.634,8,48C8,18.366,18.366,8,48,8C77.637,8,88,18.366,88,48&#xd;&#xa;&#x9;&#x9;z"/>
 </g>
 <linearGradient id="SVGID_1_" y1="8" x1="47.9995" y2="88.0005" gradientUnits="userSpaceOnUse" x2="47.9995">
  <stop offset="0" style="stop-color:#000000;stop-opacity:0"/>
  <stop offset="1" style="stop-color:#0A0A0A"/>
 </linearGradient>
 <path fill="url(#SVGID_1_)" fill-opacity="0.5" d="M88,48c0,29.634-10.363,40-40,40C18.366,88,8,77.634,8,48C8,18.366,18.366,8,48,8&#xd;&#xa;&#x9;C77.637,8,88,18.366,88,48z"/>
 <rect width="96" fill="none" height="96"/>
 <linearGradient gradientTransform="matrix(1 0 0 -1 174.2749 219.5547)" id="SVGID_2_" y1="211.3018" x1="-126.2749" y2="132.0566" gradientUnits="userSpaceOnUse" x2="-126.2749">
  <stop offset="0" style="stop-color:#FFFFFF"/>
  <stop offset="1" style="stop-color:#FFFFFF;stop-opacity:0"/>
 </linearGradient>
 <path stroke-opacity="0.15" fill="url(#SVGID_2_)" fill-opacity="0.15" d="M48,8C18.366,8,8,18.366,8,48c0,29.634,10.366,40,40,40&#xd;&#xa;&#x9;c29.637,0,40-10.366,40-40C88,18.366,77.637,8,48,8z M48,87C18.842,87,9,77.158,9,48S18.842,9,48,9s39,9.842,39,39S77.158,87,48,87z&#xd;&#xa;&#x9;"/>
 <g>
  <g>
   <path stroke-opacity="0.02" fill-opacity="0.02" d="M73.985,30.172c1.731-1.73,1.731-4.551,0-6.283l-1.375-1.373c-0.838-0.839-1.953-1.301-3.141-1.301&#xd;&#xa;&#x9;&#x9;&#x9;s-2.303,0.462-3.141,1.301l-4.127,4.125c-4.368-2.889-9.443-4.414-14.708-4.414c-14.767,0-26.779,12.012-26.779,26.779&#xd;&#xa;&#x9;&#x9;&#x9;c0,14.766,12.013,26.779,26.779,26.779c14.767,0,26.781-12.014,26.781-26.779c0-5.264-1.525-10.34-4.415-14.709L73.985,30.172z"/>
   <path stroke-opacity="0.04" fill-opacity="0.04" d="M73.632,29.819c1.536-1.536,1.537-4.038,0-5.577l-1.375-1.373c-0.743-0.744-1.734-1.154-2.787-1.154&#xd;&#xa;&#x9;&#x9;&#x9;c-1.054,0-2.044,0.411-2.787,1.154l-4.418,4.417c-4.363-2.984-9.461-4.559-14.771-4.559c-14.489,0-26.279,11.789-26.279,26.279&#xd;&#xa;&#x9;&#x9;&#x9;s11.79,26.279,26.279,26.279c14.492,0,26.281-11.789,26.281-26.279c0-5.31-1.575-10.406-4.56-14.771L73.632,29.819z"/>
   <path stroke-opacity="0.08" fill-opacity="0.08" d="M73.278,24.596l-1.375-1.373c-0.649-0.651-1.514-1.009-2.434-1.009s-1.784,0.357-2.434,1.009l-4.714,4.712&#xd;&#xa;&#x9;&#x9;&#x9;c-4.355-3.083-9.473-4.708-14.829-4.708c-14.214,0-25.779,11.563-25.779,25.779c0,14.215,11.565,25.779,25.779,25.779&#xd;&#xa;&#x9;&#x9;&#x9;c14.215,0,25.781-11.564,25.781-25.779c0-5.356-1.627-10.473-4.709-14.828l4.713-4.714C74.62,28.123,74.62,25.939,73.278,24.596z"/>
   <path stroke-opacity="0.1" fill-opacity="0.1" d="M72.925,24.949l-1.375-1.373c-0.556-0.556-1.294-0.862-2.08-0.862s-1.523,0.306-2.08,0.862l-5.015,5.013&#xd;&#xa;&#x9;&#x9;&#x9;c-4.346-3.183-9.481-4.862-14.881-4.862c-13.939,0-25.279,11.34-25.279,25.279c0,13.94,11.34,25.279,25.279,25.279&#xd;&#xa;&#x9;&#x9;&#x9;c13.94,0,25.281-11.339,25.281-25.279c0-5.398-1.68-10.535-4.863-14.881l5.014-5.014C74.072,27.964,74.072,26.098,72.925,24.949z"/>
   <path stroke-opacity="0.12" fill-opacity="0.12" d="M72.571,25.303l-1.375-1.374c-0.461-0.46-1.074-0.715-1.727-0.715s-1.266,0.254-1.727,0.715l-5.32,5.319&#xd;&#xa;&#x9;&#x9;&#x9;c-4.333-3.288-9.485-5.021-14.929-5.021c-13.663,0-24.779,11.115-24.779,24.779s11.117,24.779,24.779,24.779&#xd;&#xa;&#x9;&#x9;&#x9;c13.665,0,24.781-11.115,24.781-24.779c0-5.443-1.734-10.595-5.022-14.93l5.319-5.318C73.522,27.806,73.522,26.256,72.571,25.303z&#xd;&#xa;&#x9;&#x9;&#x9;"/>
  </g>
  <path fill="#FFFFFF" d="M72.218,27.404c0.758-0.757,0.758-1.99,0-2.748l-1.375-1.373c-0.758-0.758-1.988-0.758-2.746,0&#xd;&#xa;&#x9;&#x9;l-5.496,5.494c-0.044,0.047-0.078,0.1-0.119,0.149c-4.129-3.252-9.334-5.199-14.988-5.199c-13.386,0-24.279,10.892-24.279,24.279&#xd;&#xa;&#x9;&#x9;c0,13.388,10.893,24.279,24.279,24.279c13.39,0,24.281-10.891,24.281-24.279c0-5.653-1.947-10.858-5.199-14.989&#xd;&#xa;&#x9;&#x9;c0.049-0.04,0.102-0.072,0.147-0.12L72.218,27.404z"/>
  <linearGradient id="SVGID_3_" y1="30.9053" x1="64.6113" y2="24.0642" gradientUnits="userSpaceOnUse" x2="71.4524">
   <stop offset="0.16" style="stop-color:#0A0A0A"/>
   <stop offset="0.33" style="stop-color:#000000;stop-opacity:0.2"/>
   <stop offset="0.5" style="stop-color:#000000;stop-opacity:0"/>
  </linearGradient>
  <path fill="url(#SVGID_3_)" fill-opacity="0.15" d="M72.138,24.75l-1.375-1.373c-0.758-0.758-1.988-0.758-2.746,0l-5.467,5.467&#xd;&#xa;&#x9;&#x9;c1.532,1.205,2.916,2.587,4.122,4.121l5.466-5.464C72.896,26.742,72.896,25.509,72.138,24.75z"/>
  <circle fill="#332630" cx="47.494" cy="48.006" r="22.095"/>
  <path fill="#3E2B2D" d="M53.681,32.098c-12.203,0-22.095,9.893-22.095,22.093c0,4.519,1.36,8.719,3.688,12.219&#xd;&#xa;&#x9;&#x9;c3.5,2.33,7.703,3.692,12.221,3.692c12.203,0,22.095-9.896,22.095-22.096c0-4.52-1.36-8.721-3.691-12.219&#xd;&#xa;&#x9;&#x9;C62.399,33.459,58.199,32.098,53.681,32.098z"/>
  <linearGradient id="SVGID_4_" y1="66.4121" x1="35.2749" y2="35.7883" gradientUnits="userSpaceOnUse" x2="65.8987">
   <stop offset="0" style="stop-color:#000000;stop-opacity:0.2"/>
   <stop offset="1" style="stop-color:#C69C6D"/>
  </linearGradient>
  <path fill="url(#SVGID_4_)" fill-opacity="0.1" d="M53.681,32.098c-12.203,0-22.095,9.893-22.095,22.093&#xd;&#xa;&#x9;&#x9;c0,4.519,1.36,8.719,3.688,12.219c3.5,2.33,7.703,3.692,12.221,3.692c12.203,0,22.095-9.896,22.095-22.096&#xd;&#xa;&#x9;&#x9;c0-4.52-1.36-8.721-3.691-12.219C62.399,33.459,58.199,32.098,53.681,32.098z"/>
  <linearGradient id="SVGID_5_" y1="32.2109" x1="31.6992" y2="63.8008" gradientUnits="userSpaceOnUse" x2="63.2891">
   <stop offset="0" style="stop-color:#000000"/>
   <stop offset="1" style="stop-color:#000000;stop-opacity:0.2"/>
  </linearGradient>
  <path stroke-opacity="0.25" fill="url(#SVGID_5_)" fill-opacity="0.25" d="M47.494,27.614c11.245,0,20.395,9.146,20.395,20.393&#xd;&#xa;&#x9;&#x9;c0,11.244-9.15,20.394-20.395,20.394s-20.392-9.15-20.392-20.394C27.102,36.759,36.249,27.614,47.494,27.614 M47.494,25.667&#xd;&#xa;&#x9;&#x9;c-12.335,0-22.336,10.002-22.336,22.339c0,12.335,10.001,22.337,22.336,22.337c12.336,0,22.338-10.002,22.338-22.337&#xd;&#xa;&#x9;&#x9;C69.832,35.67,59.83,25.667,47.494,25.667L47.494,25.667z"/>
  <path stroke-opacity="0.2" fill="#C69C6D" fill-opacity="0.2" d="M38.376,44.514c-1.062,0-1.927,0.866-1.927,1.93c0,1.062,0.865,1.925,1.927,1.925&#xd;&#xa;&#x9;&#x9;c1.061,0,1.927-0.862,1.927-1.925C40.303,45.379,39.437,44.514,38.376,44.514z M38.376,47.643c-0.663,0-1.2-0.54-1.2-1.199&#xd;&#xa;&#x9;&#x9;c0-0.663,0.537-1.202,1.2-1.202c0.661,0,1.197,0.54,1.197,1.202C39.573,47.103,39.037,47.643,38.376,47.643z M47.003,43.764&#xd;&#xa;&#x9;&#x9;c0-0.686-0.36-1.286-0.899-1.625c0.146-0.324,0.23-0.679,0.23-1.056c0-1.433-1.167-2.598-2.599-2.598&#xd;&#xa;&#x9;&#x9;c-1.312,0-2.387,0.98-2.562,2.244c-1.013,0.058-1.824,0.891-1.824,1.919c0,0.817,0.517,1.516,1.241,1.795&#xd;&#xa;&#x9;&#x9;c-0.076,0.205-0.124,0.427-0.124,0.66c0,1.063,0.866,1.929,1.929,1.929c0.236,0,0.459-0.049,0.669-0.127&#xd;&#xa;&#x9;&#x9;c0.209,0.078,0.434,0.127,0.67,0.127c0.884,0,1.624-0.603,1.85-1.417C46.401,45.389,47.003,44.647,47.003,43.764z M41.979,41.699&#xd;&#xa;&#x9;&#x9;c0.021,0.016,0.044,0.026,0.063,0.043c-0.008,0.02-0.021,0.04-0.032,0.06C41.997,41.768,41.991,41.734,41.979,41.699z M43.546,42.6&#xd;&#xa;&#x9;&#x9;c-0.073,0.099-0.138,0.203-0.191,0.311c-0.06-0.011-0.113-0.036-0.172-0.051c0.006-0.053,0.015-0.103,0.019-0.156&#xd;&#xa;&#x9;&#x9;C43.307,42.648,43.424,42.621,43.546,42.6z M44.432,42.812c-0.033,0.014-0.068,0.022-0.103,0.031&#xd;&#xa;&#x9;&#x9;c0.024-0.018,0.051-0.033,0.075-0.049C44.415,42.803,44.424,42.806,44.432,42.812z M42.833,44.337&#xd;&#xa;&#x9;&#x9;c0.146,0.078,0.303,0.143,0.472,0.183c0.062,0.146,0.146,0.279,0.242,0.404c-0.326-0.055-0.597-0.23-0.778-0.493&#xd;&#xa;&#x9;&#x9;C42.79,44.4,42.806,44.367,42.833,44.337z M44.405,41.96c-0.209-0.077-0.435-0.125-0.67-0.125c-0.233,0-0.455,0.048-0.663,0.122&#xd;&#xa;&#x9;&#x9;c-0.028-0.074-0.064-0.145-0.102-0.216c0.208-0.177,0.469-0.295,0.765-0.295c0.368,0,0.687,0.176,0.907,0.439&#xd;&#xa;&#x9;&#x9;C44.561,41.906,44.482,41.933,44.405,41.96z M42.574,45.291c0.248,0.189,0.543,0.319,0.866,0.37c-0.09,0.167-0.22,0.302-0.374,0.41&#xd;&#xa;&#x9;&#x9;C42.804,45.889,42.628,45.617,42.574,45.291z M44.258,44.631c-0.013-0.046-0.027-0.084-0.04-0.127&#xd;&#xa;&#x9;&#x9;c0.148-0.04,0.288-0.096,0.419-0.167c0.025,0.029,0.042,0.062,0.064,0.094c-0.08,0.118-0.179,0.216-0.298,0.299&#xd;&#xa;&#x9;&#x9;C44.356,44.696,44.301,44.672,44.258,44.631z M43.735,39.212c1.03,0,1.87,0.839,1.87,1.87c0,0.255-0.052,0.5-0.145,0.721&#xd;&#xa;&#x9;&#x9;c-0.314-0.641-0.967-1.084-1.725-1.084c-0.47,0-0.895,0.174-1.228,0.455c-0.182-0.151-0.388-0.27-0.615-0.346&#xd;&#xa;&#x9;&#x9;C42.018,39.917,42.791,39.212,43.735,39.212z M40.078,42.647c0-0.627,0.486-1.125,1.099-1.18c0.078,0.522,0.308,0.991,0.649,1.363&#xd;&#xa;&#x9;&#x9;c0.011,0.129,0.036,0.252,0.073,0.375c-0.004,0.016-0.009,0.029-0.015,0.049c-0.345,0.094-0.652,0.277-0.892,0.533&#xd;&#xa;&#x9;&#x9;C40.473,43.656,40.078,43.208,40.078,42.647z M41.196,45.102c0-0.196,0.057-0.372,0.14-0.535c0.208-0.006,0.406-0.047,0.593-0.116&#xd;&#xa;&#x9;&#x9;c-0.074,0.205-0.121,0.422-0.121,0.651c0,0.438,0.152,0.837,0.4,1.162C41.638,46.17,41.196,45.697,41.196,45.102z M43.924,46.264&#xd;&#xa;&#x9;&#x9;c0.147-0.193,0.255-0.412,0.321-0.652c0.054-0.013,0.108-0.029,0.161-0.049c0.12,0.045,0.244,0.076,0.373,0.098&#xd;&#xa;&#x9;&#x9;C44.605,45.98,44.295,46.201,43.924,46.264z M45.633,44.806c-0.021-0.127-0.053-0.255-0.097-0.375&#xd;&#xa;&#x9;&#x9;c0.077-0.208,0.126-0.433,0.126-0.667c0-0.197-0.039-0.382-0.092-0.559c0.037-0.121,0.061-0.246,0.074-0.375&#xd;&#xa;&#x9;&#x9;c0.019-0.022,0.034-0.044,0.054-0.066c0.339,0.211,0.575,0.571,0.575,1C46.274,44.219,46.008,44.603,45.633,44.806z"/>
 </g>
</svg>
