<?xml version="1.0"?>
<!-- Converted with SVG Converter - Version 0.9.5 (Compiled Mon May 30 09:25:05 2011) - Copyright (C) 2011 Nokia -->
<svg xmlns="http://www.w3.org/2000/svg" width="30px" x="0px" version="1.1" y="0px" height="30px" viewBox="0 0 30 30" xmlns:xlink="http://www.w3.org/1999/xlink" baseProfile="tiny" id="Layer_1" xml:space="preserve">
 <rect width="30" fill="none" height="30"/>
 <path fill-opacity="0.15" d="M23,6H7C6.448,6,6,6.448,6,7c0,5.203,1.559,9.947,4.17,12.689C10.359,19.888,10.621,20,10.895,20H2&#xd;&#xa;&#x9;c-0.499,0-0.921,0.367-0.99,0.861c-0.069,0.494,0.236,0.963,0.715,1.101L8,23.754V24c0,0.553,0.448,1,1,1h12c0.553,0,1-0.447,1-1&#xd;&#xa;&#x9;v-0.246l6.274-1.792c0.479-0.138,0.785-0.606,0.716-1.101S28.499,20,28,20h-8.895c0.273,0,0.536-0.112,0.725-0.311&#xd;&#xa;&#x9;c0.837-0.88,1.574-1.979,2.194-3.271c0.068-0.014,0.137-0.028,0.206-0.045c1.846-0.444,3.501-1.26,4.661-2.299&#xd;&#xa;&#x9;c1.326-1.187,1.886-2.548,1.576-3.831c-0.391-1.62-2.068-2.697-4.472-2.927C23.998,7.212,24,7.106,24,7C24,6.448,23.553,6,23,6L23,6&#xd;&#xa;&#x9;z M23.438,12.216c0.098-0.458,0.185-0.928,0.258-1.409c0.58,0.06,0.974,0.189,1.207,0.298c-0.078,0.1-0.189,0.224-0.345,0.361&#xd;&#xa;&#x9;C24.259,11.734,23.877,11.988,23.438,12.216L23.438,12.216z"/>
 <path fill-opacity="0.3" d="M19.105,18c0.862-0.906,1.619-2.091,2.231-3.478c0.22-0.041,0.437-0.066,0.659-0.12&#xd;&#xa;&#x9;c3.49-0.84,5.953-3.045,5.5-4.924c-0.334-1.385-2.157-2.207-4.49-2.207c-0.018,0-0.037,0.003-0.055,0.003&#xd;&#xa;&#x9;C22.974,6.853,23,6.433,23,6H7c0,5.102,1.564,9.553,3.895,12H19.105z M23.006,8.771c1.895,0,2.93,0.632,3.032,1.059&#xd;&#xa;&#x9;c0.079,0.327-0.241,0.87-0.813,1.382c-0.779,0.698-1.957,1.279-3.256,1.637c0.402-1.247,0.687-2.618,0.854-4.065&#xd;&#xa;&#x9;C22.884,8.782,22.946,8.771,23.006,8.771z M28,20l-7,2v1H9v-1l-7-2H28z"/>
 <path fill="#FFFFFF" d="M19.105,19c0.862-0.906,1.619-2.091,2.231-3.478c0.22-0.041,0.437-0.066,0.659-0.12&#xd;&#xa;&#x9;c3.49-0.84,5.953-3.045,5.5-4.924c-0.334-1.385-2.157-2.207-4.49-2.207c-0.018,0-0.037,0.003-0.055,0.003&#xd;&#xa;&#x9;C22.974,7.853,23,7.433,23,7H7c0,5.102,1.564,9.553,3.895,12H19.105z M23.006,9.771c1.895,0,2.93,0.632,3.032,1.059&#xd;&#xa;&#x9;c0.079,0.327-0.241,0.87-0.813,1.382c-0.779,0.698-1.957,1.279-3.256,1.637c0.402-1.247,0.687-2.618,0.854-4.065&#xd;&#xa;&#x9;C22.884,9.782,22.946,9.771,23.006,9.771z M28,21l-7,2v1H9v-1l-7-2H28z"/>
</svg>
