<?xml version="1.0" encoding="UTF-8" standalone="no"?>
<!-- Generator: Adobe Illustrator 15.0.2, SVG Export Plug-In  -->

<svg
   xmlns:dc="http://purl.org/dc/elements/1.1/"
   xmlns:cc="http://creativecommons.org/ns#"
   xmlns:rdf="http://www.w3.org/1999/02/22-rdf-syntax-ns#"
   xmlns:svg="http://www.w3.org/2000/svg"
   xmlns="http://www.w3.org/2000/svg"
   xmlns:sodipodi="http://sodipodi.sourceforge.net/DTD/sodipodi-0.dtd"
   xmlns:inkscape="http://www.inkscape.org/namespaces/inkscape"
   version="1.1"
   x="0px"
   y="0px"
   width="70px"
   height="70px"
   viewBox="0 0 70 70"
   overflow="visible"
   enable-background="new 0 0 70 70"
   xml:space="preserve"
   id="svg3121"
   inkscape:version="0.48.2 r9819"
   sodipodi:docname="graf_textfield_clear_normal.svg"><metadata
   id="metadata3142"><rdf:RDF><cc:Work
       rdf:about=""><dc:format>image/svg+xml</dc:format><dc:type
         rdf:resource="http://purl.org/dc/dcmitype/StillImage" /></cc:Work></rdf:RDF></metadata><sodipodi:namedview
   pagecolor="#ffffff"
   bordercolor="#666666"
   borderopacity="1"
   objecttolerance="10"
   gridtolerance="10"
   guidetolerance="10"
   inkscape:pageopacity="0"
   inkscape:pageshadow="2"
   inkscape:window-width="1280"
   inkscape:window-height="1002"
   id="namedview3140"
   showgrid="false"
   inkscape:zoom="3.3714286"
   inkscape:cx="-14.237288"
   inkscape:cy="35"
   inkscape:window-x="1272"
   inkscape:window-y="-8"
   inkscape:window-maximized="1"
   inkscape:current-layer="svg3121" />
<defs
   id="defs3123">
</defs>
<rect
   fill="none"
   width="70"
   height="70"
   id="rect3125" />
<linearGradient
   id="SVGID_1_"
   gradientUnits="userSpaceOnUse"
   x1="35"
   y1="19"
   x2="35"
   y2="50.8842"
   gradientTransform="matrix(1.6,0,0,1.6,-21,-21)">
	<stop
   offset="0"
   style="stop-color:#464646"
   id="stop3128" />
	<stop
   offset="0.0171"
   style="stop-color:#454545"
   id="stop3130" />
	<stop
   offset="0.3689"
   style="stop-color:#2E2E2E"
   id="stop3132" />
	<stop
   offset="0.7034"
   style="stop-color:#212121"
   id="stop3134" />
	<stop
   offset="1"
   style="stop-color:#1C1C1C"
   id="stop3136" />
</linearGradient>
<path
   d="M 35,9.4 C 16.0336,9.4 9.4,16.04 9.4,35 9.4,53.9696 16.0336,60.6 35,60.6 53.968,60.6 60.6,53.9696 60.6,35 60.6,16.04 53.968,9.4 35,9.4 z m 10.2784,31.7312 c 1.1936,1.1904 1.2336,3.0992 0.0944,4.24 -1.1472,1.1392 -3.0496,1.0992 -4.2432,-0.0896 L 35,39.1488 28.872,45.2816 c -1.1904,1.1888 -3.1008,1.2304 -4.24,0.0896 -1.1408,-1.1408 -1.1008,-3.0496 0.0944,-4.24 l 6.1248,-6.128 -6.1312,-6.1296 c -1.1872,-1.1952 -1.2288,-3.0992 -0.088,-4.24 1.1408,-1.144 3.0496,-1.1024 4.2368,0.0864 L 35,30.8512 41.1312,24.7184 c 1.1904,-1.1888 3.1008,-1.232 4.2368,-0.0912 1.144,1.1424 1.1024,3.056 -0.088,4.2384 l -6.1312,6.136 6.1296,6.1296 z"
   id="path3138"
   style="fill:url(#SVGID_1_);fill-opacity:0.4"
   inkscape:connector-curvature="0" />
</svg>