<?xml version="1.0" encoding="UTF-8" standalone="no"?>
<!-- Generator: Adobe Illustrator 15.0.2, SVG Export Plug-In  -->

<svg
   xmlns:dc="http://purl.org/dc/elements/1.1/"
   xmlns:cc="http://creativecommons.org/ns#"
   xmlns:rdf="http://www.w3.org/1999/02/22-rdf-syntax-ns#"
   xmlns:svg="http://www.w3.org/2000/svg"
   xmlns="http://www.w3.org/2000/svg"
   xmlns:sodipodi="http://sodipodi.sourceforge.net/DTD/sodipodi-0.dtd"
   xmlns:inkscape="http://www.inkscape.org/namespaces/inkscape"
   version="1.1"
   x="0px"
   y="0px"
   width="70px"
   height="70px"
   viewBox="0 0 70 70"
   overflow="visible"
   enable-background="new 0 0 70 70"
   xml:space="preserve"
   id="svg3062"
   inkscape:version="0.48.2 r9819"
   sodipodi:docname="graf_search_indicator.svg"><metadata
   id="metadata3096"><rdf:RDF><cc:Work
       rdf:about=""><dc:format>image/svg+xml</dc:format><dc:type
         rdf:resource="http://purl.org/dc/dcmitype/StillImage" /></cc:Work></rdf:RDF></metadata><sodipodi:namedview
   pagecolor="#ffffff"
   bordercolor="#666666"
   borderopacity="1"
   objecttolerance="10"
   gridtolerance="10"
   guidetolerance="10"
   inkscape:pageopacity="0"
   inkscape:pageshadow="2"
   inkscape:window-width="896"
   inkscape:window-height="628"
   id="namedview3094"
   showgrid="false"
   inkscape:zoom="4.76792"
   inkscape:cx="33.787554"
   inkscape:cy="35"
   inkscape:window-x="1439"
   inkscape:window-y="173"
   inkscape:window-maximized="0"
   inkscape:current-layer="svg3062" />
<defs
   id="defs3064">
</defs>
<rect
   fill="none"
   width="70"
   height="70"
   id="rect3066" />
<linearGradient
   id="SVGID_1_"
   gradientUnits="userSpaceOnUse"
   x1="44.9512"
   y1="21.3745"
   x2="44.9512"
   y2="51.5003"
   gradientTransform="matrix(1.6,0,0,1.6,-20.919338,-21.68115)">
	<stop
   offset="0"
   style="stop-color:#464646"
   id="stop3069" />
	<stop
   offset="0.0171"
   style="stop-color:#454545"
   id="stop3071" />
	<stop
   offset="0.3689"
   style="stop-color:#2E2E2E"
   id="stop3073" />
	<stop
   offset="0.7034"
   style="stop-color:#212121"
   id="stop3075" />
	<stop
   offset="1"
   style="stop-color:#1C1C1C"
   id="stop3077" />
</linearGradient>
<path
   d="m 57.717462,53.89325 -9.272,-9.2704 c -0.7024,0.9696 -1.4624,1.904 -2.3248,2.7664 -0.8624,0.8624 -1.7968,1.624 -2.7664,2.3264 l 9.2688,9.2688 c 1.2448,1.248 3.2816,1.248 4.5248,0 l 0.568,-0.5648 c 1.2464,-1.2464 1.2464,-3.2816 0.0016,-4.5264 z"
   id="path3079"
   style="fill:url(#SVGID_1_);fill-opacity:0.4"
   inkscape:connector-curvature="0" />
<linearGradient
   id="SVGID_2_"
   gradientUnits="userSpaceOnUse"
   x1="32"
   y1="21.375"
   x2="32"
   y2="51.4997"
   gradientTransform="matrix(1.6,0,0,1.6,-20.919338,-21.68115)">
	<stop
   offset="0"
   style="stop-color:#464646"
   id="stop3082" />
	<stop
   offset="0.0171"
   style="stop-color:#454545"
   id="stop3084" />
	<stop
   offset="0.3689"
   style="stop-color:#2E2E2E"
   id="stop3086" />
	<stop
   offset="0.7034"
   style="stop-color:#212121"
   id="stop3088" />
	<stop
   offset="1"
   style="stop-color:#1C1C1C"
   id="stop3090" />
</linearGradient>
<path
   d="m 20.099862,21.36845 c 5.6128,-5.616 14.7504,-5.6176 20.3664,-0.0016 5.6128,5.6144 5.6128,14.7504 -0.0032,20.3648 -5.6128,5.616 -14.7488,5.616 -20.3632,0 -5.616,-5.6144 -5.6176,-14.7488 0,-20.3632 m -3.3936,-3.3952 c -7.5007995,7.4976 -7.5007995,19.656 -0.0032,27.152 7.5008,7.4976 19.656,7.4976 27.1568,0.0016 7.4976,-7.4992 7.4976,-19.6544 0,-27.1536 -7.5008,-7.4976 -19.6576,-7.4976 -27.1536,0 l 0,0 z"
   id="path3092"
   style="fill:url(#SVGID_2_);fill-opacity:0.4"
   inkscape:connector-curvature="0" />
</svg>