<?xml version="1.0" encoding="utf-8"?>
<!-- Generator: Adobe Illustrator 15.0.2, SVG Export Plug-In  -->
<!DOCTYPE svg PUBLIC "-//W3C//DTD SVG 1.1//EN" "http://www.w3.org/Graphics/SVG/1.1/DTD/svg11.dtd" [
	<!ENTITY ns_flows "http://ns.adobe.com/Flows/1.0/">
]>
<svg version="1.1"
	 xmlns="http://www.w3.org/2000/svg" xmlns:xlink="http://www.w3.org/1999/xlink" xmlns:a="http://ns.adobe.com/AdobeSVGViewerExtensions/3.0/"
	 x="0px" y="0px" width="110px" height="40px" viewBox="0 0 110 40" overflow="visible" enable-background="new 0 0 110 40"
	 xml:space="preserve">
<defs>
</defs>
<rect fill="none" width="110" height="40"/>
<path d="M4.438,16.057c0.379-1.015,0.948-1.93,1.707-2.745c0.777-0.835,1.583-1.526,2.417-2.077
	c0.835-0.549,1.707-0.967,2.617-1.251c0.209-0.076,0.422-0.143,0.641-0.199c0.218-0.057,0.432-0.095,0.641-0.113
	c0.208-0.038,0.422-0.066,0.64-0.086c0.218-0.018,0.431-0.028,0.64-0.028L16.642,9.5v2.475h-2.247
	c-1.29,0.152-2.422,0.446-3.398,0.881c-0.977,0.437-1.798,1.043-2.461,1.82c-0.646,0.759-1.133,1.556-1.465,2.39
	s-0.498,1.697-0.498,2.588c0,0.19,0.008,0.408,0.028,0.655c0.019,0.246,0.056,0.511,0.113,0.796c0.038,0.132,0.071,0.275,0.1,0.426
	c0.028,0.152,0.071,0.294,0.128,0.427c0.038,0.152,0.086,0.298,0.143,0.441c0.057,0.142,0.123,0.289,0.199,0.441
	c0.227,0.531,0.541,1.034,0.938,1.507c0.398,0.475,0.872,0.93,1.423,1.366c0.55,0.436,1.218,0.763,2.005,0.981
	c0.786,0.218,1.702,0.328,2.745,0.328l2.247-0.058v2.475h-3.584c-1.46-0.018-2.759-0.279-3.897-0.782
	c-1.137-0.502-2.104-1.227-2.9-2.177c-0.797-0.948-1.394-2.009-1.793-3.186c-0.398-1.175-0.598-2.465-0.598-3.868v-0.058
	C3.869,18.176,4.059,17.072,4.438,16.057z M17.098,19.457c0.359-0.835,0.891-1.565,1.593-2.191c0.72-0.625,1.483-1.094,2.29-1.408
	c0.806-0.312,1.654-0.469,2.546-0.469c0.038,0,0.079,0,0.128,0c0.047,0,0.09,0,0.128,0c0.038,0.02,0.08,0.029,0.128,0.029
	c0.047,0,0.1,0,0.156,0c0.037,0,0.08,0,0.128,0c0.047,0,0.099,0,0.157,0c0.037,0.019,0.079,0.028,0.128,0.028
	c0.046,0,0.09,0,0.128,0c0.758,0.114,1.483,0.336,2.176,0.668c0.691,0.333,1.36,0.773,2.006,1.323
	c0.625,0.569,1.099,1.28,1.422,2.133c0.322,0.854,0.483,1.849,0.483,2.987c0,0.076,0,0.152,0,0.228c0,0.076-0.01,0.142-0.028,0.199
	c0,0.077-0.004,0.152-0.015,0.228c-0.01,0.077-0.014,0.152-0.014,0.228c-0.021,0.152-0.043,0.303-0.071,0.455
	c-0.029,0.152-0.062,0.304-0.1,0.455c-0.171,0.684-0.432,1.333-0.782,1.949c-0.352,0.616-0.801,1.199-1.352,1.749
	c-0.53,0.551-1.166,0.958-1.905,1.224c-0.74,0.265-1.564,0.398-2.475,0.398c-1.29,0-2.404-0.175-3.344-0.526
	c-0.938-0.352-1.701-0.886-2.289-1.608c-0.588-0.72-1.029-1.517-1.323-2.389c-0.294-0.873-0.44-1.812-0.44-2.817v-0.056
	C16.557,21.229,16.736,20.291,17.098,19.457z M19.259,22.685c0,0.125,0.009,0.252,0.029,0.384c0.018,0.133,0.042,0.262,0.07,0.384
	c0.028,0.124,0.052,0.252,0.071,0.384c0.094,0.417,0.246,0.825,0.455,1.223c0.209,0.399,0.465,0.779,0.768,1.139
	c0.322,0.36,0.721,0.625,1.195,0.796c0.474,0.171,1.033,0.256,1.679,0.256c0.606,0,1.175-0.085,1.706-0.256
	c0.531-0.171,1.014-0.426,1.451-0.769c0.436-0.341,0.764-0.838,0.981-1.493c0.217-0.654,0.327-1.455,0.327-2.405
	c0-0.663-0.096-1.265-0.285-1.805c-0.189-0.541-0.473-1.02-0.853-1.437c-0.38-0.398-0.85-0.702-1.408-0.911
	c-0.56-0.208-1.2-0.313-1.92-0.313c-0.683,0-1.271,0.09-1.764,0.27c-0.494,0.181-0.901,0.46-1.224,0.839
	c-0.323,0.36-0.584,0.75-0.782,1.167c-0.2,0.417-0.337,0.844-0.413,1.28c-0.019,0.076-0.038,0.152-0.056,0.227
	c-0.021,0.077-0.029,0.152-0.029,0.228c0,0.076,0,0.152,0,0.228s0,0.152,0,0.227v-0.056C19.259,22.425,19.259,22.562,19.259,22.685z
	 M31.718,20.025c0-0.588,0.114-1.142,0.342-1.665c0.228-0.521,0.579-1,1.053-1.437c0.474-0.436,1.023-0.763,1.649-0.981
	c0.626-0.217,1.327-0.327,2.105-0.327c0.55,0,1.033,0.043,1.45,0.128c0.418,0.085,0.759,0.204,1.024,0.355s0.513,0.337,0.74,0.554
	c0.228,0.219,0.426,0.47,0.597,0.754c0.171-0.227,0.38-0.44,0.626-0.64s0.541-0.394,0.883-0.583c0.34-0.189,0.72-0.331,1.137-0.427
	c0.416-0.094,0.883-0.142,1.394-0.142c0.646,0,1.252,0.09,1.821,0.271c0.568,0.181,1.1,0.46,1.593,0.839
	c0.493,0.36,0.867,0.773,1.124,1.237c0.256,0.466,0.393,0.981,0.411,1.551c0,0.02,0,0.033,0,0.043s0,0.023,0,0.042s0,0.033,0,0.042
	c0,0.01,0,0.024,0,0.043c-0.019,0.019-0.027,0.033-0.027,0.042c0,0.01,0,0.025,0,0.043c0,0.019,0,0.033,0,0.043s0,0.024,0,0.042
	v9.586h-2.475v-8.733c0,0.02,0,0.024,0,0.015c0-0.009,0.009-0.015,0.028-0.015c0-0.018,0-0.033,0-0.042c0-0.01,0-0.024,0-0.043
	c0-0.038,0-0.071,0-0.099c0-0.029,0-0.052,0-0.072c0-0.057-0.005-0.114-0.015-0.17c-0.01-0.057-0.024-0.124-0.042-0.2
	c-0.02-0.056-0.034-0.118-0.043-0.184c-0.01-0.067-0.024-0.138-0.043-0.214c-0.076-0.227-0.189-0.445-0.341-0.654
	c-0.152-0.208-0.333-0.408-0.542-0.598c-0.208-0.189-0.436-0.331-0.682-0.426c-0.247-0.095-0.503-0.142-0.769-0.142
	c-0.341,0-0.659,0.061-0.952,0.185c-0.294,0.124-0.564,0.308-0.812,0.555c-0.246,0.247-0.44,0.507-0.583,0.782
	c-0.142,0.275-0.242,0.564-0.299,0.868c-0.019,0.038-0.033,0.081-0.043,0.128c-0.009,0.047-0.014,0.09-0.014,0.128
	c0,0.057,0,0.104,0,0.143c0,0.039,0,0.076,0,0.114v8.675H39.57v-8.505c0-0.417-0.058-0.805-0.172-1.166
	c-0.113-0.36-0.283-0.692-0.512-0.995c-0.227-0.304-0.512-0.532-0.854-0.684c-0.341-0.151-0.73-0.227-1.166-0.227
	c-0.551,0.057-1.006,0.18-1.366,0.37c-0.36,0.19-0.626,0.446-0.796,0.769c-0.171,0.322-0.299,0.664-0.385,1.024
	c-0.084,0.361-0.127,0.73-0.127,1.109c0,0.019,0,0.039,0,0.057v0.029v8.22h-2.476V20.025z M50.436,22.5
	c0-0.985,0.129-1.863,0.385-2.631c0.256-0.768,0.64-1.426,1.151-1.977c0.513-0.55,1.048-1.005,1.607-1.365
	c0.56-0.361,1.153-0.635,1.778-0.825c0.171-0.057,0.341-0.104,0.512-0.142s0.342-0.066,0.512-0.086
	c0.096-0.019,0.181-0.033,0.257-0.042c0.075-0.009,0.161-0.015,0.256-0.015c0.075-0.019,0.156-0.029,0.241-0.029
	c0.086,0,0.166,0,0.242,0c1.005,0,1.887,0.119,2.646,0.356c0.758,0.237,1.403,0.603,1.935,1.095
	c0.512,0.475,0.953,0.972,1.322,1.493c0.37,0.522,0.649,1.067,0.84,1.635c0.074,0.228,0.142,0.456,0.199,0.684
	c0.057,0.228,0.095,0.455,0.113,0.683c0.038,0.227,0.066,0.44,0.086,0.639c0.018,0.2,0.028,0.394,0.028,0.584
	s-0.011,0.394-0.028,0.611c-0.02,0.219-0.048,0.442-0.086,0.669c-0.019,0.228-0.057,0.456-0.113,0.683
	c-0.058,0.228-0.125,0.455-0.199,0.683c-0.19,0.55-0.446,1.081-0.769,1.593c-0.323,0.511-0.73,1.004-1.224,1.479
	c-0.474,0.475-1.071,0.845-1.792,1.11c-0.721,0.266-1.554,0.436-2.503,0.511c-0.285,0-0.569-0.018-0.853-0.056
	c-0.285-0.039-0.589-0.096-0.911-0.171c-0.304-0.076-0.649-0.18-1.038-0.312c-0.389-0.133-0.802-0.313-1.237-0.541v-2.731
	c0.284,0.17,0.545,0.312,0.782,0.426c0.236,0.114,0.45,0.209,0.64,0.285c0.189,0.076,0.375,0.141,0.556,0.199
	c0.179,0.057,0.354,0.105,0.525,0.142c0.095,0.019,0.194,0.039,0.299,0.057c0.104,0.02,0.213,0.028,0.327,0.028
	c0.095,0.02,0.199,0.029,0.312,0.029c0.114,0,0.237,0,0.37,0c0.721,0,1.352-0.109,1.892-0.327c0.541-0.218,0.981-0.555,1.323-1.01
	c0.341-0.455,0.602-0.962,0.782-1.522c0.18-0.559,0.27-1.171,0.27-1.834c0-0.721-0.118-1.371-0.355-1.949
	c-0.236-0.578-0.592-1.076-1.066-1.493c-0.474-0.417-0.967-0.73-1.479-0.939c-0.513-0.208-1.043-0.313-1.594-0.313
	c-0.133,0-0.266,0.009-0.397,0.028c-0.134,0.019-0.276,0.047-0.427,0.085c-0.152,0.02-0.305,0.057-0.456,0.113
	c-0.151,0.057-0.304,0.125-0.455,0.2c-0.341,0.17-0.668,0.394-0.981,0.668c-0.312,0.274-0.611,0.603-0.896,0.982
	c-0.284,0.36-0.499,0.796-0.642,1.308c-0.141,0.512-0.212,1.1-0.212,1.764V35.5h-2.476V22.5z M76.123,21.59
	c0-0.417-0.082-0.83-0.242-1.238c-0.162-0.408-0.403-0.791-0.726-1.151c-0.323-0.379-0.778-0.665-1.365-0.854
	c-0.589-0.189-1.299-0.284-2.134-0.284c-0.133,0-0.27,0.009-0.412,0.027c-0.143,0.02-0.299,0.048-0.469,0.086
	c-0.172,0.019-0.342,0.057-0.513,0.114c-0.171,0.056-0.341,0.132-0.512,0.227c-0.304,0.132-0.597,0.318-0.882,0.555
	c-0.285,0.237-0.561,0.517-0.825,0.839c-0.247,0.303-0.446,0.678-0.597,1.123c-0.152,0.446-0.247,0.953-0.286,1.522
	c0,0.759,0.104,1.418,0.313,1.977c0.209,0.56,0.521,1.029,0.939,1.408c0.436,0.36,0.885,0.649,1.352,0.868
	c0.464,0.218,0.952,0.355,1.464,0.412c0.02,0,0.043,0,0.071,0s0.053,0,0.072,0c0.037,0.02,0.07,0.029,0.099,0.029s0.052,0,0.071,0
	c0.037,0,0.066,0,0.086,0c0.018,0,0.047,0,0.084,0c0.019,0,0.043,0,0.071,0c0.029,0,0.052,0,0.071,0c0.229,0,0.441-0.014,0.64-0.043
	c0.2-0.029,0.394-0.08,0.584-0.156c0.095-0.038,0.186-0.076,0.271-0.114c0.085-0.038,0.175-0.075,0.27-0.114
	c0.076-0.056,0.161-0.114,0.256-0.169c0.096-0.058,0.181-0.124,0.257-0.199c0.095-0.058,0.185-0.128,0.27-0.214
	c0.086-0.085,0.175-0.166,0.271-0.242c0.096-0.094,0.189-0.185,0.284-0.27c0.095-0.086,0.19-0.176,0.284-0.271v3.101
	c-0.018,0.038-0.037,0.066-0.056,0.085v0.029c-0.229,0.152-0.466,0.289-0.711,0.412c-0.247,0.125-0.503,0.233-0.769,0.328
	c-0.266,0.076-0.588,0.138-0.968,0.185c-0.38,0.047-0.815,0.071-1.309,0.071c-0.019,0-0.033,0-0.042,0c-0.011,0-0.023,0-0.043,0
	s-0.047,0-0.085,0c-0.02,0-0.038,0-0.058,0c-0.019,0-0.039,0-0.057,0c-0.02,0-0.033,0-0.043,0s-0.023,0-0.042,0
	c-0.873,0-1.684-0.156-2.433-0.47c-0.749-0.312-1.438-0.791-2.062-1.437c-0.625-0.663-1.095-1.426-1.408-2.289
	c-0.312-0.863-0.469-1.836-0.469-2.916c0-0.949,0.151-1.83,0.455-2.646c0.303-0.815,0.758-1.565,1.365-2.248
	s1.355-1.195,2.247-1.536c0.892-0.341,1.925-0.513,3.101-0.513c1.119,0,2.115,0.152,2.987,0.455c0.872,0.304,1.603,0.76,2.19,1.366
	c0.606,0.607,1.057,1.248,1.351,1.921s0.442,1.37,0.442,2.09v7.993h-2.703V21.59z M79.85,21.163c0-0.758,0.133-1.474,0.397-2.147
	c0.266-0.673,0.664-1.304,1.195-1.892c0.55-0.569,1.195-1,1.935-1.294c0.739-0.293,1.583-0.441,2.531-0.441
	c0.151,0,0.317,0.01,0.498,0.029c0.18,0.019,0.374,0.047,0.583,0.085c0.208,0.038,0.422,0.085,0.64,0.143s0.441,0.133,0.669,0.228
	c0.397,0.171,0.777,0.388,1.138,0.655c0.36,0.266,0.711,0.587,1.053,0.966c0.342,0.361,0.597,0.807,0.769,1.337
	c0.169,0.531,0.255,1.138,0.255,1.821c0,0.019,0,0.042,0,0.071s0,0.062,0,0.099c0,0.02,0,0.043,0,0.072c0,0.028,0,0.062,0,0.1v8.448
	h-2.703v-8.05c0-0.417-0.061-0.829-0.184-1.237s-0.309-0.792-0.555-1.152c-0.246-0.38-0.569-0.664-0.967-0.854
	c-0.398-0.188-0.873-0.284-1.423-0.284c-0.513,0-0.963,0.085-1.352,0.256c-0.388,0.171-0.726,0.426-1.009,0.769
	c-0.285,0.341-0.508,0.707-0.67,1.095c-0.16,0.389-0.27,0.801-0.327,1.238v8.22H79.85V21.163z M95.011,15.787v7.595
	c0,0.076,0,0.141,0,0.199c0,0.056,0,0.104,0,0.142c0,0.039,0,0.081,0,0.128s0.009,0.089,0.028,0.127
	c0.019,0.418,0.086,0.812,0.199,1.181c0.113,0.37,0.284,0.725,0.513,1.066c0.208,0.342,0.535,0.597,0.98,0.769
	c0.445,0.171,0.991,0.256,1.636,0.256c0.494,0,0.926-0.081,1.294-0.241c0.37-0.161,0.669-0.413,0.897-0.754
	c0.227-0.341,0.402-0.707,0.525-1.095s0.185-0.811,0.185-1.266v-8.106h2.703v8.05c0,0.039,0,0.071,0,0.1
	c0,0.029,0.009,0.053,0.028,0.071c0,0.038,0,0.066,0,0.085s0,0.038,0,0.056c0,0.039,0,0.082,0,0.128c0,0.047,0,0.09,0,0.128
	c0,0.018,0,0.038,0,0.056c0,0.02,0,0.039,0,0.058c-0.02,0.568-0.119,1.123-0.299,1.664c-0.181,0.54-0.46,1.066-0.84,1.578
	c-0.359,0.512-0.82,0.925-1.379,1.238c-0.56,0.312-1.228,0.536-2.006,0.668V35.5H97.03v-5.832c-0.626-0.152-1.204-0.36-1.735-0.625
	c-0.531-0.265-1.023-0.579-1.479-0.938c-0.454-0.38-0.806-0.844-1.052-1.395c-0.247-0.549-0.398-1.184-0.455-1.905v-9.017H95.011z"
	/>
</svg>
