<?xml version="1.0" encoding="utf-8"?>
<!-- Generator: Adobe Illustrator 15.0.2, SVG Export Plug-In . SVG Version: 6.00 Build 0)  -->
<!DOCTYPE svg PUBLIC "-//W3C//DTD SVG 1.1//EN" "http://www.w3.org/Graphics/SVG/1.1/DTD/svg11.dtd">
<svg version="1.1" id="Layer_1" xmlns="http://www.w3.org/2000/svg" xmlns:xlink="http://www.w3.org/1999/xlink" x="0px" y="0px"
	 width="42px" height="42px" viewBox="0 0 42 42" enable-background="new 0 0 42 42" xml:space="preserve">
<path fill="#FAEC21" d="M21,4c12.71,0,17,4.29,17,17s-4.29,17-17,17S4,33.71,4,21S8.29,4,21,4"/>
<linearGradient id="SVGID_1_" gradientUnits="userSpaceOnUse" x1="-152.9995" y1="188.1631" x2="-152.9995" y2="174.4517" gradientTransform="matrix(1 0 0 -1 174 193)">
	<stop  offset="0" style="stop-color:#FFFFFF"/>
	<stop  offset="0.1404" style="stop-color:#FFFFFF;stop-opacity:0.8596"/>
	<stop  offset="1" style="stop-color:#FFFFFF;stop-opacity:0"/>
</linearGradient>
<path fill="url(#SVGID_1_)" fill-opacity="0.3" d="M21,4c12.71,0,17,4.29,17,17s-4.29,17-17,17S4,33.71,4,21S8.29,4,21,4"/>
<rect fill="none" width="42" height="42"/>
<linearGradient id="SVGID_2_" gradientUnits="userSpaceOnUse" x1="-153.0005" y1="154.375" x2="-153.0005" y2="189.689" gradientTransform="matrix(1 0 0 -1 174 193)">
	<stop  offset="0" style="stop-color:#FFFFFF"/>
	<stop  offset="1" style="stop-color:#FFFFFF;stop-opacity:0"/>
</linearGradient>
<path fill="url(#SVGID_2_)" d="M21,4c12.71,0,17,4.29,17,17s-4.29,17-17,17S4,33.71,4,21S8.29,4,21,4 M21,3C7.667,3,3,7.666,3,21
	c0,13.336,4.667,18,18,18s18-4.664,18-18C39,7.666,34.333,3,21,3L21,3z"/>
<linearGradient id="SVGID_3_" gradientUnits="userSpaceOnUse" x1="-152.9995" y1="188.4326" x2="-152.9995" y2="155.2589" gradientTransform="matrix(1 0 0 -1 174 193)">
	<stop  offset="0" style="stop-color:#000000"/>
	<stop  offset="1" style="stop-color:#000000;stop-opacity:0"/>
</linearGradient>
<path opacity="0.06" fill="url(#SVGID_3_)" enable-background="new    " d="M21,4C8.291,4,4,8.29,4,21s4.291,17,17,17
	c12.711,0,17-4.29,17-17S33.711,4,21,4z M21,35C10.01,35,7,31.991,7,21C7,10.01,10.01,7,21,7s14,3.01,14,14
	C35,31.991,31.99,35,21,35z"/>
<linearGradient id="SVGID_4_" gradientUnits="userSpaceOnUse" x1="-152.9995" y1="188.4326" x2="-152.9995" y2="155.2589" gradientTransform="matrix(1 0 0 -1 174 193)">
	<stop  offset="0" style="stop-color:#000000"/>
	<stop  offset="1" style="stop-color:#000000;stop-opacity:0"/>
</linearGradient>
<path opacity="0.1" fill="url(#SVGID_4_)" enable-background="new    " d="M21,4C8.291,4,4,8.29,4,21s4.291,17,17,17
	c12.711,0,17-4.29,17-17S33.711,4,21,4z M21,36C9.506,36,6,32.495,6,21S9.506,6,21,6c11.496,0,15,3.505,15,15S32.496,36,21,36z"/>
<linearGradient id="SVGID_5_" gradientUnits="userSpaceOnUse" x1="-152.9995" y1="188.4326" x2="-152.9995" y2="155.2589" gradientTransform="matrix(1 0 0 -1 174 193)">
	<stop  offset="0" style="stop-color:#000000"/>
	<stop  offset="1" style="stop-color:#000000;stop-opacity:0"/>
</linearGradient>
<path opacity="0.2" fill="url(#SVGID_5_)" enable-background="new    " d="M21,4C8.291,4,4,8.29,4,21s4.291,17,17,17
	c12.711,0,17-4.29,17-17S33.711,4,21,4z M21,37C8.889,37,5,33.111,5,21C5,8.888,8.889,5,21,5c12.113,0,16,3.888,16,16
	C37,33.111,33.113,37,21,37z"/>
<rect fill="none" width="42" height="42"/>
<rect fill="none" width="42" height="42"/>
<rect fill="none" width="42" height="42"/>
<path opacity="0.5" enable-background="new    " d="M21,13.93c-6.382,0-7.771,2.768-7.771,7.862c0,5.103,1.43,7.872,7.771,7.872
	c6.382,0,7.771-2.762,7.771-7.854C28.771,16.708,27.344,13.93,21,13.93z"/>
<path fill="#FFFFFF" d="M21,12.336c-6.382,0-7.771,2.768-7.771,7.859c0,5.105,1.43,7.875,7.771,7.875
	c6.382,0,7.771-2.762,7.771-7.854C28.771,15.113,27.344,12.336,21,12.336z"/>
<linearGradient id="SVGID_6_" gradientUnits="userSpaceOnUse" x1="-153.0005" y1="156.0293" x2="-153.0005" y2="190.7915" gradientTransform="matrix(1 0 0 -1 174 193)">
	<stop  offset="0" style="stop-color:#000000"/>
	<stop  offset="1" style="stop-color:#000000;stop-opacity:0"/>
</linearGradient>
<path opacity="0.2" fill="url(#SVGID_6_)" enable-background="new    " d="M21,13.486c-6.382,0-7.771,2.769-7.771,7.86
	c0,5.104,1.43,7.875,7.771,7.875c6.382,0,7.771-2.763,7.771-7.854C28.771,16.264,27.344,13.486,21,13.486z"/>
</svg>
