<?xml version="1.0" encoding="utf-8"?>
<!-- Generator: Adobe Illustrator 15.0.2, SVG Export Plug-In . SVG Version: 6.00 Build 0)  -->
<!DOCTYPE svg PUBLIC "-//W3C//DTD SVG 1.1//EN" "http://www.w3.org/Graphics/SVG/1.1/DTD/svg11.dtd">
<svg version="1.1" id="Layer_1" xmlns="http://www.w3.org/2000/svg" xmlns:xlink="http://www.w3.org/1999/xlink" x="0px" y="0px"
	 width="110px" height="42px" viewBox="0 0 110 42" enable-background="new 0 0 110 42" xml:space="preserve">
<path d="M110,0H21C5.442,0,0,5.446,0,21c0,15.561,5.442,21,21,21h89V0z"/>
<linearGradient id="SVGID_1_" gradientUnits="userSpaceOnUse" x1="-118.9995" y1="165" x2="-118.9995" y2="123.2428" gradientTransform="matrix(1 0 0 -1 174 165)">
	<stop  offset="0" style="stop-color:#FAEC21"/>
	<stop  offset="1" style="stop-color:#FAEC21;stop-opacity:0.5"/>
</linearGradient>
<path fill="url(#SVGID_1_)" fill-opacity="0.5" d="M110,0H21C5.442,0,0,5.446,0,21c0,15.561,5.442,21,21,21h89V0z"/>
<linearGradient id="SVGID_2_" gradientUnits="userSpaceOnUse" x1="-118.9995" y1="165" x2="-118.9995" y2="122.7765" gradientTransform="matrix(1 0 0 -1 174 165)">
	<stop  offset="0" style="stop-color:#FFFFFF;stop-opacity:0.2"/>
	<stop  offset="1" style="stop-color:#000000;stop-opacity:0.9"/>
</linearGradient>
<path fill="url(#SVGID_2_)" d="M20,41C5.047,41,0,35.953,0,21S5.047,1,20,1h90V0H21C5.442,0,0,5.446,0,21c0,15.561,5.442,21,21,21
	h89v-1H20z"/>
<rect x="109" y="1" fill="#FFFFFF" fill-opacity="0.05" width="1" height="40"/>
</svg>
